%TF.GenerationSoftware,KiCad,Pcbnew,8.0.3*%
%TF.CreationDate,2024-06-22T23:36:34-05:00*%
%TF.ProjectId,Ematch2,456d6174-6368-4322-9e6b-696361645f70,rev?*%
%TF.SameCoordinates,Original*%
%TF.FileFunction,Soldermask,Top*%
%TF.FilePolarity,Negative*%
%FSLAX46Y46*%
G04 Gerber Fmt 4.6, Leading zero omitted, Abs format (unit mm)*
G04 Created by KiCad (PCBNEW 8.0.3) date 2024-06-22 23:36:34*
%MOMM*%
%LPD*%
G01*
G04 APERTURE LIST*
G04 Aperture macros list*
%AMRoundRect*
0 Rectangle with rounded corners*
0 $1 Rounding radius*
0 $2 $3 $4 $5 $6 $7 $8 $9 X,Y pos of 4 corners*
0 Add a 4 corners polygon primitive as box body*
4,1,4,$2,$3,$4,$5,$6,$7,$8,$9,$2,$3,0*
0 Add four circle primitives for the rounded corners*
1,1,$1+$1,$2,$3*
1,1,$1+$1,$4,$5*
1,1,$1+$1,$6,$7*
1,1,$1+$1,$8,$9*
0 Add four rect primitives between the rounded corners*
20,1,$1+$1,$2,$3,$4,$5,0*
20,1,$1+$1,$4,$5,$6,$7,0*
20,1,$1+$1,$6,$7,$8,$9,0*
20,1,$1+$1,$8,$9,$2,$3,0*%
G04 Aperture macros list end*
%ADD10C,7.500000*%
%ADD11RoundRect,0.250000X0.450000X-0.262500X0.450000X0.262500X-0.450000X0.262500X-0.450000X-0.262500X0*%
%ADD12RoundRect,0.250000X-0.450000X0.262500X-0.450000X-0.262500X0.450000X-0.262500X0.450000X0.262500X0*%
%ADD13RoundRect,0.150000X0.150000X-0.587500X0.150000X0.587500X-0.150000X0.587500X-0.150000X-0.587500X0*%
%ADD14RoundRect,0.243750X0.456250X-0.243750X0.456250X0.243750X-0.456250X0.243750X-0.456250X-0.243750X0*%
%ADD15R,1.000000X1.000000*%
%ADD16C,5.700000*%
%ADD17RoundRect,0.150000X-0.587500X-0.150000X0.587500X-0.150000X0.587500X0.150000X-0.587500X0.150000X0*%
%ADD18C,2.400000*%
%ADD19O,2.400000X2.400000*%
%ADD20RoundRect,0.150000X-0.150000X0.587500X-0.150000X-0.587500X0.150000X-0.587500X0.150000X0.587500X0*%
%ADD21R,1.700000X1.700000*%
%ADD22O,1.700000X1.700000*%
%ADD23RoundRect,0.200000X-0.250000X-0.200000X0.250000X-0.200000X0.250000X0.200000X-0.250000X0.200000X0*%
%ADD24RoundRect,0.200000X0.250000X0.200000X-0.250000X0.200000X-0.250000X-0.200000X0.250000X-0.200000X0*%
G04 APERTURE END LIST*
D10*
%TO.C,CLIP1*%
X148950000Y-76850000D03*
%TD*%
D11*
%TO.C,R6*%
X124600000Y-87000000D03*
X124600000Y-85175000D03*
%TD*%
D12*
%TO.C,R3*%
X125400000Y-77375000D03*
X125400000Y-79200000D03*
%TD*%
%TO.C,R7*%
X127400000Y-85175000D03*
X127400000Y-87000000D03*
%TD*%
D10*
%TO.C,CLIP4*%
X166800000Y-100400000D03*
%TD*%
D12*
%TO.C,R16*%
X119600000Y-98175000D03*
X119600000Y-100000000D03*
%TD*%
D11*
%TO.C,R2*%
X130400000Y-79200000D03*
X130400000Y-77375000D03*
%TD*%
%TO.C,R8*%
X132050000Y-93112500D03*
X132050000Y-91287500D03*
%TD*%
D13*
%TO.C,Q4*%
X124337500Y-93025000D03*
X126237500Y-93025000D03*
X125287500Y-91150000D03*
%TD*%
D12*
%TO.C,R13*%
X119600000Y-103887500D03*
X119600000Y-105712500D03*
%TD*%
D14*
%TO.C,LED1*%
X118600000Y-80825000D03*
X118600000Y-78950000D03*
%TD*%
D11*
%TO.C,R15*%
X129400000Y-105800000D03*
X129400000Y-103975000D03*
%TD*%
D15*
%TO.C,TP2*%
X141600000Y-94400000D03*
%TD*%
D16*
%TO.C,REF\u002A\u002A*%
X180000000Y-104000000D03*
%TD*%
D17*
%TO.C,Q5*%
X132662500Y-103850000D03*
X132662500Y-105750000D03*
X134537500Y-104800000D03*
%TD*%
%TO.C,Q6*%
X132400000Y-97050000D03*
X132400000Y-98950000D03*
X134275000Y-98000000D03*
%TD*%
D11*
%TO.C,R9*%
X134700000Y-93125000D03*
X134700000Y-91300000D03*
%TD*%
D12*
%TO.C,R11*%
X120887500Y-91287500D03*
X120887500Y-93112500D03*
%TD*%
D10*
%TO.C,CLIP2*%
X166800000Y-76850000D03*
%TD*%
D12*
%TO.C,R1*%
X118200000Y-73975000D03*
X118200000Y-75800000D03*
%TD*%
D11*
%TO.C,C1*%
X120800000Y-75800000D03*
X120800000Y-73975000D03*
%TD*%
%TO.C,R18*%
X129400000Y-99000000D03*
X129400000Y-97175000D03*
%TD*%
D14*
%TO.C,LED2*%
X118200000Y-87537500D03*
X118200000Y-85662500D03*
%TD*%
D15*
%TO.C,TP1*%
X141600000Y-91000000D03*
%TD*%
D14*
%TO.C,LED4*%
X116400000Y-99975000D03*
X116400000Y-98100000D03*
%TD*%
D18*
%TO.C,R19*%
X172770000Y-87800000D03*
D19*
X144830000Y-87800000D03*
%TD*%
D10*
%TO.C,CLIP3*%
X148950000Y-100400000D03*
%TD*%
D11*
%TO.C,R14*%
X126450000Y-105800000D03*
X126450000Y-103975000D03*
%TD*%
D20*
%TO.C,Q1*%
X125200000Y-71612500D03*
X123300000Y-71612500D03*
X124250000Y-73487500D03*
%TD*%
D16*
%TO.C,REF\u002A\u002A*%
X180000000Y-71000000D03*
%TD*%
D14*
%TO.C,LED3*%
X116487500Y-105687500D03*
X116487500Y-103812500D03*
%TD*%
D13*
%TO.C,Q2*%
X127850000Y-73425000D03*
X129750000Y-73425000D03*
X128800000Y-71550000D03*
%TD*%
%TO.C,D1*%
X137100000Y-93200000D03*
X139000000Y-93200000D03*
X138050000Y-91325000D03*
%TD*%
D12*
%TO.C,R4*%
X127800000Y-77262500D03*
X127800000Y-79087500D03*
%TD*%
D11*
%TO.C,R5*%
X122600000Y-80600000D03*
X122600000Y-78775000D03*
%TD*%
D12*
%TO.C,R12*%
X121000000Y-85775000D03*
X121000000Y-87600000D03*
%TD*%
D11*
%TO.C,C2*%
X130400000Y-87000000D03*
X130400000Y-85175000D03*
%TD*%
D21*
%TO.C,J1*%
X107600000Y-76240000D03*
D22*
X107600000Y-78780000D03*
X107600000Y-81320000D03*
X107600000Y-83860000D03*
X107600000Y-86400000D03*
X107600000Y-88940000D03*
X107600000Y-91480000D03*
X107600000Y-94020000D03*
X107600000Y-96560000D03*
X107600000Y-99100000D03*
%TD*%
D11*
%TO.C,R17*%
X126450000Y-99000000D03*
X126450000Y-97175000D03*
%TD*%
D16*
%TO.C,REF\u002A\u002A*%
X110000000Y-71000000D03*
%TD*%
D12*
%TO.C,R10*%
X129087500Y-91175000D03*
X129087500Y-93000000D03*
%TD*%
D23*
%TO.C,Q3*%
X134800000Y-85450000D03*
X134800000Y-87350000D03*
X137200000Y-86400000D03*
%TD*%
D24*
%TO.C,Q7*%
X141600000Y-87350000D03*
X141600000Y-85450000D03*
X139200000Y-86400000D03*
%TD*%
D16*
%TO.C,REF\u002A\u002A*%
X110000000Y-104000000D03*
%TD*%
M02*
