%TF.GenerationSoftware,KiCad,Pcbnew,8.0.3*%
%TF.CreationDate,2024-06-22T23:36:34-05:00*%
%TF.ProjectId,Ematch2,456d6174-6368-4322-9e6b-696361645f70,rev?*%
%TF.SameCoordinates,Original*%
%TF.FileFunction,Legend,Top*%
%TF.FilePolarity,Positive*%
%FSLAX46Y46*%
G04 Gerber Fmt 4.6, Leading zero omitted, Abs format (unit mm)*
G04 Created by KiCad (PCBNEW 8.0.3) date 2024-06-22 23:36:34*
%MOMM*%
%LPD*%
G01*
G04 APERTURE LIST*
G04 Aperture macros list*
%AMRoundRect*
0 Rectangle with rounded corners*
0 $1 Rounding radius*
0 $2 $3 $4 $5 $6 $7 $8 $9 X,Y pos of 4 corners*
0 Add a 4 corners polygon primitive as box body*
4,1,4,$2,$3,$4,$5,$6,$7,$8,$9,$2,$3,0*
0 Add four circle primitives for the rounded corners*
1,1,$1+$1,$2,$3*
1,1,$1+$1,$4,$5*
1,1,$1+$1,$6,$7*
1,1,$1+$1,$8,$9*
0 Add four rect primitives between the rounded corners*
20,1,$1+$1,$2,$3,$4,$5,0*
20,1,$1+$1,$4,$5,$6,$7,0*
20,1,$1+$1,$6,$7,$8,$9,0*
20,1,$1+$1,$8,$9,$2,$3,0*%
G04 Aperture macros list end*
%ADD10C,0.150000*%
%ADD11C,0.120000*%
%ADD12C,0.005000*%
%ADD13C,7.500000*%
%ADD14RoundRect,0.250000X0.450000X-0.262500X0.450000X0.262500X-0.450000X0.262500X-0.450000X-0.262500X0*%
%ADD15RoundRect,0.250000X-0.450000X0.262500X-0.450000X-0.262500X0.450000X-0.262500X0.450000X0.262500X0*%
%ADD16RoundRect,0.150000X0.150000X-0.587500X0.150000X0.587500X-0.150000X0.587500X-0.150000X-0.587500X0*%
%ADD17RoundRect,0.243750X0.456250X-0.243750X0.456250X0.243750X-0.456250X0.243750X-0.456250X-0.243750X0*%
%ADD18R,1.000000X1.000000*%
%ADD19C,5.700000*%
%ADD20RoundRect,0.150000X-0.587500X-0.150000X0.587500X-0.150000X0.587500X0.150000X-0.587500X0.150000X0*%
%ADD21C,2.400000*%
%ADD22O,2.400000X2.400000*%
%ADD23RoundRect,0.150000X-0.150000X0.587500X-0.150000X-0.587500X0.150000X-0.587500X0.150000X0.587500X0*%
%ADD24R,1.700000X1.700000*%
%ADD25O,1.700000X1.700000*%
%ADD26RoundRect,0.200000X-0.250000X-0.200000X0.250000X-0.200000X0.250000X0.200000X-0.250000X0.200000X0*%
%ADD27RoundRect,0.200000X0.250000X0.200000X-0.250000X0.200000X-0.250000X-0.200000X0.250000X-0.200000X0*%
G04 APERTURE END LIST*
D10*
X110460588Y-96102438D02*
X110365350Y-96054819D01*
X110365350Y-96054819D02*
X110222493Y-96054819D01*
X110222493Y-96054819D02*
X110079636Y-96102438D01*
X110079636Y-96102438D02*
X109984398Y-96197676D01*
X109984398Y-96197676D02*
X109936779Y-96292914D01*
X109936779Y-96292914D02*
X109889160Y-96483390D01*
X109889160Y-96483390D02*
X109889160Y-96626247D01*
X109889160Y-96626247D02*
X109936779Y-96816723D01*
X109936779Y-96816723D02*
X109984398Y-96911961D01*
X109984398Y-96911961D02*
X110079636Y-97007200D01*
X110079636Y-97007200D02*
X110222493Y-97054819D01*
X110222493Y-97054819D02*
X110317731Y-97054819D01*
X110317731Y-97054819D02*
X110460588Y-97007200D01*
X110460588Y-97007200D02*
X110508207Y-96959580D01*
X110508207Y-96959580D02*
X110508207Y-96626247D01*
X110508207Y-96626247D02*
X110317731Y-96626247D01*
X110936779Y-97054819D02*
X110936779Y-96054819D01*
X110936779Y-96054819D02*
X111508207Y-97054819D01*
X111508207Y-97054819D02*
X111508207Y-96054819D01*
X111984398Y-97054819D02*
X111984398Y-96054819D01*
X111984398Y-96054819D02*
X112222493Y-96054819D01*
X112222493Y-96054819D02*
X112365350Y-96102438D01*
X112365350Y-96102438D02*
X112460588Y-96197676D01*
X112460588Y-96197676D02*
X112508207Y-96292914D01*
X112508207Y-96292914D02*
X112555826Y-96483390D01*
X112555826Y-96483390D02*
X112555826Y-96626247D01*
X112555826Y-96626247D02*
X112508207Y-96816723D01*
X112508207Y-96816723D02*
X112460588Y-96911961D01*
X112460588Y-96911961D02*
X112365350Y-97007200D01*
X112365350Y-97007200D02*
X112222493Y-97054819D01*
X112222493Y-97054819D02*
X111984398Y-97054819D01*
X110508207Y-94359580D02*
X110460588Y-94407200D01*
X110460588Y-94407200D02*
X110317731Y-94454819D01*
X110317731Y-94454819D02*
X110222493Y-94454819D01*
X110222493Y-94454819D02*
X110079636Y-94407200D01*
X110079636Y-94407200D02*
X109984398Y-94311961D01*
X109984398Y-94311961D02*
X109936779Y-94216723D01*
X109936779Y-94216723D02*
X109889160Y-94026247D01*
X109889160Y-94026247D02*
X109889160Y-93883390D01*
X109889160Y-93883390D02*
X109936779Y-93692914D01*
X109936779Y-93692914D02*
X109984398Y-93597676D01*
X109984398Y-93597676D02*
X110079636Y-93502438D01*
X110079636Y-93502438D02*
X110222493Y-93454819D01*
X110222493Y-93454819D02*
X110317731Y-93454819D01*
X110317731Y-93454819D02*
X110460588Y-93502438D01*
X110460588Y-93502438D02*
X110508207Y-93550057D01*
X110936779Y-93454819D02*
X110936779Y-94264342D01*
X110936779Y-94264342D02*
X110984398Y-94359580D01*
X110984398Y-94359580D02*
X111032017Y-94407200D01*
X111032017Y-94407200D02*
X111127255Y-94454819D01*
X111127255Y-94454819D02*
X111317731Y-94454819D01*
X111317731Y-94454819D02*
X111412969Y-94407200D01*
X111412969Y-94407200D02*
X111460588Y-94359580D01*
X111460588Y-94359580D02*
X111508207Y-94264342D01*
X111508207Y-94264342D02*
X111508207Y-93454819D01*
X111984398Y-93931009D02*
X112317731Y-93931009D01*
X112460588Y-94454819D02*
X111984398Y-94454819D01*
X111984398Y-94454819D02*
X111984398Y-93454819D01*
X111984398Y-93454819D02*
X112460588Y-93454819D01*
X113412969Y-94454819D02*
X112841541Y-94454819D01*
X113127255Y-94454819D02*
X113127255Y-93454819D01*
X113127255Y-93454819D02*
X113032017Y-93597676D01*
X113032017Y-93597676D02*
X112936779Y-93692914D01*
X112936779Y-93692914D02*
X112841541Y-93740533D01*
X110460588Y-98502438D02*
X110365350Y-98454819D01*
X110365350Y-98454819D02*
X110222493Y-98454819D01*
X110222493Y-98454819D02*
X110079636Y-98502438D01*
X110079636Y-98502438D02*
X109984398Y-98597676D01*
X109984398Y-98597676D02*
X109936779Y-98692914D01*
X109936779Y-98692914D02*
X109889160Y-98883390D01*
X109889160Y-98883390D02*
X109889160Y-99026247D01*
X109889160Y-99026247D02*
X109936779Y-99216723D01*
X109936779Y-99216723D02*
X109984398Y-99311961D01*
X109984398Y-99311961D02*
X110079636Y-99407200D01*
X110079636Y-99407200D02*
X110222493Y-99454819D01*
X110222493Y-99454819D02*
X110317731Y-99454819D01*
X110317731Y-99454819D02*
X110460588Y-99407200D01*
X110460588Y-99407200D02*
X110508207Y-99359580D01*
X110508207Y-99359580D02*
X110508207Y-99026247D01*
X110508207Y-99026247D02*
X110317731Y-99026247D01*
X110936779Y-99454819D02*
X110936779Y-98454819D01*
X110936779Y-98454819D02*
X111508207Y-99454819D01*
X111508207Y-99454819D02*
X111508207Y-98454819D01*
X111984398Y-99454819D02*
X111984398Y-98454819D01*
X111984398Y-98454819D02*
X112222493Y-98454819D01*
X112222493Y-98454819D02*
X112365350Y-98502438D01*
X112365350Y-98502438D02*
X112460588Y-98597676D01*
X112460588Y-98597676D02*
X112508207Y-98692914D01*
X112508207Y-98692914D02*
X112555826Y-98883390D01*
X112555826Y-98883390D02*
X112555826Y-99026247D01*
X112555826Y-99026247D02*
X112508207Y-99216723D01*
X112508207Y-99216723D02*
X112460588Y-99311961D01*
X112460588Y-99311961D02*
X112365350Y-99407200D01*
X112365350Y-99407200D02*
X112222493Y-99454819D01*
X112222493Y-99454819D02*
X111984398Y-99454819D01*
X112936779Y-98550057D02*
X112984398Y-98502438D01*
X112984398Y-98502438D02*
X113079636Y-98454819D01*
X113079636Y-98454819D02*
X113317731Y-98454819D01*
X113317731Y-98454819D02*
X113412969Y-98502438D01*
X113412969Y-98502438D02*
X113460588Y-98550057D01*
X113460588Y-98550057D02*
X113508207Y-98645295D01*
X113508207Y-98645295D02*
X113508207Y-98740533D01*
X113508207Y-98740533D02*
X113460588Y-98883390D01*
X113460588Y-98883390D02*
X112889160Y-99454819D01*
X112889160Y-99454819D02*
X113508207Y-99454819D01*
X110508207Y-91759580D02*
X110460588Y-91807200D01*
X110460588Y-91807200D02*
X110317731Y-91854819D01*
X110317731Y-91854819D02*
X110222493Y-91854819D01*
X110222493Y-91854819D02*
X110079636Y-91807200D01*
X110079636Y-91807200D02*
X109984398Y-91711961D01*
X109984398Y-91711961D02*
X109936779Y-91616723D01*
X109936779Y-91616723D02*
X109889160Y-91426247D01*
X109889160Y-91426247D02*
X109889160Y-91283390D01*
X109889160Y-91283390D02*
X109936779Y-91092914D01*
X109936779Y-91092914D02*
X109984398Y-90997676D01*
X109984398Y-90997676D02*
X110079636Y-90902438D01*
X110079636Y-90902438D02*
X110222493Y-90854819D01*
X110222493Y-90854819D02*
X110317731Y-90854819D01*
X110317731Y-90854819D02*
X110460588Y-90902438D01*
X110460588Y-90902438D02*
X110508207Y-90950057D01*
X110936779Y-90854819D02*
X110936779Y-91664342D01*
X110936779Y-91664342D02*
X110984398Y-91759580D01*
X110984398Y-91759580D02*
X111032017Y-91807200D01*
X111032017Y-91807200D02*
X111127255Y-91854819D01*
X111127255Y-91854819D02*
X111317731Y-91854819D01*
X111317731Y-91854819D02*
X111412969Y-91807200D01*
X111412969Y-91807200D02*
X111460588Y-91759580D01*
X111460588Y-91759580D02*
X111508207Y-91664342D01*
X111508207Y-91664342D02*
X111508207Y-90854819D01*
X111984398Y-91331009D02*
X112317731Y-91331009D01*
X112460588Y-91854819D02*
X111984398Y-91854819D01*
X111984398Y-91854819D02*
X111984398Y-90854819D01*
X111984398Y-90854819D02*
X112460588Y-90854819D01*
X113079636Y-90854819D02*
X113174874Y-90854819D01*
X113174874Y-90854819D02*
X113270112Y-90902438D01*
X113270112Y-90902438D02*
X113317731Y-90950057D01*
X113317731Y-90950057D02*
X113365350Y-91045295D01*
X113365350Y-91045295D02*
X113412969Y-91235771D01*
X113412969Y-91235771D02*
X113412969Y-91473866D01*
X113412969Y-91473866D02*
X113365350Y-91664342D01*
X113365350Y-91664342D02*
X113317731Y-91759580D01*
X113317731Y-91759580D02*
X113270112Y-91807200D01*
X113270112Y-91807200D02*
X113174874Y-91854819D01*
X113174874Y-91854819D02*
X113079636Y-91854819D01*
X113079636Y-91854819D02*
X112984398Y-91807200D01*
X112984398Y-91807200D02*
X112936779Y-91759580D01*
X112936779Y-91759580D02*
X112889160Y-91664342D01*
X112889160Y-91664342D02*
X112841541Y-91473866D01*
X112841541Y-91473866D02*
X112841541Y-91235771D01*
X112841541Y-91235771D02*
X112889160Y-91045295D01*
X112889160Y-91045295D02*
X112936779Y-90950057D01*
X112936779Y-90950057D02*
X112984398Y-90902438D01*
X112984398Y-90902438D02*
X113079636Y-90854819D01*
X147317731Y-108022200D02*
X147222493Y-108069819D01*
X147222493Y-108069819D02*
X147032017Y-108069819D01*
X147032017Y-108069819D02*
X146936779Y-108022200D01*
X146936779Y-108022200D02*
X146889160Y-107926961D01*
X146889160Y-107926961D02*
X146889160Y-107546009D01*
X146889160Y-107546009D02*
X146936779Y-107450771D01*
X146936779Y-107450771D02*
X147032017Y-107403152D01*
X147032017Y-107403152D02*
X147222493Y-107403152D01*
X147222493Y-107403152D02*
X147317731Y-107450771D01*
X147317731Y-107450771D02*
X147365350Y-107546009D01*
X147365350Y-107546009D02*
X147365350Y-107641247D01*
X147365350Y-107641247D02*
X146889160Y-107736485D01*
X147793922Y-108069819D02*
X147793922Y-107403152D01*
X147793922Y-107498390D02*
X147841541Y-107450771D01*
X147841541Y-107450771D02*
X147936779Y-107403152D01*
X147936779Y-107403152D02*
X148079636Y-107403152D01*
X148079636Y-107403152D02*
X148174874Y-107450771D01*
X148174874Y-107450771D02*
X148222493Y-107546009D01*
X148222493Y-107546009D02*
X148222493Y-108069819D01*
X148222493Y-107546009D02*
X148270112Y-107450771D01*
X148270112Y-107450771D02*
X148365350Y-107403152D01*
X148365350Y-107403152D02*
X148508207Y-107403152D01*
X148508207Y-107403152D02*
X148603446Y-107450771D01*
X148603446Y-107450771D02*
X148651065Y-107546009D01*
X148651065Y-107546009D02*
X148651065Y-108069819D01*
X149555826Y-108069819D02*
X149555826Y-107546009D01*
X149555826Y-107546009D02*
X149508207Y-107450771D01*
X149508207Y-107450771D02*
X149412969Y-107403152D01*
X149412969Y-107403152D02*
X149222493Y-107403152D01*
X149222493Y-107403152D02*
X149127255Y-107450771D01*
X149555826Y-108022200D02*
X149460588Y-108069819D01*
X149460588Y-108069819D02*
X149222493Y-108069819D01*
X149222493Y-108069819D02*
X149127255Y-108022200D01*
X149127255Y-108022200D02*
X149079636Y-107926961D01*
X149079636Y-107926961D02*
X149079636Y-107831723D01*
X149079636Y-107831723D02*
X149127255Y-107736485D01*
X149127255Y-107736485D02*
X149222493Y-107688866D01*
X149222493Y-107688866D02*
X149460588Y-107688866D01*
X149460588Y-107688866D02*
X149555826Y-107641247D01*
X149889160Y-107403152D02*
X150270112Y-107403152D01*
X150032017Y-107069819D02*
X150032017Y-107926961D01*
X150032017Y-107926961D02*
X150079636Y-108022200D01*
X150079636Y-108022200D02*
X150174874Y-108069819D01*
X150174874Y-108069819D02*
X150270112Y-108069819D01*
X151032017Y-108022200D02*
X150936779Y-108069819D01*
X150936779Y-108069819D02*
X150746303Y-108069819D01*
X150746303Y-108069819D02*
X150651065Y-108022200D01*
X150651065Y-108022200D02*
X150603446Y-107974580D01*
X150603446Y-107974580D02*
X150555827Y-107879342D01*
X150555827Y-107879342D02*
X150555827Y-107593628D01*
X150555827Y-107593628D02*
X150603446Y-107498390D01*
X150603446Y-107498390D02*
X150651065Y-107450771D01*
X150651065Y-107450771D02*
X150746303Y-107403152D01*
X150746303Y-107403152D02*
X150936779Y-107403152D01*
X150936779Y-107403152D02*
X151032017Y-107450771D01*
X151460589Y-108069819D02*
X151460589Y-107069819D01*
X151889160Y-108069819D02*
X151889160Y-107546009D01*
X151889160Y-107546009D02*
X151841541Y-107450771D01*
X151841541Y-107450771D02*
X151746303Y-107403152D01*
X151746303Y-107403152D02*
X151603446Y-107403152D01*
X151603446Y-107403152D02*
X151508208Y-107450771D01*
X151508208Y-107450771D02*
X151460589Y-107498390D01*
X152317732Y-107165057D02*
X152365351Y-107117438D01*
X152365351Y-107117438D02*
X152460589Y-107069819D01*
X152460589Y-107069819D02*
X152698684Y-107069819D01*
X152698684Y-107069819D02*
X152793922Y-107117438D01*
X152793922Y-107117438D02*
X152841541Y-107165057D01*
X152841541Y-107165057D02*
X152889160Y-107260295D01*
X152889160Y-107260295D02*
X152889160Y-107355533D01*
X152889160Y-107355533D02*
X152841541Y-107498390D01*
X152841541Y-107498390D02*
X152270113Y-108069819D01*
X152270113Y-108069819D02*
X152889160Y-108069819D01*
X153984399Y-107403152D02*
X154222494Y-108069819D01*
X154222494Y-108069819D02*
X154460589Y-107403152D01*
X155365351Y-108069819D02*
X154793923Y-108069819D01*
X155079637Y-108069819D02*
X155079637Y-107069819D01*
X155079637Y-107069819D02*
X154984399Y-107212676D01*
X154984399Y-107212676D02*
X154889161Y-107307914D01*
X154889161Y-107307914D02*
X154793923Y-107355533D01*
X155793923Y-107974580D02*
X155841542Y-108022200D01*
X155841542Y-108022200D02*
X155793923Y-108069819D01*
X155793923Y-108069819D02*
X155746304Y-108022200D01*
X155746304Y-108022200D02*
X155793923Y-107974580D01*
X155793923Y-107974580D02*
X155793923Y-108069819D01*
X156460589Y-107069819D02*
X156555827Y-107069819D01*
X156555827Y-107069819D02*
X156651065Y-107117438D01*
X156651065Y-107117438D02*
X156698684Y-107165057D01*
X156698684Y-107165057D02*
X156746303Y-107260295D01*
X156746303Y-107260295D02*
X156793922Y-107450771D01*
X156793922Y-107450771D02*
X156793922Y-107688866D01*
X156793922Y-107688866D02*
X156746303Y-107879342D01*
X156746303Y-107879342D02*
X156698684Y-107974580D01*
X156698684Y-107974580D02*
X156651065Y-108022200D01*
X156651065Y-108022200D02*
X156555827Y-108069819D01*
X156555827Y-108069819D02*
X156460589Y-108069819D01*
X156460589Y-108069819D02*
X156365351Y-108022200D01*
X156365351Y-108022200D02*
X156317732Y-107974580D01*
X156317732Y-107974580D02*
X156270113Y-107879342D01*
X156270113Y-107879342D02*
X156222494Y-107688866D01*
X156222494Y-107688866D02*
X156222494Y-107450771D01*
X156222494Y-107450771D02*
X156270113Y-107260295D01*
X156270113Y-107260295D02*
X156317732Y-107165057D01*
X156317732Y-107165057D02*
X156365351Y-107117438D01*
X156365351Y-107117438D02*
X156460589Y-107069819D01*
X158412970Y-107069819D02*
X158222494Y-107069819D01*
X158222494Y-107069819D02*
X158127256Y-107117438D01*
X158127256Y-107117438D02*
X158079637Y-107165057D01*
X158079637Y-107165057D02*
X157984399Y-107307914D01*
X157984399Y-107307914D02*
X157936780Y-107498390D01*
X157936780Y-107498390D02*
X157936780Y-107879342D01*
X157936780Y-107879342D02*
X157984399Y-107974580D01*
X157984399Y-107974580D02*
X158032018Y-108022200D01*
X158032018Y-108022200D02*
X158127256Y-108069819D01*
X158127256Y-108069819D02*
X158317732Y-108069819D01*
X158317732Y-108069819D02*
X158412970Y-108022200D01*
X158412970Y-108022200D02*
X158460589Y-107974580D01*
X158460589Y-107974580D02*
X158508208Y-107879342D01*
X158508208Y-107879342D02*
X158508208Y-107641247D01*
X158508208Y-107641247D02*
X158460589Y-107546009D01*
X158460589Y-107546009D02*
X158412970Y-107498390D01*
X158412970Y-107498390D02*
X158317732Y-107450771D01*
X158317732Y-107450771D02*
X158127256Y-107450771D01*
X158127256Y-107450771D02*
X158032018Y-107498390D01*
X158032018Y-107498390D02*
X157984399Y-107546009D01*
X157984399Y-107546009D02*
X157936780Y-107641247D01*
X159651065Y-107022200D02*
X158793923Y-108307914D01*
X159936780Y-107165057D02*
X159984399Y-107117438D01*
X159984399Y-107117438D02*
X160079637Y-107069819D01*
X160079637Y-107069819D02*
X160317732Y-107069819D01*
X160317732Y-107069819D02*
X160412970Y-107117438D01*
X160412970Y-107117438D02*
X160460589Y-107165057D01*
X160460589Y-107165057D02*
X160508208Y-107260295D01*
X160508208Y-107260295D02*
X160508208Y-107355533D01*
X160508208Y-107355533D02*
X160460589Y-107498390D01*
X160460589Y-107498390D02*
X159889161Y-108069819D01*
X159889161Y-108069819D02*
X160508208Y-108069819D01*
X160889161Y-107165057D02*
X160936780Y-107117438D01*
X160936780Y-107117438D02*
X161032018Y-107069819D01*
X161032018Y-107069819D02*
X161270113Y-107069819D01*
X161270113Y-107069819D02*
X161365351Y-107117438D01*
X161365351Y-107117438D02*
X161412970Y-107165057D01*
X161412970Y-107165057D02*
X161460589Y-107260295D01*
X161460589Y-107260295D02*
X161460589Y-107355533D01*
X161460589Y-107355533D02*
X161412970Y-107498390D01*
X161412970Y-107498390D02*
X160841542Y-108069819D01*
X160841542Y-108069819D02*
X161460589Y-108069819D01*
X162603446Y-107022200D02*
X161746304Y-108307914D01*
X162889161Y-107165057D02*
X162936780Y-107117438D01*
X162936780Y-107117438D02*
X163032018Y-107069819D01*
X163032018Y-107069819D02*
X163270113Y-107069819D01*
X163270113Y-107069819D02*
X163365351Y-107117438D01*
X163365351Y-107117438D02*
X163412970Y-107165057D01*
X163412970Y-107165057D02*
X163460589Y-107260295D01*
X163460589Y-107260295D02*
X163460589Y-107355533D01*
X163460589Y-107355533D02*
X163412970Y-107498390D01*
X163412970Y-107498390D02*
X162841542Y-108069819D01*
X162841542Y-108069819D02*
X163460589Y-108069819D01*
X164079637Y-107069819D02*
X164174875Y-107069819D01*
X164174875Y-107069819D02*
X164270113Y-107117438D01*
X164270113Y-107117438D02*
X164317732Y-107165057D01*
X164317732Y-107165057D02*
X164365351Y-107260295D01*
X164365351Y-107260295D02*
X164412970Y-107450771D01*
X164412970Y-107450771D02*
X164412970Y-107688866D01*
X164412970Y-107688866D02*
X164365351Y-107879342D01*
X164365351Y-107879342D02*
X164317732Y-107974580D01*
X164317732Y-107974580D02*
X164270113Y-108022200D01*
X164270113Y-108022200D02*
X164174875Y-108069819D01*
X164174875Y-108069819D02*
X164079637Y-108069819D01*
X164079637Y-108069819D02*
X163984399Y-108022200D01*
X163984399Y-108022200D02*
X163936780Y-107974580D01*
X163936780Y-107974580D02*
X163889161Y-107879342D01*
X163889161Y-107879342D02*
X163841542Y-107688866D01*
X163841542Y-107688866D02*
X163841542Y-107450771D01*
X163841542Y-107450771D02*
X163889161Y-107260295D01*
X163889161Y-107260295D02*
X163936780Y-107165057D01*
X163936780Y-107165057D02*
X163984399Y-107117438D01*
X163984399Y-107117438D02*
X164079637Y-107069819D01*
X164793923Y-107165057D02*
X164841542Y-107117438D01*
X164841542Y-107117438D02*
X164936780Y-107069819D01*
X164936780Y-107069819D02*
X165174875Y-107069819D01*
X165174875Y-107069819D02*
X165270113Y-107117438D01*
X165270113Y-107117438D02*
X165317732Y-107165057D01*
X165317732Y-107165057D02*
X165365351Y-107260295D01*
X165365351Y-107260295D02*
X165365351Y-107355533D01*
X165365351Y-107355533D02*
X165317732Y-107498390D01*
X165317732Y-107498390D02*
X164746304Y-108069819D01*
X164746304Y-108069819D02*
X165365351Y-108069819D01*
X166222494Y-107403152D02*
X166222494Y-108069819D01*
X165984399Y-107022200D02*
X165746304Y-107736485D01*
X165746304Y-107736485D02*
X166365351Y-107736485D01*
X168079637Y-108069819D02*
X167746304Y-107593628D01*
X167508209Y-108069819D02*
X167508209Y-107069819D01*
X167508209Y-107069819D02*
X167889161Y-107069819D01*
X167889161Y-107069819D02*
X167984399Y-107117438D01*
X167984399Y-107117438D02*
X168032018Y-107165057D01*
X168032018Y-107165057D02*
X168079637Y-107260295D01*
X168079637Y-107260295D02*
X168079637Y-107403152D01*
X168079637Y-107403152D02*
X168032018Y-107498390D01*
X168032018Y-107498390D02*
X167984399Y-107546009D01*
X167984399Y-107546009D02*
X167889161Y-107593628D01*
X167889161Y-107593628D02*
X167508209Y-107593628D01*
X168793923Y-107069819D02*
X168793923Y-107784104D01*
X168793923Y-107784104D02*
X168746304Y-107926961D01*
X168746304Y-107926961D02*
X168651066Y-108022200D01*
X168651066Y-108022200D02*
X168508209Y-108069819D01*
X168508209Y-108069819D02*
X168412971Y-108069819D01*
X169222495Y-107784104D02*
X169698685Y-107784104D01*
X169127257Y-108069819D02*
X169460590Y-107069819D01*
X169460590Y-107069819D02*
X169793923Y-108069819D01*
X110508207Y-78959580D02*
X110460588Y-79007200D01*
X110460588Y-79007200D02*
X110317731Y-79054819D01*
X110317731Y-79054819D02*
X110222493Y-79054819D01*
X110222493Y-79054819D02*
X110079636Y-79007200D01*
X110079636Y-79007200D02*
X109984398Y-78911961D01*
X109984398Y-78911961D02*
X109936779Y-78816723D01*
X109936779Y-78816723D02*
X109889160Y-78626247D01*
X109889160Y-78626247D02*
X109889160Y-78483390D01*
X109889160Y-78483390D02*
X109936779Y-78292914D01*
X109936779Y-78292914D02*
X109984398Y-78197676D01*
X109984398Y-78197676D02*
X110079636Y-78102438D01*
X110079636Y-78102438D02*
X110222493Y-78054819D01*
X110222493Y-78054819D02*
X110317731Y-78054819D01*
X110317731Y-78054819D02*
X110460588Y-78102438D01*
X110460588Y-78102438D02*
X110508207Y-78150057D01*
X110936779Y-79054819D02*
X110936779Y-78054819D01*
X110936779Y-78531009D02*
X111508207Y-78531009D01*
X111508207Y-79054819D02*
X111508207Y-78054819D01*
X111984398Y-78531009D02*
X112317731Y-78531009D01*
X112460588Y-79054819D02*
X111984398Y-79054819D01*
X111984398Y-79054819D02*
X111984398Y-78054819D01*
X111984398Y-78054819D02*
X112460588Y-78054819D01*
X113460588Y-78959580D02*
X113412969Y-79007200D01*
X113412969Y-79007200D02*
X113270112Y-79054819D01*
X113270112Y-79054819D02*
X113174874Y-79054819D01*
X113174874Y-79054819D02*
X113032017Y-79007200D01*
X113032017Y-79007200D02*
X112936779Y-78911961D01*
X112936779Y-78911961D02*
X112889160Y-78816723D01*
X112889160Y-78816723D02*
X112841541Y-78626247D01*
X112841541Y-78626247D02*
X112841541Y-78483390D01*
X112841541Y-78483390D02*
X112889160Y-78292914D01*
X112889160Y-78292914D02*
X112936779Y-78197676D01*
X112936779Y-78197676D02*
X113032017Y-78102438D01*
X113032017Y-78102438D02*
X113174874Y-78054819D01*
X113174874Y-78054819D02*
X113270112Y-78054819D01*
X113270112Y-78054819D02*
X113412969Y-78102438D01*
X113412969Y-78102438D02*
X113460588Y-78150057D01*
X113889160Y-79054819D02*
X113889160Y-78054819D01*
X114460588Y-79054819D02*
X114032017Y-78483390D01*
X114460588Y-78054819D02*
X113889160Y-78626247D01*
X109889160Y-81607200D02*
X110032017Y-81654819D01*
X110032017Y-81654819D02*
X110270112Y-81654819D01*
X110270112Y-81654819D02*
X110365350Y-81607200D01*
X110365350Y-81607200D02*
X110412969Y-81559580D01*
X110412969Y-81559580D02*
X110460588Y-81464342D01*
X110460588Y-81464342D02*
X110460588Y-81369104D01*
X110460588Y-81369104D02*
X110412969Y-81273866D01*
X110412969Y-81273866D02*
X110365350Y-81226247D01*
X110365350Y-81226247D02*
X110270112Y-81178628D01*
X110270112Y-81178628D02*
X110079636Y-81131009D01*
X110079636Y-81131009D02*
X109984398Y-81083390D01*
X109984398Y-81083390D02*
X109936779Y-81035771D01*
X109936779Y-81035771D02*
X109889160Y-80940533D01*
X109889160Y-80940533D02*
X109889160Y-80845295D01*
X109889160Y-80845295D02*
X109936779Y-80750057D01*
X109936779Y-80750057D02*
X109984398Y-80702438D01*
X109984398Y-80702438D02*
X110079636Y-80654819D01*
X110079636Y-80654819D02*
X110317731Y-80654819D01*
X110317731Y-80654819D02*
X110460588Y-80702438D01*
X110889160Y-81131009D02*
X111222493Y-81131009D01*
X111365350Y-81654819D02*
X110889160Y-81654819D01*
X110889160Y-81654819D02*
X110889160Y-80654819D01*
X110889160Y-80654819D02*
X111365350Y-80654819D01*
X111793922Y-81654819D02*
X111793922Y-80654819D01*
X111793922Y-80654819D02*
X112365350Y-81654819D01*
X112365350Y-81654819D02*
X112365350Y-80654819D01*
X112793922Y-81607200D02*
X112936779Y-81654819D01*
X112936779Y-81654819D02*
X113174874Y-81654819D01*
X113174874Y-81654819D02*
X113270112Y-81607200D01*
X113270112Y-81607200D02*
X113317731Y-81559580D01*
X113317731Y-81559580D02*
X113365350Y-81464342D01*
X113365350Y-81464342D02*
X113365350Y-81369104D01*
X113365350Y-81369104D02*
X113317731Y-81273866D01*
X113317731Y-81273866D02*
X113270112Y-81226247D01*
X113270112Y-81226247D02*
X113174874Y-81178628D01*
X113174874Y-81178628D02*
X112984398Y-81131009D01*
X112984398Y-81131009D02*
X112889160Y-81083390D01*
X112889160Y-81083390D02*
X112841541Y-81035771D01*
X112841541Y-81035771D02*
X112793922Y-80940533D01*
X112793922Y-80940533D02*
X112793922Y-80845295D01*
X112793922Y-80845295D02*
X112841541Y-80750057D01*
X112841541Y-80750057D02*
X112889160Y-80702438D01*
X112889160Y-80702438D02*
X112984398Y-80654819D01*
X112984398Y-80654819D02*
X113222493Y-80654819D01*
X113222493Y-80654819D02*
X113365350Y-80702438D01*
X113793922Y-81131009D02*
X114127255Y-81131009D01*
X114270112Y-81654819D02*
X113793922Y-81654819D01*
X113793922Y-81654819D02*
X113793922Y-80654819D01*
X113793922Y-80654819D02*
X114270112Y-80654819D01*
X109889160Y-86569104D02*
X110365350Y-86569104D01*
X109793922Y-86854819D02*
X110127255Y-85854819D01*
X110127255Y-85854819D02*
X110460588Y-86854819D01*
X110746303Y-86807200D02*
X110889160Y-86854819D01*
X110889160Y-86854819D02*
X111127255Y-86854819D01*
X111127255Y-86854819D02*
X111222493Y-86807200D01*
X111222493Y-86807200D02*
X111270112Y-86759580D01*
X111270112Y-86759580D02*
X111317731Y-86664342D01*
X111317731Y-86664342D02*
X111317731Y-86569104D01*
X111317731Y-86569104D02*
X111270112Y-86473866D01*
X111270112Y-86473866D02*
X111222493Y-86426247D01*
X111222493Y-86426247D02*
X111127255Y-86378628D01*
X111127255Y-86378628D02*
X110936779Y-86331009D01*
X110936779Y-86331009D02*
X110841541Y-86283390D01*
X110841541Y-86283390D02*
X110793922Y-86235771D01*
X110793922Y-86235771D02*
X110746303Y-86140533D01*
X110746303Y-86140533D02*
X110746303Y-86045295D01*
X110746303Y-86045295D02*
X110793922Y-85950057D01*
X110793922Y-85950057D02*
X110841541Y-85902438D01*
X110841541Y-85902438D02*
X110936779Y-85854819D01*
X110936779Y-85854819D02*
X111174874Y-85854819D01*
X111174874Y-85854819D02*
X111317731Y-85902438D01*
X111746303Y-86331009D02*
X112079636Y-86331009D01*
X112222493Y-86854819D02*
X111746303Y-86854819D01*
X111746303Y-86854819D02*
X111746303Y-85854819D01*
X111746303Y-85854819D02*
X112222493Y-85854819D01*
X112651065Y-86854819D02*
X112651065Y-85854819D01*
X112651065Y-85854819D02*
X113222493Y-86854819D01*
X113222493Y-86854819D02*
X113222493Y-85854819D01*
X113651065Y-86807200D02*
X113793922Y-86854819D01*
X113793922Y-86854819D02*
X114032017Y-86854819D01*
X114032017Y-86854819D02*
X114127255Y-86807200D01*
X114127255Y-86807200D02*
X114174874Y-86759580D01*
X114174874Y-86759580D02*
X114222493Y-86664342D01*
X114222493Y-86664342D02*
X114222493Y-86569104D01*
X114222493Y-86569104D02*
X114174874Y-86473866D01*
X114174874Y-86473866D02*
X114127255Y-86426247D01*
X114127255Y-86426247D02*
X114032017Y-86378628D01*
X114032017Y-86378628D02*
X113841541Y-86331009D01*
X113841541Y-86331009D02*
X113746303Y-86283390D01*
X113746303Y-86283390D02*
X113698684Y-86235771D01*
X113698684Y-86235771D02*
X113651065Y-86140533D01*
X113651065Y-86140533D02*
X113651065Y-86045295D01*
X113651065Y-86045295D02*
X113698684Y-85950057D01*
X113698684Y-85950057D02*
X113746303Y-85902438D01*
X113746303Y-85902438D02*
X113841541Y-85854819D01*
X113841541Y-85854819D02*
X114079636Y-85854819D01*
X114079636Y-85854819D02*
X114222493Y-85902438D01*
X114651065Y-86331009D02*
X114984398Y-86331009D01*
X115127255Y-86854819D02*
X114651065Y-86854819D01*
X114651065Y-86854819D02*
X114651065Y-85854819D01*
X114651065Y-85854819D02*
X115127255Y-85854819D01*
X110270112Y-88731009D02*
X109936779Y-88731009D01*
X109936779Y-89254819D02*
X109936779Y-88254819D01*
X109936779Y-88254819D02*
X110412969Y-88254819D01*
X110793922Y-89254819D02*
X110793922Y-88254819D01*
X111841540Y-89254819D02*
X111508207Y-88778628D01*
X111270112Y-89254819D02*
X111270112Y-88254819D01*
X111270112Y-88254819D02*
X111651064Y-88254819D01*
X111651064Y-88254819D02*
X111746302Y-88302438D01*
X111746302Y-88302438D02*
X111793921Y-88350057D01*
X111793921Y-88350057D02*
X111841540Y-88445295D01*
X111841540Y-88445295D02*
X111841540Y-88588152D01*
X111841540Y-88588152D02*
X111793921Y-88683390D01*
X111793921Y-88683390D02*
X111746302Y-88731009D01*
X111746302Y-88731009D02*
X111651064Y-88778628D01*
X111651064Y-88778628D02*
X111270112Y-88778628D01*
X112270112Y-88731009D02*
X112603445Y-88731009D01*
X112746302Y-89254819D02*
X112270112Y-89254819D01*
X112270112Y-89254819D02*
X112270112Y-88254819D01*
X112270112Y-88254819D02*
X112746302Y-88254819D01*
X109841541Y-75654819D02*
X110460588Y-75654819D01*
X110460588Y-75654819D02*
X110127255Y-76035771D01*
X110127255Y-76035771D02*
X110270112Y-76035771D01*
X110270112Y-76035771D02*
X110365350Y-76083390D01*
X110365350Y-76083390D02*
X110412969Y-76131009D01*
X110412969Y-76131009D02*
X110460588Y-76226247D01*
X110460588Y-76226247D02*
X110460588Y-76464342D01*
X110460588Y-76464342D02*
X110412969Y-76559580D01*
X110412969Y-76559580D02*
X110365350Y-76607200D01*
X110365350Y-76607200D02*
X110270112Y-76654819D01*
X110270112Y-76654819D02*
X109984398Y-76654819D01*
X109984398Y-76654819D02*
X109889160Y-76607200D01*
X109889160Y-76607200D02*
X109841541Y-76559580D01*
X110746303Y-75654819D02*
X111079636Y-76654819D01*
X111079636Y-76654819D02*
X111412969Y-75654819D01*
X111651065Y-75654819D02*
X112270112Y-75654819D01*
X112270112Y-75654819D02*
X111936779Y-76035771D01*
X111936779Y-76035771D02*
X112079636Y-76035771D01*
X112079636Y-76035771D02*
X112174874Y-76083390D01*
X112174874Y-76083390D02*
X112222493Y-76131009D01*
X112222493Y-76131009D02*
X112270112Y-76226247D01*
X112270112Y-76226247D02*
X112270112Y-76464342D01*
X112270112Y-76464342D02*
X112222493Y-76559580D01*
X112222493Y-76559580D02*
X112174874Y-76607200D01*
X112174874Y-76607200D02*
X112079636Y-76654819D01*
X112079636Y-76654819D02*
X111793922Y-76654819D01*
X111793922Y-76654819D02*
X111698684Y-76607200D01*
X111698684Y-76607200D02*
X111651065Y-76559580D01*
X109793922Y-83054819D02*
X110127255Y-84054819D01*
X110127255Y-84054819D02*
X110460588Y-83054819D01*
X110746303Y-83769104D02*
X111222493Y-83769104D01*
X110651065Y-84054819D02*
X110984398Y-83054819D01*
X110984398Y-83054819D02*
X111317731Y-84054819D01*
X112222493Y-84054819D02*
X111889160Y-83578628D01*
X111651065Y-84054819D02*
X111651065Y-83054819D01*
X111651065Y-83054819D02*
X112032017Y-83054819D01*
X112032017Y-83054819D02*
X112127255Y-83102438D01*
X112127255Y-83102438D02*
X112174874Y-83150057D01*
X112174874Y-83150057D02*
X112222493Y-83245295D01*
X112222493Y-83245295D02*
X112222493Y-83388152D01*
X112222493Y-83388152D02*
X112174874Y-83483390D01*
X112174874Y-83483390D02*
X112127255Y-83531009D01*
X112127255Y-83531009D02*
X112032017Y-83578628D01*
X112032017Y-83578628D02*
X111651065Y-83578628D01*
X112651065Y-84054819D02*
X112651065Y-83054819D01*
X112651065Y-83054819D02*
X112984398Y-83769104D01*
X112984398Y-83769104D02*
X113317731Y-83054819D01*
X113317731Y-83054819D02*
X113317731Y-84054819D01*
X154822493Y-87069819D02*
X154822493Y-87784104D01*
X154822493Y-87784104D02*
X154774874Y-87926961D01*
X154774874Y-87926961D02*
X154679636Y-88022200D01*
X154679636Y-88022200D02*
X154536779Y-88069819D01*
X154536779Y-88069819D02*
X154441541Y-88069819D01*
X155774874Y-88069819D02*
X155298684Y-88069819D01*
X155298684Y-88069819D02*
X155298684Y-87069819D01*
X156679636Y-87974580D02*
X156632017Y-88022200D01*
X156632017Y-88022200D02*
X156489160Y-88069819D01*
X156489160Y-88069819D02*
X156393922Y-88069819D01*
X156393922Y-88069819D02*
X156251065Y-88022200D01*
X156251065Y-88022200D02*
X156155827Y-87926961D01*
X156155827Y-87926961D02*
X156108208Y-87831723D01*
X156108208Y-87831723D02*
X156060589Y-87641247D01*
X156060589Y-87641247D02*
X156060589Y-87498390D01*
X156060589Y-87498390D02*
X156108208Y-87307914D01*
X156108208Y-87307914D02*
X156155827Y-87212676D01*
X156155827Y-87212676D02*
X156251065Y-87117438D01*
X156251065Y-87117438D02*
X156393922Y-87069819D01*
X156393922Y-87069819D02*
X156489160Y-87069819D01*
X156489160Y-87069819D02*
X156632017Y-87117438D01*
X156632017Y-87117438D02*
X156679636Y-87165057D01*
X157393922Y-87069819D02*
X157393922Y-87784104D01*
X157393922Y-87784104D02*
X157346303Y-87926961D01*
X157346303Y-87926961D02*
X157251065Y-88022200D01*
X157251065Y-88022200D02*
X157108208Y-88069819D01*
X157108208Y-88069819D02*
X157012970Y-88069819D01*
X158346303Y-88069819D02*
X157870113Y-88069819D01*
X157870113Y-88069819D02*
X157870113Y-87069819D01*
X159251065Y-87974580D02*
X159203446Y-88022200D01*
X159203446Y-88022200D02*
X159060589Y-88069819D01*
X159060589Y-88069819D02*
X158965351Y-88069819D01*
X158965351Y-88069819D02*
X158822494Y-88022200D01*
X158822494Y-88022200D02*
X158727256Y-87926961D01*
X158727256Y-87926961D02*
X158679637Y-87831723D01*
X158679637Y-87831723D02*
X158632018Y-87641247D01*
X158632018Y-87641247D02*
X158632018Y-87498390D01*
X158632018Y-87498390D02*
X158679637Y-87307914D01*
X158679637Y-87307914D02*
X158727256Y-87212676D01*
X158727256Y-87212676D02*
X158822494Y-87117438D01*
X158822494Y-87117438D02*
X158965351Y-87069819D01*
X158965351Y-87069819D02*
X159060589Y-87069819D01*
X159060589Y-87069819D02*
X159203446Y-87117438D01*
X159203446Y-87117438D02*
X159251065Y-87165057D01*
X159965351Y-87069819D02*
X159965351Y-87784104D01*
X159965351Y-87784104D02*
X159917732Y-87926961D01*
X159917732Y-87926961D02*
X159822494Y-88022200D01*
X159822494Y-88022200D02*
X159679637Y-88069819D01*
X159679637Y-88069819D02*
X159584399Y-88069819D01*
X160917732Y-88069819D02*
X160441542Y-88069819D01*
X160441542Y-88069819D02*
X160441542Y-87069819D01*
X161822494Y-87974580D02*
X161774875Y-88022200D01*
X161774875Y-88022200D02*
X161632018Y-88069819D01*
X161632018Y-88069819D02*
X161536780Y-88069819D01*
X161536780Y-88069819D02*
X161393923Y-88022200D01*
X161393923Y-88022200D02*
X161298685Y-87926961D01*
X161298685Y-87926961D02*
X161251066Y-87831723D01*
X161251066Y-87831723D02*
X161203447Y-87641247D01*
X161203447Y-87641247D02*
X161203447Y-87498390D01*
X161203447Y-87498390D02*
X161251066Y-87307914D01*
X161251066Y-87307914D02*
X161298685Y-87212676D01*
X161298685Y-87212676D02*
X161393923Y-87117438D01*
X161393923Y-87117438D02*
X161536780Y-87069819D01*
X161536780Y-87069819D02*
X161632018Y-87069819D01*
X161632018Y-87069819D02*
X161774875Y-87117438D01*
X161774875Y-87117438D02*
X161822494Y-87165057D01*
X162536780Y-87069819D02*
X162536780Y-87784104D01*
X162536780Y-87784104D02*
X162489161Y-87926961D01*
X162489161Y-87926961D02*
X162393923Y-88022200D01*
X162393923Y-88022200D02*
X162251066Y-88069819D01*
X162251066Y-88069819D02*
X162155828Y-88069819D01*
X163489161Y-88069819D02*
X163012971Y-88069819D01*
X163012971Y-88069819D02*
X163012971Y-87069819D01*
X164393923Y-87974580D02*
X164346304Y-88022200D01*
X164346304Y-88022200D02*
X164203447Y-88069819D01*
X164203447Y-88069819D02*
X164108209Y-88069819D01*
X164108209Y-88069819D02*
X163965352Y-88022200D01*
X163965352Y-88022200D02*
X163870114Y-87926961D01*
X163870114Y-87926961D02*
X163822495Y-87831723D01*
X163822495Y-87831723D02*
X163774876Y-87641247D01*
X163774876Y-87641247D02*
X163774876Y-87498390D01*
X163774876Y-87498390D02*
X163822495Y-87307914D01*
X163822495Y-87307914D02*
X163870114Y-87212676D01*
X163870114Y-87212676D02*
X163965352Y-87117438D01*
X163965352Y-87117438D02*
X164108209Y-87069819D01*
X164108209Y-87069819D02*
X164203447Y-87069819D01*
X164203447Y-87069819D02*
X164346304Y-87117438D01*
X164346304Y-87117438D02*
X164393923Y-87165057D01*
X147688095Y-72509580D02*
X147640476Y-72557200D01*
X147640476Y-72557200D02*
X147497619Y-72604819D01*
X147497619Y-72604819D02*
X147402381Y-72604819D01*
X147402381Y-72604819D02*
X147259524Y-72557200D01*
X147259524Y-72557200D02*
X147164286Y-72461961D01*
X147164286Y-72461961D02*
X147116667Y-72366723D01*
X147116667Y-72366723D02*
X147069048Y-72176247D01*
X147069048Y-72176247D02*
X147069048Y-72033390D01*
X147069048Y-72033390D02*
X147116667Y-71842914D01*
X147116667Y-71842914D02*
X147164286Y-71747676D01*
X147164286Y-71747676D02*
X147259524Y-71652438D01*
X147259524Y-71652438D02*
X147402381Y-71604819D01*
X147402381Y-71604819D02*
X147497619Y-71604819D01*
X147497619Y-71604819D02*
X147640476Y-71652438D01*
X147640476Y-71652438D02*
X147688095Y-71700057D01*
X148307143Y-71604819D02*
X148497619Y-71604819D01*
X148497619Y-71604819D02*
X148592857Y-71652438D01*
X148592857Y-71652438D02*
X148688095Y-71747676D01*
X148688095Y-71747676D02*
X148735714Y-71938152D01*
X148735714Y-71938152D02*
X148735714Y-72271485D01*
X148735714Y-72271485D02*
X148688095Y-72461961D01*
X148688095Y-72461961D02*
X148592857Y-72557200D01*
X148592857Y-72557200D02*
X148497619Y-72604819D01*
X148497619Y-72604819D02*
X148307143Y-72604819D01*
X148307143Y-72604819D02*
X148211905Y-72557200D01*
X148211905Y-72557200D02*
X148116667Y-72461961D01*
X148116667Y-72461961D02*
X148069048Y-72271485D01*
X148069048Y-72271485D02*
X148069048Y-71938152D01*
X148069048Y-71938152D02*
X148116667Y-71747676D01*
X148116667Y-71747676D02*
X148211905Y-71652438D01*
X148211905Y-71652438D02*
X148307143Y-71604819D01*
X149164286Y-72604819D02*
X149164286Y-71604819D01*
X149164286Y-71604819D02*
X149497619Y-72319104D01*
X149497619Y-72319104D02*
X149830952Y-71604819D01*
X149830952Y-71604819D02*
X149830952Y-72604819D01*
X150497619Y-71604819D02*
X150592857Y-71604819D01*
X150592857Y-71604819D02*
X150688095Y-71652438D01*
X150688095Y-71652438D02*
X150735714Y-71700057D01*
X150735714Y-71700057D02*
X150783333Y-71795295D01*
X150783333Y-71795295D02*
X150830952Y-71985771D01*
X150830952Y-71985771D02*
X150830952Y-72223866D01*
X150830952Y-72223866D02*
X150783333Y-72414342D01*
X150783333Y-72414342D02*
X150735714Y-72509580D01*
X150735714Y-72509580D02*
X150688095Y-72557200D01*
X150688095Y-72557200D02*
X150592857Y-72604819D01*
X150592857Y-72604819D02*
X150497619Y-72604819D01*
X150497619Y-72604819D02*
X150402381Y-72557200D01*
X150402381Y-72557200D02*
X150354762Y-72509580D01*
X150354762Y-72509580D02*
X150307143Y-72414342D01*
X150307143Y-72414342D02*
X150259524Y-72223866D01*
X150259524Y-72223866D02*
X150259524Y-71985771D01*
X150259524Y-71985771D02*
X150307143Y-71795295D01*
X150307143Y-71795295D02*
X150354762Y-71700057D01*
X150354762Y-71700057D02*
X150402381Y-71652438D01*
X150402381Y-71652438D02*
X150497619Y-71604819D01*
X124433333Y-83942319D02*
X124100000Y-83466128D01*
X123861905Y-83942319D02*
X123861905Y-82942319D01*
X123861905Y-82942319D02*
X124242857Y-82942319D01*
X124242857Y-82942319D02*
X124338095Y-82989938D01*
X124338095Y-82989938D02*
X124385714Y-83037557D01*
X124385714Y-83037557D02*
X124433333Y-83132795D01*
X124433333Y-83132795D02*
X124433333Y-83275652D01*
X124433333Y-83275652D02*
X124385714Y-83370890D01*
X124385714Y-83370890D02*
X124338095Y-83418509D01*
X124338095Y-83418509D02*
X124242857Y-83466128D01*
X124242857Y-83466128D02*
X123861905Y-83466128D01*
X125290476Y-82942319D02*
X125100000Y-82942319D01*
X125100000Y-82942319D02*
X125004762Y-82989938D01*
X125004762Y-82989938D02*
X124957143Y-83037557D01*
X124957143Y-83037557D02*
X124861905Y-83180414D01*
X124861905Y-83180414D02*
X124814286Y-83370890D01*
X124814286Y-83370890D02*
X124814286Y-83751842D01*
X124814286Y-83751842D02*
X124861905Y-83847080D01*
X124861905Y-83847080D02*
X124909524Y-83894700D01*
X124909524Y-83894700D02*
X125004762Y-83942319D01*
X125004762Y-83942319D02*
X125195238Y-83942319D01*
X125195238Y-83942319D02*
X125290476Y-83894700D01*
X125290476Y-83894700D02*
X125338095Y-83847080D01*
X125338095Y-83847080D02*
X125385714Y-83751842D01*
X125385714Y-83751842D02*
X125385714Y-83513747D01*
X125385714Y-83513747D02*
X125338095Y-83418509D01*
X125338095Y-83418509D02*
X125290476Y-83370890D01*
X125290476Y-83370890D02*
X125195238Y-83323271D01*
X125195238Y-83323271D02*
X125004762Y-83323271D01*
X125004762Y-83323271D02*
X124909524Y-83370890D01*
X124909524Y-83370890D02*
X124861905Y-83418509D01*
X124861905Y-83418509D02*
X124814286Y-83513747D01*
X125233333Y-76342319D02*
X124900000Y-75866128D01*
X124661905Y-76342319D02*
X124661905Y-75342319D01*
X124661905Y-75342319D02*
X125042857Y-75342319D01*
X125042857Y-75342319D02*
X125138095Y-75389938D01*
X125138095Y-75389938D02*
X125185714Y-75437557D01*
X125185714Y-75437557D02*
X125233333Y-75532795D01*
X125233333Y-75532795D02*
X125233333Y-75675652D01*
X125233333Y-75675652D02*
X125185714Y-75770890D01*
X125185714Y-75770890D02*
X125138095Y-75818509D01*
X125138095Y-75818509D02*
X125042857Y-75866128D01*
X125042857Y-75866128D02*
X124661905Y-75866128D01*
X125566667Y-75342319D02*
X126185714Y-75342319D01*
X126185714Y-75342319D02*
X125852381Y-75723271D01*
X125852381Y-75723271D02*
X125995238Y-75723271D01*
X125995238Y-75723271D02*
X126090476Y-75770890D01*
X126090476Y-75770890D02*
X126138095Y-75818509D01*
X126138095Y-75818509D02*
X126185714Y-75913747D01*
X126185714Y-75913747D02*
X126185714Y-76151842D01*
X126185714Y-76151842D02*
X126138095Y-76247080D01*
X126138095Y-76247080D02*
X126090476Y-76294700D01*
X126090476Y-76294700D02*
X125995238Y-76342319D01*
X125995238Y-76342319D02*
X125709524Y-76342319D01*
X125709524Y-76342319D02*
X125614286Y-76294700D01*
X125614286Y-76294700D02*
X125566667Y-76247080D01*
X127033333Y-83942319D02*
X126700000Y-83466128D01*
X126461905Y-83942319D02*
X126461905Y-82942319D01*
X126461905Y-82942319D02*
X126842857Y-82942319D01*
X126842857Y-82942319D02*
X126938095Y-82989938D01*
X126938095Y-82989938D02*
X126985714Y-83037557D01*
X126985714Y-83037557D02*
X127033333Y-83132795D01*
X127033333Y-83132795D02*
X127033333Y-83275652D01*
X127033333Y-83275652D02*
X126985714Y-83370890D01*
X126985714Y-83370890D02*
X126938095Y-83418509D01*
X126938095Y-83418509D02*
X126842857Y-83466128D01*
X126842857Y-83466128D02*
X126461905Y-83466128D01*
X127366667Y-82942319D02*
X128033333Y-82942319D01*
X128033333Y-82942319D02*
X127604762Y-83942319D01*
X165657142Y-96059580D02*
X165609523Y-96107200D01*
X165609523Y-96107200D02*
X165466666Y-96154819D01*
X165466666Y-96154819D02*
X165371428Y-96154819D01*
X165371428Y-96154819D02*
X165228571Y-96107200D01*
X165228571Y-96107200D02*
X165133333Y-96011961D01*
X165133333Y-96011961D02*
X165085714Y-95916723D01*
X165085714Y-95916723D02*
X165038095Y-95726247D01*
X165038095Y-95726247D02*
X165038095Y-95583390D01*
X165038095Y-95583390D02*
X165085714Y-95392914D01*
X165085714Y-95392914D02*
X165133333Y-95297676D01*
X165133333Y-95297676D02*
X165228571Y-95202438D01*
X165228571Y-95202438D02*
X165371428Y-95154819D01*
X165371428Y-95154819D02*
X165466666Y-95154819D01*
X165466666Y-95154819D02*
X165609523Y-95202438D01*
X165609523Y-95202438D02*
X165657142Y-95250057D01*
X166085714Y-95154819D02*
X166085714Y-95964342D01*
X166085714Y-95964342D02*
X166133333Y-96059580D01*
X166133333Y-96059580D02*
X166180952Y-96107200D01*
X166180952Y-96107200D02*
X166276190Y-96154819D01*
X166276190Y-96154819D02*
X166466666Y-96154819D01*
X166466666Y-96154819D02*
X166561904Y-96107200D01*
X166561904Y-96107200D02*
X166609523Y-96059580D01*
X166609523Y-96059580D02*
X166657142Y-95964342D01*
X166657142Y-95964342D02*
X166657142Y-95154819D01*
X167133333Y-95631009D02*
X167466666Y-95631009D01*
X167609523Y-96154819D02*
X167133333Y-96154819D01*
X167133333Y-96154819D02*
X167133333Y-95154819D01*
X167133333Y-95154819D02*
X167609523Y-95154819D01*
X168561904Y-96154819D02*
X167990476Y-96154819D01*
X168276190Y-96154819D02*
X168276190Y-95154819D01*
X168276190Y-95154819D02*
X168180952Y-95297676D01*
X168180952Y-95297676D02*
X168085714Y-95392914D01*
X168085714Y-95392914D02*
X167990476Y-95440533D01*
X119157142Y-97142319D02*
X118823809Y-96666128D01*
X118585714Y-97142319D02*
X118585714Y-96142319D01*
X118585714Y-96142319D02*
X118966666Y-96142319D01*
X118966666Y-96142319D02*
X119061904Y-96189938D01*
X119061904Y-96189938D02*
X119109523Y-96237557D01*
X119109523Y-96237557D02*
X119157142Y-96332795D01*
X119157142Y-96332795D02*
X119157142Y-96475652D01*
X119157142Y-96475652D02*
X119109523Y-96570890D01*
X119109523Y-96570890D02*
X119061904Y-96618509D01*
X119061904Y-96618509D02*
X118966666Y-96666128D01*
X118966666Y-96666128D02*
X118585714Y-96666128D01*
X120109523Y-97142319D02*
X119538095Y-97142319D01*
X119823809Y-97142319D02*
X119823809Y-96142319D01*
X119823809Y-96142319D02*
X119728571Y-96285176D01*
X119728571Y-96285176D02*
X119633333Y-96380414D01*
X119633333Y-96380414D02*
X119538095Y-96428033D01*
X120966666Y-96142319D02*
X120776190Y-96142319D01*
X120776190Y-96142319D02*
X120680952Y-96189938D01*
X120680952Y-96189938D02*
X120633333Y-96237557D01*
X120633333Y-96237557D02*
X120538095Y-96380414D01*
X120538095Y-96380414D02*
X120490476Y-96570890D01*
X120490476Y-96570890D02*
X120490476Y-96951842D01*
X120490476Y-96951842D02*
X120538095Y-97047080D01*
X120538095Y-97047080D02*
X120585714Y-97094700D01*
X120585714Y-97094700D02*
X120680952Y-97142319D01*
X120680952Y-97142319D02*
X120871428Y-97142319D01*
X120871428Y-97142319D02*
X120966666Y-97094700D01*
X120966666Y-97094700D02*
X121014285Y-97047080D01*
X121014285Y-97047080D02*
X121061904Y-96951842D01*
X121061904Y-96951842D02*
X121061904Y-96713747D01*
X121061904Y-96713747D02*
X121014285Y-96618509D01*
X121014285Y-96618509D02*
X120966666Y-96570890D01*
X120966666Y-96570890D02*
X120871428Y-96523271D01*
X120871428Y-96523271D02*
X120680952Y-96523271D01*
X120680952Y-96523271D02*
X120585714Y-96570890D01*
X120585714Y-96570890D02*
X120538095Y-96618509D01*
X120538095Y-96618509D02*
X120490476Y-96713747D01*
X130145833Y-76342319D02*
X129812500Y-75866128D01*
X129574405Y-76342319D02*
X129574405Y-75342319D01*
X129574405Y-75342319D02*
X129955357Y-75342319D01*
X129955357Y-75342319D02*
X130050595Y-75389938D01*
X130050595Y-75389938D02*
X130098214Y-75437557D01*
X130098214Y-75437557D02*
X130145833Y-75532795D01*
X130145833Y-75532795D02*
X130145833Y-75675652D01*
X130145833Y-75675652D02*
X130098214Y-75770890D01*
X130098214Y-75770890D02*
X130050595Y-75818509D01*
X130050595Y-75818509D02*
X129955357Y-75866128D01*
X129955357Y-75866128D02*
X129574405Y-75866128D01*
X130526786Y-75437557D02*
X130574405Y-75389938D01*
X130574405Y-75389938D02*
X130669643Y-75342319D01*
X130669643Y-75342319D02*
X130907738Y-75342319D01*
X130907738Y-75342319D02*
X131002976Y-75389938D01*
X131002976Y-75389938D02*
X131050595Y-75437557D01*
X131050595Y-75437557D02*
X131098214Y-75532795D01*
X131098214Y-75532795D02*
X131098214Y-75628033D01*
X131098214Y-75628033D02*
X131050595Y-75770890D01*
X131050595Y-75770890D02*
X130479167Y-76342319D01*
X130479167Y-76342319D02*
X131098214Y-76342319D01*
X131833333Y-90217319D02*
X131500000Y-89741128D01*
X131261905Y-90217319D02*
X131261905Y-89217319D01*
X131261905Y-89217319D02*
X131642857Y-89217319D01*
X131642857Y-89217319D02*
X131738095Y-89264938D01*
X131738095Y-89264938D02*
X131785714Y-89312557D01*
X131785714Y-89312557D02*
X131833333Y-89407795D01*
X131833333Y-89407795D02*
X131833333Y-89550652D01*
X131833333Y-89550652D02*
X131785714Y-89645890D01*
X131785714Y-89645890D02*
X131738095Y-89693509D01*
X131738095Y-89693509D02*
X131642857Y-89741128D01*
X131642857Y-89741128D02*
X131261905Y-89741128D01*
X132404762Y-89645890D02*
X132309524Y-89598271D01*
X132309524Y-89598271D02*
X132261905Y-89550652D01*
X132261905Y-89550652D02*
X132214286Y-89455414D01*
X132214286Y-89455414D02*
X132214286Y-89407795D01*
X132214286Y-89407795D02*
X132261905Y-89312557D01*
X132261905Y-89312557D02*
X132309524Y-89264938D01*
X132309524Y-89264938D02*
X132404762Y-89217319D01*
X132404762Y-89217319D02*
X132595238Y-89217319D01*
X132595238Y-89217319D02*
X132690476Y-89264938D01*
X132690476Y-89264938D02*
X132738095Y-89312557D01*
X132738095Y-89312557D02*
X132785714Y-89407795D01*
X132785714Y-89407795D02*
X132785714Y-89455414D01*
X132785714Y-89455414D02*
X132738095Y-89550652D01*
X132738095Y-89550652D02*
X132690476Y-89598271D01*
X132690476Y-89598271D02*
X132595238Y-89645890D01*
X132595238Y-89645890D02*
X132404762Y-89645890D01*
X132404762Y-89645890D02*
X132309524Y-89693509D01*
X132309524Y-89693509D02*
X132261905Y-89741128D01*
X132261905Y-89741128D02*
X132214286Y-89836366D01*
X132214286Y-89836366D02*
X132214286Y-90026842D01*
X132214286Y-90026842D02*
X132261905Y-90122080D01*
X132261905Y-90122080D02*
X132309524Y-90169700D01*
X132309524Y-90169700D02*
X132404762Y-90217319D01*
X132404762Y-90217319D02*
X132595238Y-90217319D01*
X132595238Y-90217319D02*
X132690476Y-90169700D01*
X132690476Y-90169700D02*
X132738095Y-90122080D01*
X132738095Y-90122080D02*
X132785714Y-90026842D01*
X132785714Y-90026842D02*
X132785714Y-89836366D01*
X132785714Y-89836366D02*
X132738095Y-89741128D01*
X132738095Y-89741128D02*
X132690476Y-89693509D01*
X132690476Y-89693509D02*
X132595238Y-89645890D01*
X125192261Y-90037557D02*
X125097023Y-89989938D01*
X125097023Y-89989938D02*
X125001785Y-89894700D01*
X125001785Y-89894700D02*
X124858928Y-89751842D01*
X124858928Y-89751842D02*
X124763690Y-89704223D01*
X124763690Y-89704223D02*
X124668452Y-89704223D01*
X124716071Y-89942319D02*
X124620833Y-89894700D01*
X124620833Y-89894700D02*
X124525595Y-89799461D01*
X124525595Y-89799461D02*
X124477976Y-89608985D01*
X124477976Y-89608985D02*
X124477976Y-89275652D01*
X124477976Y-89275652D02*
X124525595Y-89085176D01*
X124525595Y-89085176D02*
X124620833Y-88989938D01*
X124620833Y-88989938D02*
X124716071Y-88942319D01*
X124716071Y-88942319D02*
X124906547Y-88942319D01*
X124906547Y-88942319D02*
X125001785Y-88989938D01*
X125001785Y-88989938D02*
X125097023Y-89085176D01*
X125097023Y-89085176D02*
X125144642Y-89275652D01*
X125144642Y-89275652D02*
X125144642Y-89608985D01*
X125144642Y-89608985D02*
X125097023Y-89799461D01*
X125097023Y-89799461D02*
X125001785Y-89894700D01*
X125001785Y-89894700D02*
X124906547Y-89942319D01*
X124906547Y-89942319D02*
X124716071Y-89942319D01*
X126001785Y-89275652D02*
X126001785Y-89942319D01*
X125763690Y-88894700D02*
X125525595Y-89608985D01*
X125525595Y-89608985D02*
X126144642Y-89608985D01*
X119044642Y-102654819D02*
X118711309Y-102178628D01*
X118473214Y-102654819D02*
X118473214Y-101654819D01*
X118473214Y-101654819D02*
X118854166Y-101654819D01*
X118854166Y-101654819D02*
X118949404Y-101702438D01*
X118949404Y-101702438D02*
X118997023Y-101750057D01*
X118997023Y-101750057D02*
X119044642Y-101845295D01*
X119044642Y-101845295D02*
X119044642Y-101988152D01*
X119044642Y-101988152D02*
X118997023Y-102083390D01*
X118997023Y-102083390D02*
X118949404Y-102131009D01*
X118949404Y-102131009D02*
X118854166Y-102178628D01*
X118854166Y-102178628D02*
X118473214Y-102178628D01*
X119997023Y-102654819D02*
X119425595Y-102654819D01*
X119711309Y-102654819D02*
X119711309Y-101654819D01*
X119711309Y-101654819D02*
X119616071Y-101797676D01*
X119616071Y-101797676D02*
X119520833Y-101892914D01*
X119520833Y-101892914D02*
X119425595Y-101940533D01*
X120330357Y-101654819D02*
X120949404Y-101654819D01*
X120949404Y-101654819D02*
X120616071Y-102035771D01*
X120616071Y-102035771D02*
X120758928Y-102035771D01*
X120758928Y-102035771D02*
X120854166Y-102083390D01*
X120854166Y-102083390D02*
X120901785Y-102131009D01*
X120901785Y-102131009D02*
X120949404Y-102226247D01*
X120949404Y-102226247D02*
X120949404Y-102464342D01*
X120949404Y-102464342D02*
X120901785Y-102559580D01*
X120901785Y-102559580D02*
X120854166Y-102607200D01*
X120854166Y-102607200D02*
X120758928Y-102654819D01*
X120758928Y-102654819D02*
X120473214Y-102654819D01*
X120473214Y-102654819D02*
X120377976Y-102607200D01*
X120377976Y-102607200D02*
X120330357Y-102559580D01*
X117159580Y-81466666D02*
X117207200Y-81514285D01*
X117207200Y-81514285D02*
X117254819Y-81657142D01*
X117254819Y-81657142D02*
X117254819Y-81752380D01*
X117254819Y-81752380D02*
X117207200Y-81895237D01*
X117207200Y-81895237D02*
X117111961Y-81990475D01*
X117111961Y-81990475D02*
X117016723Y-82038094D01*
X117016723Y-82038094D02*
X116826247Y-82085713D01*
X116826247Y-82085713D02*
X116683390Y-82085713D01*
X116683390Y-82085713D02*
X116492914Y-82038094D01*
X116492914Y-82038094D02*
X116397676Y-81990475D01*
X116397676Y-81990475D02*
X116302438Y-81895237D01*
X116302438Y-81895237D02*
X116254819Y-81752380D01*
X116254819Y-81752380D02*
X116254819Y-81657142D01*
X116254819Y-81657142D02*
X116302438Y-81514285D01*
X116302438Y-81514285D02*
X116350057Y-81466666D01*
X117254819Y-81038094D02*
X116254819Y-81038094D01*
X116731009Y-81038094D02*
X116731009Y-80466666D01*
X117254819Y-80466666D02*
X116254819Y-80466666D01*
X116731009Y-79990475D02*
X116731009Y-79657142D01*
X117254819Y-79514285D02*
X117254819Y-79990475D01*
X117254819Y-79990475D02*
X116254819Y-79990475D01*
X116254819Y-79990475D02*
X116254819Y-79514285D01*
X117159580Y-78514285D02*
X117207200Y-78561904D01*
X117207200Y-78561904D02*
X117254819Y-78704761D01*
X117254819Y-78704761D02*
X117254819Y-78799999D01*
X117254819Y-78799999D02*
X117207200Y-78942856D01*
X117207200Y-78942856D02*
X117111961Y-79038094D01*
X117111961Y-79038094D02*
X117016723Y-79085713D01*
X117016723Y-79085713D02*
X116826247Y-79133332D01*
X116826247Y-79133332D02*
X116683390Y-79133332D01*
X116683390Y-79133332D02*
X116492914Y-79085713D01*
X116492914Y-79085713D02*
X116397676Y-79038094D01*
X116397676Y-79038094D02*
X116302438Y-78942856D01*
X116302438Y-78942856D02*
X116254819Y-78799999D01*
X116254819Y-78799999D02*
X116254819Y-78704761D01*
X116254819Y-78704761D02*
X116302438Y-78561904D01*
X116302438Y-78561904D02*
X116350057Y-78514285D01*
X117254819Y-78085713D02*
X116254819Y-78085713D01*
X117254819Y-77514285D02*
X116683390Y-77942856D01*
X116254819Y-77514285D02*
X116826247Y-78085713D01*
X128957142Y-102854819D02*
X128623809Y-102378628D01*
X128385714Y-102854819D02*
X128385714Y-101854819D01*
X128385714Y-101854819D02*
X128766666Y-101854819D01*
X128766666Y-101854819D02*
X128861904Y-101902438D01*
X128861904Y-101902438D02*
X128909523Y-101950057D01*
X128909523Y-101950057D02*
X128957142Y-102045295D01*
X128957142Y-102045295D02*
X128957142Y-102188152D01*
X128957142Y-102188152D02*
X128909523Y-102283390D01*
X128909523Y-102283390D02*
X128861904Y-102331009D01*
X128861904Y-102331009D02*
X128766666Y-102378628D01*
X128766666Y-102378628D02*
X128385714Y-102378628D01*
X129909523Y-102854819D02*
X129338095Y-102854819D01*
X129623809Y-102854819D02*
X129623809Y-101854819D01*
X129623809Y-101854819D02*
X129528571Y-101997676D01*
X129528571Y-101997676D02*
X129433333Y-102092914D01*
X129433333Y-102092914D02*
X129338095Y-102140533D01*
X130814285Y-101854819D02*
X130338095Y-101854819D01*
X130338095Y-101854819D02*
X130290476Y-102331009D01*
X130290476Y-102331009D02*
X130338095Y-102283390D01*
X130338095Y-102283390D02*
X130433333Y-102235771D01*
X130433333Y-102235771D02*
X130671428Y-102235771D01*
X130671428Y-102235771D02*
X130766666Y-102283390D01*
X130766666Y-102283390D02*
X130814285Y-102331009D01*
X130814285Y-102331009D02*
X130861904Y-102426247D01*
X130861904Y-102426247D02*
X130861904Y-102664342D01*
X130861904Y-102664342D02*
X130814285Y-102759580D01*
X130814285Y-102759580D02*
X130766666Y-102807200D01*
X130766666Y-102807200D02*
X130671428Y-102854819D01*
X130671428Y-102854819D02*
X130433333Y-102854819D01*
X130433333Y-102854819D02*
X130338095Y-102807200D01*
X130338095Y-102807200D02*
X130290476Y-102759580D01*
X140338095Y-92054819D02*
X140909523Y-92054819D01*
X140623809Y-93054819D02*
X140623809Y-92054819D01*
X141242857Y-93054819D02*
X141242857Y-92054819D01*
X141242857Y-92054819D02*
X141623809Y-92054819D01*
X141623809Y-92054819D02*
X141719047Y-92102438D01*
X141719047Y-92102438D02*
X141766666Y-92150057D01*
X141766666Y-92150057D02*
X141814285Y-92245295D01*
X141814285Y-92245295D02*
X141814285Y-92388152D01*
X141814285Y-92388152D02*
X141766666Y-92483390D01*
X141766666Y-92483390D02*
X141719047Y-92531009D01*
X141719047Y-92531009D02*
X141623809Y-92578628D01*
X141623809Y-92578628D02*
X141242857Y-92578628D01*
X142195238Y-92150057D02*
X142242857Y-92102438D01*
X142242857Y-92102438D02*
X142338095Y-92054819D01*
X142338095Y-92054819D02*
X142576190Y-92054819D01*
X142576190Y-92054819D02*
X142671428Y-92102438D01*
X142671428Y-92102438D02*
X142719047Y-92150057D01*
X142719047Y-92150057D02*
X142766666Y-92245295D01*
X142766666Y-92245295D02*
X142766666Y-92340533D01*
X142766666Y-92340533D02*
X142719047Y-92483390D01*
X142719047Y-92483390D02*
X142147619Y-93054819D01*
X142147619Y-93054819D02*
X142766666Y-93054819D01*
X133504761Y-102950057D02*
X133409523Y-102902438D01*
X133409523Y-102902438D02*
X133314285Y-102807200D01*
X133314285Y-102807200D02*
X133171428Y-102664342D01*
X133171428Y-102664342D02*
X133076190Y-102616723D01*
X133076190Y-102616723D02*
X132980952Y-102616723D01*
X133028571Y-102854819D02*
X132933333Y-102807200D01*
X132933333Y-102807200D02*
X132838095Y-102711961D01*
X132838095Y-102711961D02*
X132790476Y-102521485D01*
X132790476Y-102521485D02*
X132790476Y-102188152D01*
X132790476Y-102188152D02*
X132838095Y-101997676D01*
X132838095Y-101997676D02*
X132933333Y-101902438D01*
X132933333Y-101902438D02*
X133028571Y-101854819D01*
X133028571Y-101854819D02*
X133219047Y-101854819D01*
X133219047Y-101854819D02*
X133314285Y-101902438D01*
X133314285Y-101902438D02*
X133409523Y-101997676D01*
X133409523Y-101997676D02*
X133457142Y-102188152D01*
X133457142Y-102188152D02*
X133457142Y-102521485D01*
X133457142Y-102521485D02*
X133409523Y-102711961D01*
X133409523Y-102711961D02*
X133314285Y-102807200D01*
X133314285Y-102807200D02*
X133219047Y-102854819D01*
X133219047Y-102854819D02*
X133028571Y-102854819D01*
X134361904Y-101854819D02*
X133885714Y-101854819D01*
X133885714Y-101854819D02*
X133838095Y-102331009D01*
X133838095Y-102331009D02*
X133885714Y-102283390D01*
X133885714Y-102283390D02*
X133980952Y-102235771D01*
X133980952Y-102235771D02*
X134219047Y-102235771D01*
X134219047Y-102235771D02*
X134314285Y-102283390D01*
X134314285Y-102283390D02*
X134361904Y-102331009D01*
X134361904Y-102331009D02*
X134409523Y-102426247D01*
X134409523Y-102426247D02*
X134409523Y-102664342D01*
X134409523Y-102664342D02*
X134361904Y-102759580D01*
X134361904Y-102759580D02*
X134314285Y-102807200D01*
X134314285Y-102807200D02*
X134219047Y-102854819D01*
X134219047Y-102854819D02*
X133980952Y-102854819D01*
X133980952Y-102854819D02*
X133885714Y-102807200D01*
X133885714Y-102807200D02*
X133838095Y-102759580D01*
X133242261Y-96150057D02*
X133147023Y-96102438D01*
X133147023Y-96102438D02*
X133051785Y-96007200D01*
X133051785Y-96007200D02*
X132908928Y-95864342D01*
X132908928Y-95864342D02*
X132813690Y-95816723D01*
X132813690Y-95816723D02*
X132718452Y-95816723D01*
X132766071Y-96054819D02*
X132670833Y-96007200D01*
X132670833Y-96007200D02*
X132575595Y-95911961D01*
X132575595Y-95911961D02*
X132527976Y-95721485D01*
X132527976Y-95721485D02*
X132527976Y-95388152D01*
X132527976Y-95388152D02*
X132575595Y-95197676D01*
X132575595Y-95197676D02*
X132670833Y-95102438D01*
X132670833Y-95102438D02*
X132766071Y-95054819D01*
X132766071Y-95054819D02*
X132956547Y-95054819D01*
X132956547Y-95054819D02*
X133051785Y-95102438D01*
X133051785Y-95102438D02*
X133147023Y-95197676D01*
X133147023Y-95197676D02*
X133194642Y-95388152D01*
X133194642Y-95388152D02*
X133194642Y-95721485D01*
X133194642Y-95721485D02*
X133147023Y-95911961D01*
X133147023Y-95911961D02*
X133051785Y-96007200D01*
X133051785Y-96007200D02*
X132956547Y-96054819D01*
X132956547Y-96054819D02*
X132766071Y-96054819D01*
X134051785Y-95054819D02*
X133861309Y-95054819D01*
X133861309Y-95054819D02*
X133766071Y-95102438D01*
X133766071Y-95102438D02*
X133718452Y-95150057D01*
X133718452Y-95150057D02*
X133623214Y-95292914D01*
X133623214Y-95292914D02*
X133575595Y-95483390D01*
X133575595Y-95483390D02*
X133575595Y-95864342D01*
X133575595Y-95864342D02*
X133623214Y-95959580D01*
X133623214Y-95959580D02*
X133670833Y-96007200D01*
X133670833Y-96007200D02*
X133766071Y-96054819D01*
X133766071Y-96054819D02*
X133956547Y-96054819D01*
X133956547Y-96054819D02*
X134051785Y-96007200D01*
X134051785Y-96007200D02*
X134099404Y-95959580D01*
X134099404Y-95959580D02*
X134147023Y-95864342D01*
X134147023Y-95864342D02*
X134147023Y-95626247D01*
X134147023Y-95626247D02*
X134099404Y-95531009D01*
X134099404Y-95531009D02*
X134051785Y-95483390D01*
X134051785Y-95483390D02*
X133956547Y-95435771D01*
X133956547Y-95435771D02*
X133766071Y-95435771D01*
X133766071Y-95435771D02*
X133670833Y-95483390D01*
X133670833Y-95483390D02*
X133623214Y-95531009D01*
X133623214Y-95531009D02*
X133575595Y-95626247D01*
X134483333Y-90054819D02*
X134150000Y-89578628D01*
X133911905Y-90054819D02*
X133911905Y-89054819D01*
X133911905Y-89054819D02*
X134292857Y-89054819D01*
X134292857Y-89054819D02*
X134388095Y-89102438D01*
X134388095Y-89102438D02*
X134435714Y-89150057D01*
X134435714Y-89150057D02*
X134483333Y-89245295D01*
X134483333Y-89245295D02*
X134483333Y-89388152D01*
X134483333Y-89388152D02*
X134435714Y-89483390D01*
X134435714Y-89483390D02*
X134388095Y-89531009D01*
X134388095Y-89531009D02*
X134292857Y-89578628D01*
X134292857Y-89578628D02*
X133911905Y-89578628D01*
X134959524Y-90054819D02*
X135150000Y-90054819D01*
X135150000Y-90054819D02*
X135245238Y-90007200D01*
X135245238Y-90007200D02*
X135292857Y-89959580D01*
X135292857Y-89959580D02*
X135388095Y-89816723D01*
X135388095Y-89816723D02*
X135435714Y-89626247D01*
X135435714Y-89626247D02*
X135435714Y-89245295D01*
X135435714Y-89245295D02*
X135388095Y-89150057D01*
X135388095Y-89150057D02*
X135340476Y-89102438D01*
X135340476Y-89102438D02*
X135245238Y-89054819D01*
X135245238Y-89054819D02*
X135054762Y-89054819D01*
X135054762Y-89054819D02*
X134959524Y-89102438D01*
X134959524Y-89102438D02*
X134911905Y-89150057D01*
X134911905Y-89150057D02*
X134864286Y-89245295D01*
X134864286Y-89245295D02*
X134864286Y-89483390D01*
X134864286Y-89483390D02*
X134911905Y-89578628D01*
X134911905Y-89578628D02*
X134959524Y-89626247D01*
X134959524Y-89626247D02*
X135054762Y-89673866D01*
X135054762Y-89673866D02*
X135245238Y-89673866D01*
X135245238Y-89673866D02*
X135340476Y-89626247D01*
X135340476Y-89626247D02*
X135388095Y-89578628D01*
X135388095Y-89578628D02*
X135435714Y-89483390D01*
X120244642Y-90342319D02*
X119911309Y-89866128D01*
X119673214Y-90342319D02*
X119673214Y-89342319D01*
X119673214Y-89342319D02*
X120054166Y-89342319D01*
X120054166Y-89342319D02*
X120149404Y-89389938D01*
X120149404Y-89389938D02*
X120197023Y-89437557D01*
X120197023Y-89437557D02*
X120244642Y-89532795D01*
X120244642Y-89532795D02*
X120244642Y-89675652D01*
X120244642Y-89675652D02*
X120197023Y-89770890D01*
X120197023Y-89770890D02*
X120149404Y-89818509D01*
X120149404Y-89818509D02*
X120054166Y-89866128D01*
X120054166Y-89866128D02*
X119673214Y-89866128D01*
X121197023Y-90342319D02*
X120625595Y-90342319D01*
X120911309Y-90342319D02*
X120911309Y-89342319D01*
X120911309Y-89342319D02*
X120816071Y-89485176D01*
X120816071Y-89485176D02*
X120720833Y-89580414D01*
X120720833Y-89580414D02*
X120625595Y-89628033D01*
X122149404Y-90342319D02*
X121577976Y-90342319D01*
X121863690Y-90342319D02*
X121863690Y-89342319D01*
X121863690Y-89342319D02*
X121768452Y-89485176D01*
X121768452Y-89485176D02*
X121673214Y-89580414D01*
X121673214Y-89580414D02*
X121577976Y-89628033D01*
X165538095Y-72509580D02*
X165490476Y-72557200D01*
X165490476Y-72557200D02*
X165347619Y-72604819D01*
X165347619Y-72604819D02*
X165252381Y-72604819D01*
X165252381Y-72604819D02*
X165109524Y-72557200D01*
X165109524Y-72557200D02*
X165014286Y-72461961D01*
X165014286Y-72461961D02*
X164966667Y-72366723D01*
X164966667Y-72366723D02*
X164919048Y-72176247D01*
X164919048Y-72176247D02*
X164919048Y-72033390D01*
X164919048Y-72033390D02*
X164966667Y-71842914D01*
X164966667Y-71842914D02*
X165014286Y-71747676D01*
X165014286Y-71747676D02*
X165109524Y-71652438D01*
X165109524Y-71652438D02*
X165252381Y-71604819D01*
X165252381Y-71604819D02*
X165347619Y-71604819D01*
X165347619Y-71604819D02*
X165490476Y-71652438D01*
X165490476Y-71652438D02*
X165538095Y-71700057D01*
X166157143Y-71604819D02*
X166347619Y-71604819D01*
X166347619Y-71604819D02*
X166442857Y-71652438D01*
X166442857Y-71652438D02*
X166538095Y-71747676D01*
X166538095Y-71747676D02*
X166585714Y-71938152D01*
X166585714Y-71938152D02*
X166585714Y-72271485D01*
X166585714Y-72271485D02*
X166538095Y-72461961D01*
X166538095Y-72461961D02*
X166442857Y-72557200D01*
X166442857Y-72557200D02*
X166347619Y-72604819D01*
X166347619Y-72604819D02*
X166157143Y-72604819D01*
X166157143Y-72604819D02*
X166061905Y-72557200D01*
X166061905Y-72557200D02*
X165966667Y-72461961D01*
X165966667Y-72461961D02*
X165919048Y-72271485D01*
X165919048Y-72271485D02*
X165919048Y-71938152D01*
X165919048Y-71938152D02*
X165966667Y-71747676D01*
X165966667Y-71747676D02*
X166061905Y-71652438D01*
X166061905Y-71652438D02*
X166157143Y-71604819D01*
X167014286Y-72604819D02*
X167014286Y-71604819D01*
X167014286Y-71604819D02*
X167347619Y-72319104D01*
X167347619Y-72319104D02*
X167680952Y-71604819D01*
X167680952Y-71604819D02*
X167680952Y-72604819D01*
X168680952Y-72604819D02*
X168109524Y-72604819D01*
X168395238Y-72604819D02*
X168395238Y-71604819D01*
X168395238Y-71604819D02*
X168300000Y-71747676D01*
X168300000Y-71747676D02*
X168204762Y-71842914D01*
X168204762Y-71842914D02*
X168109524Y-71890533D01*
X118233333Y-72942319D02*
X117900000Y-72466128D01*
X117661905Y-72942319D02*
X117661905Y-71942319D01*
X117661905Y-71942319D02*
X118042857Y-71942319D01*
X118042857Y-71942319D02*
X118138095Y-71989938D01*
X118138095Y-71989938D02*
X118185714Y-72037557D01*
X118185714Y-72037557D02*
X118233333Y-72132795D01*
X118233333Y-72132795D02*
X118233333Y-72275652D01*
X118233333Y-72275652D02*
X118185714Y-72370890D01*
X118185714Y-72370890D02*
X118138095Y-72418509D01*
X118138095Y-72418509D02*
X118042857Y-72466128D01*
X118042857Y-72466128D02*
X117661905Y-72466128D01*
X119185714Y-72942319D02*
X118614286Y-72942319D01*
X118900000Y-72942319D02*
X118900000Y-71942319D01*
X118900000Y-71942319D02*
X118804762Y-72085176D01*
X118804762Y-72085176D02*
X118709524Y-72180414D01*
X118709524Y-72180414D02*
X118614286Y-72228033D01*
X120633333Y-72647080D02*
X120585714Y-72694700D01*
X120585714Y-72694700D02*
X120442857Y-72742319D01*
X120442857Y-72742319D02*
X120347619Y-72742319D01*
X120347619Y-72742319D02*
X120204762Y-72694700D01*
X120204762Y-72694700D02*
X120109524Y-72599461D01*
X120109524Y-72599461D02*
X120061905Y-72504223D01*
X120061905Y-72504223D02*
X120014286Y-72313747D01*
X120014286Y-72313747D02*
X120014286Y-72170890D01*
X120014286Y-72170890D02*
X120061905Y-71980414D01*
X120061905Y-71980414D02*
X120109524Y-71885176D01*
X120109524Y-71885176D02*
X120204762Y-71789938D01*
X120204762Y-71789938D02*
X120347619Y-71742319D01*
X120347619Y-71742319D02*
X120442857Y-71742319D01*
X120442857Y-71742319D02*
X120585714Y-71789938D01*
X120585714Y-71789938D02*
X120633333Y-71837557D01*
X121585714Y-72742319D02*
X121014286Y-72742319D01*
X121300000Y-72742319D02*
X121300000Y-71742319D01*
X121300000Y-71742319D02*
X121204762Y-71885176D01*
X121204762Y-71885176D02*
X121109524Y-71980414D01*
X121109524Y-71980414D02*
X121014286Y-72028033D01*
X128957142Y-96054819D02*
X128623809Y-95578628D01*
X128385714Y-96054819D02*
X128385714Y-95054819D01*
X128385714Y-95054819D02*
X128766666Y-95054819D01*
X128766666Y-95054819D02*
X128861904Y-95102438D01*
X128861904Y-95102438D02*
X128909523Y-95150057D01*
X128909523Y-95150057D02*
X128957142Y-95245295D01*
X128957142Y-95245295D02*
X128957142Y-95388152D01*
X128957142Y-95388152D02*
X128909523Y-95483390D01*
X128909523Y-95483390D02*
X128861904Y-95531009D01*
X128861904Y-95531009D02*
X128766666Y-95578628D01*
X128766666Y-95578628D02*
X128385714Y-95578628D01*
X129909523Y-96054819D02*
X129338095Y-96054819D01*
X129623809Y-96054819D02*
X129623809Y-95054819D01*
X129623809Y-95054819D02*
X129528571Y-95197676D01*
X129528571Y-95197676D02*
X129433333Y-95292914D01*
X129433333Y-95292914D02*
X129338095Y-95340533D01*
X130480952Y-95483390D02*
X130385714Y-95435771D01*
X130385714Y-95435771D02*
X130338095Y-95388152D01*
X130338095Y-95388152D02*
X130290476Y-95292914D01*
X130290476Y-95292914D02*
X130290476Y-95245295D01*
X130290476Y-95245295D02*
X130338095Y-95150057D01*
X130338095Y-95150057D02*
X130385714Y-95102438D01*
X130385714Y-95102438D02*
X130480952Y-95054819D01*
X130480952Y-95054819D02*
X130671428Y-95054819D01*
X130671428Y-95054819D02*
X130766666Y-95102438D01*
X130766666Y-95102438D02*
X130814285Y-95150057D01*
X130814285Y-95150057D02*
X130861904Y-95245295D01*
X130861904Y-95245295D02*
X130861904Y-95292914D01*
X130861904Y-95292914D02*
X130814285Y-95388152D01*
X130814285Y-95388152D02*
X130766666Y-95435771D01*
X130766666Y-95435771D02*
X130671428Y-95483390D01*
X130671428Y-95483390D02*
X130480952Y-95483390D01*
X130480952Y-95483390D02*
X130385714Y-95531009D01*
X130385714Y-95531009D02*
X130338095Y-95578628D01*
X130338095Y-95578628D02*
X130290476Y-95673866D01*
X130290476Y-95673866D02*
X130290476Y-95864342D01*
X130290476Y-95864342D02*
X130338095Y-95959580D01*
X130338095Y-95959580D02*
X130385714Y-96007200D01*
X130385714Y-96007200D02*
X130480952Y-96054819D01*
X130480952Y-96054819D02*
X130671428Y-96054819D01*
X130671428Y-96054819D02*
X130766666Y-96007200D01*
X130766666Y-96007200D02*
X130814285Y-95959580D01*
X130814285Y-95959580D02*
X130861904Y-95864342D01*
X130861904Y-95864342D02*
X130861904Y-95673866D01*
X130861904Y-95673866D02*
X130814285Y-95578628D01*
X130814285Y-95578628D02*
X130766666Y-95531009D01*
X130766666Y-95531009D02*
X130671428Y-95483390D01*
X116331009Y-87647618D02*
X116331009Y-87980951D01*
X116854819Y-87980951D02*
X115854819Y-87980951D01*
X115854819Y-87980951D02*
X115854819Y-87504761D01*
X116854819Y-87123808D02*
X115854819Y-87123808D01*
X116854819Y-86076190D02*
X116378628Y-86409523D01*
X116854819Y-86647618D02*
X115854819Y-86647618D01*
X115854819Y-86647618D02*
X115854819Y-86266666D01*
X115854819Y-86266666D02*
X115902438Y-86171428D01*
X115902438Y-86171428D02*
X115950057Y-86123809D01*
X115950057Y-86123809D02*
X116045295Y-86076190D01*
X116045295Y-86076190D02*
X116188152Y-86076190D01*
X116188152Y-86076190D02*
X116283390Y-86123809D01*
X116283390Y-86123809D02*
X116331009Y-86171428D01*
X116331009Y-86171428D02*
X116378628Y-86266666D01*
X116378628Y-86266666D02*
X116378628Y-86647618D01*
X116331009Y-85647618D02*
X116331009Y-85314285D01*
X116854819Y-85171428D02*
X116854819Y-85647618D01*
X116854819Y-85647618D02*
X115854819Y-85647618D01*
X115854819Y-85647618D02*
X115854819Y-85171428D01*
X140338095Y-88854819D02*
X140909523Y-88854819D01*
X140623809Y-89854819D02*
X140623809Y-88854819D01*
X141242857Y-89854819D02*
X141242857Y-88854819D01*
X141242857Y-88854819D02*
X141623809Y-88854819D01*
X141623809Y-88854819D02*
X141719047Y-88902438D01*
X141719047Y-88902438D02*
X141766666Y-88950057D01*
X141766666Y-88950057D02*
X141814285Y-89045295D01*
X141814285Y-89045295D02*
X141814285Y-89188152D01*
X141814285Y-89188152D02*
X141766666Y-89283390D01*
X141766666Y-89283390D02*
X141719047Y-89331009D01*
X141719047Y-89331009D02*
X141623809Y-89378628D01*
X141623809Y-89378628D02*
X141242857Y-89378628D01*
X142766666Y-89854819D02*
X142195238Y-89854819D01*
X142480952Y-89854819D02*
X142480952Y-88854819D01*
X142480952Y-88854819D02*
X142385714Y-88997676D01*
X142385714Y-88997676D02*
X142290476Y-89092914D01*
X142290476Y-89092914D02*
X142195238Y-89140533D01*
X114759580Y-100230357D02*
X114807200Y-100277976D01*
X114807200Y-100277976D02*
X114854819Y-100420833D01*
X114854819Y-100420833D02*
X114854819Y-100516071D01*
X114854819Y-100516071D02*
X114807200Y-100658928D01*
X114807200Y-100658928D02*
X114711961Y-100754166D01*
X114711961Y-100754166D02*
X114616723Y-100801785D01*
X114616723Y-100801785D02*
X114426247Y-100849404D01*
X114426247Y-100849404D02*
X114283390Y-100849404D01*
X114283390Y-100849404D02*
X114092914Y-100801785D01*
X114092914Y-100801785D02*
X113997676Y-100754166D01*
X113997676Y-100754166D02*
X113902438Y-100658928D01*
X113902438Y-100658928D02*
X113854819Y-100516071D01*
X113854819Y-100516071D02*
X113854819Y-100420833D01*
X113854819Y-100420833D02*
X113902438Y-100277976D01*
X113902438Y-100277976D02*
X113950057Y-100230357D01*
X113854819Y-99801785D02*
X114664342Y-99801785D01*
X114664342Y-99801785D02*
X114759580Y-99754166D01*
X114759580Y-99754166D02*
X114807200Y-99706547D01*
X114807200Y-99706547D02*
X114854819Y-99611309D01*
X114854819Y-99611309D02*
X114854819Y-99420833D01*
X114854819Y-99420833D02*
X114807200Y-99325595D01*
X114807200Y-99325595D02*
X114759580Y-99277976D01*
X114759580Y-99277976D02*
X114664342Y-99230357D01*
X114664342Y-99230357D02*
X113854819Y-99230357D01*
X114331009Y-98754166D02*
X114331009Y-98420833D01*
X114854819Y-98277976D02*
X114854819Y-98754166D01*
X114854819Y-98754166D02*
X113854819Y-98754166D01*
X113854819Y-98754166D02*
X113854819Y-98277976D01*
X114854819Y-97325595D02*
X114854819Y-97897023D01*
X114854819Y-97611309D02*
X113854819Y-97611309D01*
X113854819Y-97611309D02*
X113997676Y-97706547D01*
X113997676Y-97706547D02*
X114092914Y-97801785D01*
X114092914Y-97801785D02*
X114140533Y-97897023D01*
X157957142Y-83854819D02*
X157623809Y-83378628D01*
X157385714Y-83854819D02*
X157385714Y-82854819D01*
X157385714Y-82854819D02*
X157766666Y-82854819D01*
X157766666Y-82854819D02*
X157861904Y-82902438D01*
X157861904Y-82902438D02*
X157909523Y-82950057D01*
X157909523Y-82950057D02*
X157957142Y-83045295D01*
X157957142Y-83045295D02*
X157957142Y-83188152D01*
X157957142Y-83188152D02*
X157909523Y-83283390D01*
X157909523Y-83283390D02*
X157861904Y-83331009D01*
X157861904Y-83331009D02*
X157766666Y-83378628D01*
X157766666Y-83378628D02*
X157385714Y-83378628D01*
X158909523Y-83854819D02*
X158338095Y-83854819D01*
X158623809Y-83854819D02*
X158623809Y-82854819D01*
X158623809Y-82854819D02*
X158528571Y-82997676D01*
X158528571Y-82997676D02*
X158433333Y-83092914D01*
X158433333Y-83092914D02*
X158338095Y-83140533D01*
X159385714Y-83854819D02*
X159576190Y-83854819D01*
X159576190Y-83854819D02*
X159671428Y-83807200D01*
X159671428Y-83807200D02*
X159719047Y-83759580D01*
X159719047Y-83759580D02*
X159814285Y-83616723D01*
X159814285Y-83616723D02*
X159861904Y-83426247D01*
X159861904Y-83426247D02*
X159861904Y-83045295D01*
X159861904Y-83045295D02*
X159814285Y-82950057D01*
X159814285Y-82950057D02*
X159766666Y-82902438D01*
X159766666Y-82902438D02*
X159671428Y-82854819D01*
X159671428Y-82854819D02*
X159480952Y-82854819D01*
X159480952Y-82854819D02*
X159385714Y-82902438D01*
X159385714Y-82902438D02*
X159338095Y-82950057D01*
X159338095Y-82950057D02*
X159290476Y-83045295D01*
X159290476Y-83045295D02*
X159290476Y-83283390D01*
X159290476Y-83283390D02*
X159338095Y-83378628D01*
X159338095Y-83378628D02*
X159385714Y-83426247D01*
X159385714Y-83426247D02*
X159480952Y-83473866D01*
X159480952Y-83473866D02*
X159671428Y-83473866D01*
X159671428Y-83473866D02*
X159766666Y-83426247D01*
X159766666Y-83426247D02*
X159814285Y-83378628D01*
X159814285Y-83378628D02*
X159861904Y-83283390D01*
X147807142Y-96059580D02*
X147759523Y-96107200D01*
X147759523Y-96107200D02*
X147616666Y-96154819D01*
X147616666Y-96154819D02*
X147521428Y-96154819D01*
X147521428Y-96154819D02*
X147378571Y-96107200D01*
X147378571Y-96107200D02*
X147283333Y-96011961D01*
X147283333Y-96011961D02*
X147235714Y-95916723D01*
X147235714Y-95916723D02*
X147188095Y-95726247D01*
X147188095Y-95726247D02*
X147188095Y-95583390D01*
X147188095Y-95583390D02*
X147235714Y-95392914D01*
X147235714Y-95392914D02*
X147283333Y-95297676D01*
X147283333Y-95297676D02*
X147378571Y-95202438D01*
X147378571Y-95202438D02*
X147521428Y-95154819D01*
X147521428Y-95154819D02*
X147616666Y-95154819D01*
X147616666Y-95154819D02*
X147759523Y-95202438D01*
X147759523Y-95202438D02*
X147807142Y-95250057D01*
X148235714Y-95154819D02*
X148235714Y-95964342D01*
X148235714Y-95964342D02*
X148283333Y-96059580D01*
X148283333Y-96059580D02*
X148330952Y-96107200D01*
X148330952Y-96107200D02*
X148426190Y-96154819D01*
X148426190Y-96154819D02*
X148616666Y-96154819D01*
X148616666Y-96154819D02*
X148711904Y-96107200D01*
X148711904Y-96107200D02*
X148759523Y-96059580D01*
X148759523Y-96059580D02*
X148807142Y-95964342D01*
X148807142Y-95964342D02*
X148807142Y-95154819D01*
X149283333Y-95631009D02*
X149616666Y-95631009D01*
X149759523Y-96154819D02*
X149283333Y-96154819D01*
X149283333Y-96154819D02*
X149283333Y-95154819D01*
X149283333Y-95154819D02*
X149759523Y-95154819D01*
X150378571Y-95154819D02*
X150473809Y-95154819D01*
X150473809Y-95154819D02*
X150569047Y-95202438D01*
X150569047Y-95202438D02*
X150616666Y-95250057D01*
X150616666Y-95250057D02*
X150664285Y-95345295D01*
X150664285Y-95345295D02*
X150711904Y-95535771D01*
X150711904Y-95535771D02*
X150711904Y-95773866D01*
X150711904Y-95773866D02*
X150664285Y-95964342D01*
X150664285Y-95964342D02*
X150616666Y-96059580D01*
X150616666Y-96059580D02*
X150569047Y-96107200D01*
X150569047Y-96107200D02*
X150473809Y-96154819D01*
X150473809Y-96154819D02*
X150378571Y-96154819D01*
X150378571Y-96154819D02*
X150283333Y-96107200D01*
X150283333Y-96107200D02*
X150235714Y-96059580D01*
X150235714Y-96059580D02*
X150188095Y-95964342D01*
X150188095Y-95964342D02*
X150140476Y-95773866D01*
X150140476Y-95773866D02*
X150140476Y-95535771D01*
X150140476Y-95535771D02*
X150188095Y-95345295D01*
X150188095Y-95345295D02*
X150235714Y-95250057D01*
X150235714Y-95250057D02*
X150283333Y-95202438D01*
X150283333Y-95202438D02*
X150378571Y-95154819D01*
X125757142Y-102854819D02*
X125423809Y-102378628D01*
X125185714Y-102854819D02*
X125185714Y-101854819D01*
X125185714Y-101854819D02*
X125566666Y-101854819D01*
X125566666Y-101854819D02*
X125661904Y-101902438D01*
X125661904Y-101902438D02*
X125709523Y-101950057D01*
X125709523Y-101950057D02*
X125757142Y-102045295D01*
X125757142Y-102045295D02*
X125757142Y-102188152D01*
X125757142Y-102188152D02*
X125709523Y-102283390D01*
X125709523Y-102283390D02*
X125661904Y-102331009D01*
X125661904Y-102331009D02*
X125566666Y-102378628D01*
X125566666Y-102378628D02*
X125185714Y-102378628D01*
X126709523Y-102854819D02*
X126138095Y-102854819D01*
X126423809Y-102854819D02*
X126423809Y-101854819D01*
X126423809Y-101854819D02*
X126328571Y-101997676D01*
X126328571Y-101997676D02*
X126233333Y-102092914D01*
X126233333Y-102092914D02*
X126138095Y-102140533D01*
X127566666Y-102188152D02*
X127566666Y-102854819D01*
X127328571Y-101807200D02*
X127090476Y-102521485D01*
X127090476Y-102521485D02*
X127709523Y-102521485D01*
X123904761Y-70437557D02*
X123809523Y-70389938D01*
X123809523Y-70389938D02*
X123714285Y-70294700D01*
X123714285Y-70294700D02*
X123571428Y-70151842D01*
X123571428Y-70151842D02*
X123476190Y-70104223D01*
X123476190Y-70104223D02*
X123380952Y-70104223D01*
X123428571Y-70342319D02*
X123333333Y-70294700D01*
X123333333Y-70294700D02*
X123238095Y-70199461D01*
X123238095Y-70199461D02*
X123190476Y-70008985D01*
X123190476Y-70008985D02*
X123190476Y-69675652D01*
X123190476Y-69675652D02*
X123238095Y-69485176D01*
X123238095Y-69485176D02*
X123333333Y-69389938D01*
X123333333Y-69389938D02*
X123428571Y-69342319D01*
X123428571Y-69342319D02*
X123619047Y-69342319D01*
X123619047Y-69342319D02*
X123714285Y-69389938D01*
X123714285Y-69389938D02*
X123809523Y-69485176D01*
X123809523Y-69485176D02*
X123857142Y-69675652D01*
X123857142Y-69675652D02*
X123857142Y-70008985D01*
X123857142Y-70008985D02*
X123809523Y-70199461D01*
X123809523Y-70199461D02*
X123714285Y-70294700D01*
X123714285Y-70294700D02*
X123619047Y-70342319D01*
X123619047Y-70342319D02*
X123428571Y-70342319D01*
X124809523Y-70342319D02*
X124238095Y-70342319D01*
X124523809Y-70342319D02*
X124523809Y-69342319D01*
X124523809Y-69342319D02*
X124428571Y-69485176D01*
X124428571Y-69485176D02*
X124333333Y-69580414D01*
X124333333Y-69580414D02*
X124238095Y-69628033D01*
X115047080Y-105942857D02*
X115094700Y-105990476D01*
X115094700Y-105990476D02*
X115142319Y-106133333D01*
X115142319Y-106133333D02*
X115142319Y-106228571D01*
X115142319Y-106228571D02*
X115094700Y-106371428D01*
X115094700Y-106371428D02*
X114999461Y-106466666D01*
X114999461Y-106466666D02*
X114904223Y-106514285D01*
X114904223Y-106514285D02*
X114713747Y-106561904D01*
X114713747Y-106561904D02*
X114570890Y-106561904D01*
X114570890Y-106561904D02*
X114380414Y-106514285D01*
X114380414Y-106514285D02*
X114285176Y-106466666D01*
X114285176Y-106466666D02*
X114189938Y-106371428D01*
X114189938Y-106371428D02*
X114142319Y-106228571D01*
X114142319Y-106228571D02*
X114142319Y-106133333D01*
X114142319Y-106133333D02*
X114189938Y-105990476D01*
X114189938Y-105990476D02*
X114237557Y-105942857D01*
X114142319Y-105514285D02*
X114951842Y-105514285D01*
X114951842Y-105514285D02*
X115047080Y-105466666D01*
X115047080Y-105466666D02*
X115094700Y-105419047D01*
X115094700Y-105419047D02*
X115142319Y-105323809D01*
X115142319Y-105323809D02*
X115142319Y-105133333D01*
X115142319Y-105133333D02*
X115094700Y-105038095D01*
X115094700Y-105038095D02*
X115047080Y-104990476D01*
X115047080Y-104990476D02*
X114951842Y-104942857D01*
X114951842Y-104942857D02*
X114142319Y-104942857D01*
X114618509Y-104466666D02*
X114618509Y-104133333D01*
X115142319Y-103990476D02*
X115142319Y-104466666D01*
X115142319Y-104466666D02*
X114142319Y-104466666D01*
X114142319Y-104466666D02*
X114142319Y-103990476D01*
X114142319Y-103371428D02*
X114142319Y-103276190D01*
X114142319Y-103276190D02*
X114189938Y-103180952D01*
X114189938Y-103180952D02*
X114237557Y-103133333D01*
X114237557Y-103133333D02*
X114332795Y-103085714D01*
X114332795Y-103085714D02*
X114523271Y-103038095D01*
X114523271Y-103038095D02*
X114761366Y-103038095D01*
X114761366Y-103038095D02*
X114951842Y-103085714D01*
X114951842Y-103085714D02*
X115047080Y-103133333D01*
X115047080Y-103133333D02*
X115094700Y-103180952D01*
X115094700Y-103180952D02*
X115142319Y-103276190D01*
X115142319Y-103276190D02*
X115142319Y-103371428D01*
X115142319Y-103371428D02*
X115094700Y-103466666D01*
X115094700Y-103466666D02*
X115047080Y-103514285D01*
X115047080Y-103514285D02*
X114951842Y-103561904D01*
X114951842Y-103561904D02*
X114761366Y-103609523D01*
X114761366Y-103609523D02*
X114523271Y-103609523D01*
X114523271Y-103609523D02*
X114332795Y-103561904D01*
X114332795Y-103561904D02*
X114237557Y-103514285D01*
X114237557Y-103514285D02*
X114189938Y-103466666D01*
X114189938Y-103466666D02*
X114142319Y-103371428D01*
X128854761Y-70375057D02*
X128759523Y-70327438D01*
X128759523Y-70327438D02*
X128664285Y-70232200D01*
X128664285Y-70232200D02*
X128521428Y-70089342D01*
X128521428Y-70089342D02*
X128426190Y-70041723D01*
X128426190Y-70041723D02*
X128330952Y-70041723D01*
X128378571Y-70279819D02*
X128283333Y-70232200D01*
X128283333Y-70232200D02*
X128188095Y-70136961D01*
X128188095Y-70136961D02*
X128140476Y-69946485D01*
X128140476Y-69946485D02*
X128140476Y-69613152D01*
X128140476Y-69613152D02*
X128188095Y-69422676D01*
X128188095Y-69422676D02*
X128283333Y-69327438D01*
X128283333Y-69327438D02*
X128378571Y-69279819D01*
X128378571Y-69279819D02*
X128569047Y-69279819D01*
X128569047Y-69279819D02*
X128664285Y-69327438D01*
X128664285Y-69327438D02*
X128759523Y-69422676D01*
X128759523Y-69422676D02*
X128807142Y-69613152D01*
X128807142Y-69613152D02*
X128807142Y-69946485D01*
X128807142Y-69946485D02*
X128759523Y-70136961D01*
X128759523Y-70136961D02*
X128664285Y-70232200D01*
X128664285Y-70232200D02*
X128569047Y-70279819D01*
X128569047Y-70279819D02*
X128378571Y-70279819D01*
X129188095Y-69375057D02*
X129235714Y-69327438D01*
X129235714Y-69327438D02*
X129330952Y-69279819D01*
X129330952Y-69279819D02*
X129569047Y-69279819D01*
X129569047Y-69279819D02*
X129664285Y-69327438D01*
X129664285Y-69327438D02*
X129711904Y-69375057D01*
X129711904Y-69375057D02*
X129759523Y-69470295D01*
X129759523Y-69470295D02*
X129759523Y-69565533D01*
X129759523Y-69565533D02*
X129711904Y-69708390D01*
X129711904Y-69708390D02*
X129140476Y-70279819D01*
X129140476Y-70279819D02*
X129759523Y-70279819D01*
X137261905Y-89854819D02*
X137261905Y-88854819D01*
X137261905Y-88854819D02*
X137500000Y-88854819D01*
X137500000Y-88854819D02*
X137642857Y-88902438D01*
X137642857Y-88902438D02*
X137738095Y-88997676D01*
X137738095Y-88997676D02*
X137785714Y-89092914D01*
X137785714Y-89092914D02*
X137833333Y-89283390D01*
X137833333Y-89283390D02*
X137833333Y-89426247D01*
X137833333Y-89426247D02*
X137785714Y-89616723D01*
X137785714Y-89616723D02*
X137738095Y-89711961D01*
X137738095Y-89711961D02*
X137642857Y-89807200D01*
X137642857Y-89807200D02*
X137500000Y-89854819D01*
X137500000Y-89854819D02*
X137261905Y-89854819D01*
X138785714Y-89854819D02*
X138214286Y-89854819D01*
X138500000Y-89854819D02*
X138500000Y-88854819D01*
X138500000Y-88854819D02*
X138404762Y-88997676D01*
X138404762Y-88997676D02*
X138309524Y-89092914D01*
X138309524Y-89092914D02*
X138214286Y-89140533D01*
X127633333Y-76142319D02*
X127300000Y-75666128D01*
X127061905Y-76142319D02*
X127061905Y-75142319D01*
X127061905Y-75142319D02*
X127442857Y-75142319D01*
X127442857Y-75142319D02*
X127538095Y-75189938D01*
X127538095Y-75189938D02*
X127585714Y-75237557D01*
X127585714Y-75237557D02*
X127633333Y-75332795D01*
X127633333Y-75332795D02*
X127633333Y-75475652D01*
X127633333Y-75475652D02*
X127585714Y-75570890D01*
X127585714Y-75570890D02*
X127538095Y-75618509D01*
X127538095Y-75618509D02*
X127442857Y-75666128D01*
X127442857Y-75666128D02*
X127061905Y-75666128D01*
X128490476Y-75475652D02*
X128490476Y-76142319D01*
X128252381Y-75094700D02*
X128014286Y-75808985D01*
X128014286Y-75808985D02*
X128633333Y-75808985D01*
X122433333Y-77942319D02*
X122100000Y-77466128D01*
X121861905Y-77942319D02*
X121861905Y-76942319D01*
X121861905Y-76942319D02*
X122242857Y-76942319D01*
X122242857Y-76942319D02*
X122338095Y-76989938D01*
X122338095Y-76989938D02*
X122385714Y-77037557D01*
X122385714Y-77037557D02*
X122433333Y-77132795D01*
X122433333Y-77132795D02*
X122433333Y-77275652D01*
X122433333Y-77275652D02*
X122385714Y-77370890D01*
X122385714Y-77370890D02*
X122338095Y-77418509D01*
X122338095Y-77418509D02*
X122242857Y-77466128D01*
X122242857Y-77466128D02*
X121861905Y-77466128D01*
X123338095Y-76942319D02*
X122861905Y-76942319D01*
X122861905Y-76942319D02*
X122814286Y-77418509D01*
X122814286Y-77418509D02*
X122861905Y-77370890D01*
X122861905Y-77370890D02*
X122957143Y-77323271D01*
X122957143Y-77323271D02*
X123195238Y-77323271D01*
X123195238Y-77323271D02*
X123290476Y-77370890D01*
X123290476Y-77370890D02*
X123338095Y-77418509D01*
X123338095Y-77418509D02*
X123385714Y-77513747D01*
X123385714Y-77513747D02*
X123385714Y-77751842D01*
X123385714Y-77751842D02*
X123338095Y-77847080D01*
X123338095Y-77847080D02*
X123290476Y-77894700D01*
X123290476Y-77894700D02*
X123195238Y-77942319D01*
X123195238Y-77942319D02*
X122957143Y-77942319D01*
X122957143Y-77942319D02*
X122861905Y-77894700D01*
X122861905Y-77894700D02*
X122814286Y-77847080D01*
X120957142Y-84454819D02*
X120623809Y-83978628D01*
X120385714Y-84454819D02*
X120385714Y-83454819D01*
X120385714Y-83454819D02*
X120766666Y-83454819D01*
X120766666Y-83454819D02*
X120861904Y-83502438D01*
X120861904Y-83502438D02*
X120909523Y-83550057D01*
X120909523Y-83550057D02*
X120957142Y-83645295D01*
X120957142Y-83645295D02*
X120957142Y-83788152D01*
X120957142Y-83788152D02*
X120909523Y-83883390D01*
X120909523Y-83883390D02*
X120861904Y-83931009D01*
X120861904Y-83931009D02*
X120766666Y-83978628D01*
X120766666Y-83978628D02*
X120385714Y-83978628D01*
X121909523Y-84454819D02*
X121338095Y-84454819D01*
X121623809Y-84454819D02*
X121623809Y-83454819D01*
X121623809Y-83454819D02*
X121528571Y-83597676D01*
X121528571Y-83597676D02*
X121433333Y-83692914D01*
X121433333Y-83692914D02*
X121338095Y-83740533D01*
X122290476Y-83550057D02*
X122338095Y-83502438D01*
X122338095Y-83502438D02*
X122433333Y-83454819D01*
X122433333Y-83454819D02*
X122671428Y-83454819D01*
X122671428Y-83454819D02*
X122766666Y-83502438D01*
X122766666Y-83502438D02*
X122814285Y-83550057D01*
X122814285Y-83550057D02*
X122861904Y-83645295D01*
X122861904Y-83645295D02*
X122861904Y-83740533D01*
X122861904Y-83740533D02*
X122814285Y-83883390D01*
X122814285Y-83883390D02*
X122242857Y-84454819D01*
X122242857Y-84454819D02*
X122861904Y-84454819D01*
X130233333Y-83847080D02*
X130185714Y-83894700D01*
X130185714Y-83894700D02*
X130042857Y-83942319D01*
X130042857Y-83942319D02*
X129947619Y-83942319D01*
X129947619Y-83942319D02*
X129804762Y-83894700D01*
X129804762Y-83894700D02*
X129709524Y-83799461D01*
X129709524Y-83799461D02*
X129661905Y-83704223D01*
X129661905Y-83704223D02*
X129614286Y-83513747D01*
X129614286Y-83513747D02*
X129614286Y-83370890D01*
X129614286Y-83370890D02*
X129661905Y-83180414D01*
X129661905Y-83180414D02*
X129709524Y-83085176D01*
X129709524Y-83085176D02*
X129804762Y-82989938D01*
X129804762Y-82989938D02*
X129947619Y-82942319D01*
X129947619Y-82942319D02*
X130042857Y-82942319D01*
X130042857Y-82942319D02*
X130185714Y-82989938D01*
X130185714Y-82989938D02*
X130233333Y-83037557D01*
X130614286Y-83037557D02*
X130661905Y-82989938D01*
X130661905Y-82989938D02*
X130757143Y-82942319D01*
X130757143Y-82942319D02*
X130995238Y-82942319D01*
X130995238Y-82942319D02*
X131090476Y-82989938D01*
X131090476Y-82989938D02*
X131138095Y-83037557D01*
X131138095Y-83037557D02*
X131185714Y-83132795D01*
X131185714Y-83132795D02*
X131185714Y-83228033D01*
X131185714Y-83228033D02*
X131138095Y-83370890D01*
X131138095Y-83370890D02*
X130566667Y-83942319D01*
X130566667Y-83942319D02*
X131185714Y-83942319D01*
X107266666Y-73364819D02*
X107266666Y-74079104D01*
X107266666Y-74079104D02*
X107219047Y-74221961D01*
X107219047Y-74221961D02*
X107123809Y-74317200D01*
X107123809Y-74317200D02*
X106980952Y-74364819D01*
X106980952Y-74364819D02*
X106885714Y-74364819D01*
X108266666Y-74364819D02*
X107695238Y-74364819D01*
X107980952Y-74364819D02*
X107980952Y-73364819D01*
X107980952Y-73364819D02*
X107885714Y-73507676D01*
X107885714Y-73507676D02*
X107790476Y-73602914D01*
X107790476Y-73602914D02*
X107695238Y-73650533D01*
X125957142Y-96054819D02*
X125623809Y-95578628D01*
X125385714Y-96054819D02*
X125385714Y-95054819D01*
X125385714Y-95054819D02*
X125766666Y-95054819D01*
X125766666Y-95054819D02*
X125861904Y-95102438D01*
X125861904Y-95102438D02*
X125909523Y-95150057D01*
X125909523Y-95150057D02*
X125957142Y-95245295D01*
X125957142Y-95245295D02*
X125957142Y-95388152D01*
X125957142Y-95388152D02*
X125909523Y-95483390D01*
X125909523Y-95483390D02*
X125861904Y-95531009D01*
X125861904Y-95531009D02*
X125766666Y-95578628D01*
X125766666Y-95578628D02*
X125385714Y-95578628D01*
X126909523Y-96054819D02*
X126338095Y-96054819D01*
X126623809Y-96054819D02*
X126623809Y-95054819D01*
X126623809Y-95054819D02*
X126528571Y-95197676D01*
X126528571Y-95197676D02*
X126433333Y-95292914D01*
X126433333Y-95292914D02*
X126338095Y-95340533D01*
X127242857Y-95054819D02*
X127909523Y-95054819D01*
X127909523Y-95054819D02*
X127480952Y-96054819D01*
X128444642Y-90142319D02*
X128111309Y-89666128D01*
X127873214Y-90142319D02*
X127873214Y-89142319D01*
X127873214Y-89142319D02*
X128254166Y-89142319D01*
X128254166Y-89142319D02*
X128349404Y-89189938D01*
X128349404Y-89189938D02*
X128397023Y-89237557D01*
X128397023Y-89237557D02*
X128444642Y-89332795D01*
X128444642Y-89332795D02*
X128444642Y-89475652D01*
X128444642Y-89475652D02*
X128397023Y-89570890D01*
X128397023Y-89570890D02*
X128349404Y-89618509D01*
X128349404Y-89618509D02*
X128254166Y-89666128D01*
X128254166Y-89666128D02*
X127873214Y-89666128D01*
X129397023Y-90142319D02*
X128825595Y-90142319D01*
X129111309Y-90142319D02*
X129111309Y-89142319D01*
X129111309Y-89142319D02*
X129016071Y-89285176D01*
X129016071Y-89285176D02*
X128920833Y-89380414D01*
X128920833Y-89380414D02*
X128825595Y-89428033D01*
X130016071Y-89142319D02*
X130111309Y-89142319D01*
X130111309Y-89142319D02*
X130206547Y-89189938D01*
X130206547Y-89189938D02*
X130254166Y-89237557D01*
X130254166Y-89237557D02*
X130301785Y-89332795D01*
X130301785Y-89332795D02*
X130349404Y-89523271D01*
X130349404Y-89523271D02*
X130349404Y-89761366D01*
X130349404Y-89761366D02*
X130301785Y-89951842D01*
X130301785Y-89951842D02*
X130254166Y-90047080D01*
X130254166Y-90047080D02*
X130206547Y-90094700D01*
X130206547Y-90094700D02*
X130111309Y-90142319D01*
X130111309Y-90142319D02*
X130016071Y-90142319D01*
X130016071Y-90142319D02*
X129920833Y-90094700D01*
X129920833Y-90094700D02*
X129873214Y-90047080D01*
X129873214Y-90047080D02*
X129825595Y-89951842D01*
X129825595Y-89951842D02*
X129777976Y-89761366D01*
X129777976Y-89761366D02*
X129777976Y-89523271D01*
X129777976Y-89523271D02*
X129825595Y-89332795D01*
X129825595Y-89332795D02*
X129873214Y-89237557D01*
X129873214Y-89237557D02*
X129920833Y-89189938D01*
X129920833Y-89189938D02*
X130016071Y-89142319D01*
X135904761Y-84450057D02*
X135809523Y-84402438D01*
X135809523Y-84402438D02*
X135714285Y-84307200D01*
X135714285Y-84307200D02*
X135571428Y-84164342D01*
X135571428Y-84164342D02*
X135476190Y-84116723D01*
X135476190Y-84116723D02*
X135380952Y-84116723D01*
X135428571Y-84354819D02*
X135333333Y-84307200D01*
X135333333Y-84307200D02*
X135238095Y-84211961D01*
X135238095Y-84211961D02*
X135190476Y-84021485D01*
X135190476Y-84021485D02*
X135190476Y-83688152D01*
X135190476Y-83688152D02*
X135238095Y-83497676D01*
X135238095Y-83497676D02*
X135333333Y-83402438D01*
X135333333Y-83402438D02*
X135428571Y-83354819D01*
X135428571Y-83354819D02*
X135619047Y-83354819D01*
X135619047Y-83354819D02*
X135714285Y-83402438D01*
X135714285Y-83402438D02*
X135809523Y-83497676D01*
X135809523Y-83497676D02*
X135857142Y-83688152D01*
X135857142Y-83688152D02*
X135857142Y-84021485D01*
X135857142Y-84021485D02*
X135809523Y-84211961D01*
X135809523Y-84211961D02*
X135714285Y-84307200D01*
X135714285Y-84307200D02*
X135619047Y-84354819D01*
X135619047Y-84354819D02*
X135428571Y-84354819D01*
X136190476Y-83354819D02*
X136809523Y-83354819D01*
X136809523Y-83354819D02*
X136476190Y-83735771D01*
X136476190Y-83735771D02*
X136619047Y-83735771D01*
X136619047Y-83735771D02*
X136714285Y-83783390D01*
X136714285Y-83783390D02*
X136761904Y-83831009D01*
X136761904Y-83831009D02*
X136809523Y-83926247D01*
X136809523Y-83926247D02*
X136809523Y-84164342D01*
X136809523Y-84164342D02*
X136761904Y-84259580D01*
X136761904Y-84259580D02*
X136714285Y-84307200D01*
X136714285Y-84307200D02*
X136619047Y-84354819D01*
X136619047Y-84354819D02*
X136333333Y-84354819D01*
X136333333Y-84354819D02*
X136238095Y-84307200D01*
X136238095Y-84307200D02*
X136190476Y-84259580D01*
X140104761Y-84150057D02*
X140009523Y-84102438D01*
X140009523Y-84102438D02*
X139914285Y-84007200D01*
X139914285Y-84007200D02*
X139771428Y-83864342D01*
X139771428Y-83864342D02*
X139676190Y-83816723D01*
X139676190Y-83816723D02*
X139580952Y-83816723D01*
X139628571Y-84054819D02*
X139533333Y-84007200D01*
X139533333Y-84007200D02*
X139438095Y-83911961D01*
X139438095Y-83911961D02*
X139390476Y-83721485D01*
X139390476Y-83721485D02*
X139390476Y-83388152D01*
X139390476Y-83388152D02*
X139438095Y-83197676D01*
X139438095Y-83197676D02*
X139533333Y-83102438D01*
X139533333Y-83102438D02*
X139628571Y-83054819D01*
X139628571Y-83054819D02*
X139819047Y-83054819D01*
X139819047Y-83054819D02*
X139914285Y-83102438D01*
X139914285Y-83102438D02*
X140009523Y-83197676D01*
X140009523Y-83197676D02*
X140057142Y-83388152D01*
X140057142Y-83388152D02*
X140057142Y-83721485D01*
X140057142Y-83721485D02*
X140009523Y-83911961D01*
X140009523Y-83911961D02*
X139914285Y-84007200D01*
X139914285Y-84007200D02*
X139819047Y-84054819D01*
X139819047Y-84054819D02*
X139628571Y-84054819D01*
X140390476Y-83054819D02*
X141057142Y-83054819D01*
X141057142Y-83054819D02*
X140628571Y-84054819D01*
D11*
%TO.C,R6*%
X123865000Y-86314564D02*
X123865000Y-85860436D01*
X125335000Y-86314564D02*
X125335000Y-85860436D01*
%TO.C,R3*%
X124665000Y-78060436D02*
X124665000Y-78514564D01*
X126135000Y-78060436D02*
X126135000Y-78514564D01*
%TO.C,R7*%
X126665000Y-85860436D02*
X126665000Y-86314564D01*
X128135000Y-85860436D02*
X128135000Y-86314564D01*
%TO.C,R16*%
X118865000Y-98860436D02*
X118865000Y-99314564D01*
X120335000Y-98860436D02*
X120335000Y-99314564D01*
%TO.C,R2*%
X129665000Y-78514564D02*
X129665000Y-78060436D01*
X131135000Y-78514564D02*
X131135000Y-78060436D01*
%TO.C,R8*%
X131315000Y-92427064D02*
X131315000Y-91972936D01*
X132785000Y-92427064D02*
X132785000Y-91972936D01*
%TO.C,Q4*%
X123727500Y-92087500D02*
X123727500Y-91437500D01*
X123727500Y-92087500D02*
X123727500Y-92737500D01*
X126847500Y-92087500D02*
X126847500Y-91437500D01*
X126847500Y-92087500D02*
X126847500Y-92737500D01*
X123777500Y-93250000D02*
X123447500Y-93490000D01*
X123447500Y-93010000D01*
X123777500Y-93250000D01*
G36*
X123777500Y-93250000D02*
G01*
X123447500Y-93490000D01*
X123447500Y-93010000D01*
X123777500Y-93250000D01*
G37*
%TO.C,R13*%
X118865000Y-104572936D02*
X118865000Y-105027064D01*
X120335000Y-104572936D02*
X120335000Y-105027064D01*
%TO.C,LED1*%
X117640000Y-78887500D02*
X117640000Y-81572500D01*
X117640000Y-81572500D02*
X119560000Y-81572500D01*
X119560000Y-81572500D02*
X119560000Y-78887500D01*
%TO.C,R15*%
X128665000Y-105114564D02*
X128665000Y-104660436D01*
X130135000Y-105114564D02*
X130135000Y-104660436D01*
%TO.C,TP2*%
X140900000Y-93700000D02*
X142300000Y-93700000D01*
X140900000Y-95100000D02*
X140900000Y-93700000D01*
X142300000Y-93700000D02*
X142300000Y-95100000D01*
X142300000Y-95100000D02*
X140900000Y-95100000D01*
%TO.C,Q5*%
X133600000Y-103240000D02*
X132950000Y-103240000D01*
X133600000Y-103240000D02*
X134250000Y-103240000D01*
X133600000Y-106360000D02*
X132950000Y-106360000D01*
X133600000Y-106360000D02*
X134250000Y-106360000D01*
X132437500Y-103290000D02*
X132197500Y-102960000D01*
X132677500Y-102960000D01*
X132437500Y-103290000D01*
G36*
X132437500Y-103290000D02*
G01*
X132197500Y-102960000D01*
X132677500Y-102960000D01*
X132437500Y-103290000D01*
G37*
%TO.C,Q6*%
X133337500Y-96440000D02*
X132687500Y-96440000D01*
X133337500Y-96440000D02*
X133987500Y-96440000D01*
X133337500Y-99560000D02*
X132687500Y-99560000D01*
X133337500Y-99560000D02*
X133987500Y-99560000D01*
X132175000Y-96490000D02*
X131935000Y-96160000D01*
X132415000Y-96160000D01*
X132175000Y-96490000D01*
G36*
X132175000Y-96490000D02*
G01*
X131935000Y-96160000D01*
X132415000Y-96160000D01*
X132175000Y-96490000D01*
G37*
%TO.C,R9*%
X133965000Y-92439564D02*
X133965000Y-91985436D01*
X135435000Y-92439564D02*
X135435000Y-91985436D01*
%TO.C,R11*%
X120152500Y-91972936D02*
X120152500Y-92427064D01*
X121622500Y-91972936D02*
X121622500Y-92427064D01*
%TO.C,R1*%
X117465000Y-74660436D02*
X117465000Y-75114564D01*
X118935000Y-74660436D02*
X118935000Y-75114564D01*
%TO.C,C1*%
X120065000Y-75114564D02*
X120065000Y-74660436D01*
X121535000Y-75114564D02*
X121535000Y-74660436D01*
%TO.C,R18*%
X128665000Y-98314564D02*
X128665000Y-97860436D01*
X130135000Y-98314564D02*
X130135000Y-97860436D01*
%TO.C,LED2*%
X117240000Y-85600000D02*
X117240000Y-88285000D01*
X117240000Y-88285000D02*
X119160000Y-88285000D01*
X119160000Y-88285000D02*
X119160000Y-85600000D01*
%TO.C,TP1*%
X140900000Y-90300000D02*
X142300000Y-90300000D01*
X140900000Y-91700000D02*
X140900000Y-90300000D01*
X142300000Y-90300000D02*
X142300000Y-91700000D01*
X142300000Y-91700000D02*
X140900000Y-91700000D01*
%TO.C,LED4*%
X115440000Y-98037500D02*
X115440000Y-100722500D01*
X115440000Y-100722500D02*
X117360000Y-100722500D01*
X117360000Y-100722500D02*
X117360000Y-98037500D01*
%TO.C,R19*%
X146180000Y-84480000D02*
X146180000Y-86360000D01*
X146180000Y-91120000D02*
X146180000Y-89240000D01*
X171420000Y-84480000D02*
X146180000Y-84480000D01*
X171420000Y-86360000D02*
X171420000Y-84480000D01*
X171420000Y-89240000D02*
X171420000Y-91120000D01*
X171420000Y-91120000D02*
X146180000Y-91120000D01*
%TO.C,R14*%
X125715000Y-105114564D02*
X125715000Y-104660436D01*
X127185000Y-105114564D02*
X127185000Y-104660436D01*
%TO.C,Q1*%
X122690000Y-72550000D02*
X122690000Y-71900000D01*
X122690000Y-72550000D02*
X122690000Y-73200000D01*
X125810000Y-72550000D02*
X125810000Y-71900000D01*
X125810000Y-72550000D02*
X125810000Y-73200000D01*
X126090000Y-71627500D02*
X125760000Y-71387500D01*
X126090000Y-71147500D01*
X126090000Y-71627500D01*
G36*
X126090000Y-71627500D02*
G01*
X125760000Y-71387500D01*
X126090000Y-71147500D01*
X126090000Y-71627500D01*
G37*
%TO.C,LED3*%
X115527500Y-103750000D02*
X115527500Y-106435000D01*
X115527500Y-106435000D02*
X117447500Y-106435000D01*
X117447500Y-106435000D02*
X117447500Y-103750000D01*
%TO.C,Q2*%
X127240000Y-72487500D02*
X127240000Y-71837500D01*
X127240000Y-72487500D02*
X127240000Y-73137500D01*
X130360000Y-72487500D02*
X130360000Y-71837500D01*
X130360000Y-72487500D02*
X130360000Y-73137500D01*
X127290000Y-73650000D02*
X126960000Y-73890000D01*
X126960000Y-73410000D01*
X127290000Y-73650000D01*
G36*
X127290000Y-73650000D02*
G01*
X126960000Y-73890000D01*
X126960000Y-73410000D01*
X127290000Y-73650000D01*
G37*
%TO.C,D1*%
X136490000Y-92262500D02*
X136490000Y-91612500D01*
X136490000Y-92262500D02*
X136490000Y-92912500D01*
X139610000Y-92262500D02*
X139610000Y-91612500D01*
X139610000Y-92262500D02*
X139610000Y-92912500D01*
X136540000Y-93425000D02*
X136210000Y-93665000D01*
X136210000Y-93185000D01*
X136540000Y-93425000D01*
G36*
X136540000Y-93425000D02*
G01*
X136210000Y-93665000D01*
X136210000Y-93185000D01*
X136540000Y-93425000D01*
G37*
%TO.C,R4*%
X127065000Y-77947936D02*
X127065000Y-78402064D01*
X128535000Y-77947936D02*
X128535000Y-78402064D01*
%TO.C,R5*%
X121865000Y-79914564D02*
X121865000Y-79460436D01*
X123335000Y-79914564D02*
X123335000Y-79460436D01*
%TO.C,R12*%
X120265000Y-86460436D02*
X120265000Y-86914564D01*
X121735000Y-86460436D02*
X121735000Y-86914564D01*
D12*
%TO.C,G\u002A\u002A\u002A*%
X182223481Y-77436571D02*
X182497408Y-77453750D01*
X182715229Y-77488417D01*
X182716274Y-77488670D01*
X183106136Y-77619970D01*
X183452433Y-77811053D01*
X183745574Y-78054645D01*
X183975964Y-78343475D01*
X184070933Y-78515748D01*
X184192375Y-78815291D01*
X184271303Y-79120163D01*
X184311582Y-79453096D01*
X184317077Y-79836826D01*
X184313488Y-79942869D01*
X184252355Y-80542622D01*
X184122650Y-81119990D01*
X183928736Y-81667197D01*
X183674975Y-82176462D01*
X183365729Y-82640011D01*
X183005364Y-83050064D01*
X182598241Y-83398845D01*
X182248017Y-83625048D01*
X181800629Y-83828500D01*
X181327811Y-83952049D01*
X180834360Y-83994879D01*
X180325079Y-83956174D01*
X180312810Y-83954254D01*
X179943366Y-83883330D01*
X179615701Y-83795693D01*
X179346032Y-83696137D01*
X179211660Y-83628550D01*
X179112302Y-83580520D01*
X179062480Y-83584940D01*
X179053431Y-83599932D01*
X179039400Y-83653006D01*
X179008894Y-83777981D01*
X178964424Y-83964252D01*
X178908503Y-84201208D01*
X178843641Y-84478244D01*
X178772349Y-84784750D01*
X178745387Y-84901157D01*
X178456460Y-86149991D01*
X177940534Y-86161876D01*
X177717282Y-86163788D01*
X177550496Y-86158469D01*
X177450212Y-86146487D01*
X177424607Y-86132663D01*
X177434270Y-86069688D01*
X177462029Y-85932245D01*
X177506041Y-85728145D01*
X177564461Y-85465206D01*
X177635445Y-85151243D01*
X177717149Y-84794070D01*
X177807730Y-84401503D01*
X177905344Y-83981356D01*
X178008146Y-83541445D01*
X178114293Y-83089584D01*
X178221940Y-82633590D01*
X178222858Y-82629721D01*
X179269126Y-82629721D01*
X179295487Y-82693212D01*
X179393435Y-82766736D01*
X179551257Y-82845182D01*
X179757238Y-82923435D01*
X179999667Y-82996384D01*
X180239774Y-83053369D01*
X180377453Y-83069242D01*
X180571162Y-83075604D01*
X180792897Y-83073254D01*
X181014650Y-83062992D01*
X181208416Y-83045617D01*
X181346190Y-83021929D01*
X181346783Y-83021772D01*
X181712013Y-82881762D01*
X182048167Y-82668036D01*
X182350875Y-82387855D01*
X182615773Y-82048485D01*
X182838495Y-81657187D01*
X183014671Y-81221225D01*
X183139938Y-80747863D01*
X183209927Y-80244363D01*
X183223718Y-79899699D01*
X183201554Y-79496280D01*
X183131990Y-79158614D01*
X183012038Y-78880372D01*
X182838713Y-78655227D01*
X182609028Y-78476849D01*
X182531610Y-78433047D01*
X182429483Y-78382754D01*
X182336403Y-78349722D01*
X182230398Y-78330373D01*
X182089493Y-78321126D01*
X181891718Y-78318404D01*
X181827274Y-78318324D01*
X181611498Y-78319825D01*
X181456430Y-78327093D01*
X181338127Y-78344274D01*
X181232644Y-78375514D01*
X181116040Y-78424959D01*
X181060051Y-78451174D01*
X180749784Y-78632571D01*
X180487088Y-78863974D01*
X180263688Y-79154958D01*
X180071306Y-79515098D01*
X180004611Y-79672078D01*
X179962006Y-79796372D01*
X179904837Y-79989742D01*
X179836702Y-80238572D01*
X179761203Y-80529242D01*
X179681938Y-80848134D01*
X179602508Y-81181632D01*
X179581161Y-81273890D01*
X179507651Y-81593656D01*
X179439686Y-81889192D01*
X179379741Y-82149749D01*
X179330292Y-82364577D01*
X179293810Y-82522925D01*
X179272771Y-82614044D01*
X179269126Y-82629721D01*
X178222858Y-82629721D01*
X178329244Y-82181277D01*
X178434361Y-81740461D01*
X178535447Y-81318954D01*
X178630657Y-80924575D01*
X178718148Y-80565138D01*
X178796076Y-80248456D01*
X178862597Y-79982347D01*
X178915867Y-79774624D01*
X178954041Y-79633104D01*
X178972242Y-79573452D01*
X179189865Y-79072845D01*
X179462823Y-78634213D01*
X179789194Y-78259406D01*
X180167054Y-77950274D01*
X180594485Y-77708668D01*
X181069561Y-77536438D01*
X181095470Y-77529430D01*
X181329442Y-77483309D01*
X181613060Y-77452015D01*
X181919886Y-77436213D01*
X182223481Y-77436571D01*
G36*
X182223481Y-77436571D02*
G01*
X182497408Y-77453750D01*
X182715229Y-77488417D01*
X182716274Y-77488670D01*
X183106136Y-77619970D01*
X183452433Y-77811053D01*
X183745574Y-78054645D01*
X183975964Y-78343475D01*
X184070933Y-78515748D01*
X184192375Y-78815291D01*
X184271303Y-79120163D01*
X184311582Y-79453096D01*
X184317077Y-79836826D01*
X184313488Y-79942869D01*
X184252355Y-80542622D01*
X184122650Y-81119990D01*
X183928736Y-81667197D01*
X183674975Y-82176462D01*
X183365729Y-82640011D01*
X183005364Y-83050064D01*
X182598241Y-83398845D01*
X182248017Y-83625048D01*
X181800629Y-83828500D01*
X181327811Y-83952049D01*
X180834360Y-83994879D01*
X180325079Y-83956174D01*
X180312810Y-83954254D01*
X179943366Y-83883330D01*
X179615701Y-83795693D01*
X179346032Y-83696137D01*
X179211660Y-83628550D01*
X179112302Y-83580520D01*
X179062480Y-83584940D01*
X179053431Y-83599932D01*
X179039400Y-83653006D01*
X179008894Y-83777981D01*
X178964424Y-83964252D01*
X178908503Y-84201208D01*
X178843641Y-84478244D01*
X178772349Y-84784750D01*
X178745387Y-84901157D01*
X178456460Y-86149991D01*
X177940534Y-86161876D01*
X177717282Y-86163788D01*
X177550496Y-86158469D01*
X177450212Y-86146487D01*
X177424607Y-86132663D01*
X177434270Y-86069688D01*
X177462029Y-85932245D01*
X177506041Y-85728145D01*
X177564461Y-85465206D01*
X177635445Y-85151243D01*
X177717149Y-84794070D01*
X177807730Y-84401503D01*
X177905344Y-83981356D01*
X178008146Y-83541445D01*
X178114293Y-83089584D01*
X178221940Y-82633590D01*
X178222858Y-82629721D01*
X179269126Y-82629721D01*
X179295487Y-82693212D01*
X179393435Y-82766736D01*
X179551257Y-82845182D01*
X179757238Y-82923435D01*
X179999667Y-82996384D01*
X180239774Y-83053369D01*
X180377453Y-83069242D01*
X180571162Y-83075604D01*
X180792897Y-83073254D01*
X181014650Y-83062992D01*
X181208416Y-83045617D01*
X181346190Y-83021929D01*
X181346783Y-83021772D01*
X181712013Y-82881762D01*
X182048167Y-82668036D01*
X182350875Y-82387855D01*
X182615773Y-82048485D01*
X182838495Y-81657187D01*
X183014671Y-81221225D01*
X183139938Y-80747863D01*
X183209927Y-80244363D01*
X183223718Y-79899699D01*
X183201554Y-79496280D01*
X183131990Y-79158614D01*
X183012038Y-78880372D01*
X182838713Y-78655227D01*
X182609028Y-78476849D01*
X182531610Y-78433047D01*
X182429483Y-78382754D01*
X182336403Y-78349722D01*
X182230398Y-78330373D01*
X182089493Y-78321126D01*
X181891718Y-78318404D01*
X181827274Y-78318324D01*
X181611498Y-78319825D01*
X181456430Y-78327093D01*
X181338127Y-78344274D01*
X181232644Y-78375514D01*
X181116040Y-78424959D01*
X181060051Y-78451174D01*
X180749784Y-78632571D01*
X180487088Y-78863974D01*
X180263688Y-79154958D01*
X180071306Y-79515098D01*
X180004611Y-79672078D01*
X179962006Y-79796372D01*
X179904837Y-79989742D01*
X179836702Y-80238572D01*
X179761203Y-80529242D01*
X179681938Y-80848134D01*
X179602508Y-81181632D01*
X179581161Y-81273890D01*
X179507651Y-81593656D01*
X179439686Y-81889192D01*
X179379741Y-82149749D01*
X179330292Y-82364577D01*
X179293810Y-82522925D01*
X179272771Y-82614044D01*
X179269126Y-82629721D01*
X178222858Y-82629721D01*
X178329244Y-82181277D01*
X178434361Y-81740461D01*
X178535447Y-81318954D01*
X178630657Y-80924575D01*
X178718148Y-80565138D01*
X178796076Y-80248456D01*
X178862597Y-79982347D01*
X178915867Y-79774624D01*
X178954041Y-79633104D01*
X178972242Y-79573452D01*
X179189865Y-79072845D01*
X179462823Y-78634213D01*
X179789194Y-78259406D01*
X180167054Y-77950274D01*
X180594485Y-77708668D01*
X181069561Y-77536438D01*
X181095470Y-77529430D01*
X181329442Y-77483309D01*
X181613060Y-77452015D01*
X181919886Y-77436213D01*
X182223481Y-77436571D01*
G37*
X178426643Y-78350074D02*
X178408675Y-78432935D01*
X178380076Y-78574480D01*
X178345761Y-78750169D01*
X178329179Y-78836907D01*
X178254858Y-79228491D01*
X176800579Y-79228491D01*
X176668738Y-79683573D01*
X176560491Y-80072329D01*
X176448535Y-80501176D01*
X176339968Y-80941200D01*
X176241889Y-81363484D01*
X176161397Y-81739114D01*
X176149715Y-81797565D01*
X176110114Y-82001921D01*
X176086654Y-82145088D01*
X176078964Y-82248920D01*
X176086675Y-82335270D01*
X176109416Y-82425990D01*
X176137575Y-82514535D01*
X176242631Y-82732069D01*
X176389073Y-82877249D01*
X176570998Y-82947956D01*
X176782509Y-82942068D01*
X177017709Y-82857467D01*
X177047746Y-82841652D01*
X177218061Y-82729736D01*
X177339857Y-82596072D01*
X177434170Y-82414634D01*
X177470331Y-82318824D01*
X177522572Y-82196526D01*
X177579820Y-82135525D01*
X177651797Y-82114779D01*
X177731005Y-82113119D01*
X177750990Y-82150983D01*
X177738344Y-82220612D01*
X177691481Y-82373024D01*
X177616023Y-82569556D01*
X177524819Y-82780497D01*
X177430722Y-82976139D01*
X177346581Y-83126774D01*
X177345963Y-83127748D01*
X177131436Y-83409917D01*
X176878425Y-83650248D01*
X176603497Y-83835887D01*
X176323221Y-83953977D01*
X176260441Y-83970074D01*
X176024170Y-83998455D01*
X175828105Y-83963048D01*
X175652248Y-83859595D01*
X175622042Y-83834161D01*
X175489153Y-83701149D01*
X175394762Y-83560818D01*
X175332180Y-83394607D01*
X175294718Y-83183959D01*
X175275687Y-82910315D01*
X175274219Y-82869157D01*
X175272993Y-82632440D01*
X175286462Y-82392534D01*
X175316824Y-82138535D01*
X175366276Y-81859541D01*
X175437018Y-81544648D01*
X175531249Y-81182954D01*
X175651166Y-80763553D01*
X175793850Y-80292122D01*
X175880193Y-80011683D01*
X175957646Y-79758904D01*
X176022880Y-79544736D01*
X176072571Y-79380132D01*
X176103394Y-79276047D01*
X176112274Y-79243297D01*
X176072343Y-79238207D01*
X175962118Y-79235212D01*
X175795947Y-79234425D01*
X175588177Y-79235963D01*
X175452316Y-79237998D01*
X174792358Y-79249657D01*
X174582853Y-79948157D01*
X174360902Y-80677903D01*
X174157123Y-81326376D01*
X173971040Y-81894894D01*
X173802178Y-82384769D01*
X173650060Y-82797320D01*
X173514212Y-83133861D01*
X173394157Y-83395708D01*
X173289420Y-83584174D01*
X173244615Y-83648742D01*
X173060972Y-83840507D01*
X172857071Y-83970530D01*
X172646642Y-84033451D01*
X172443413Y-84023911D01*
X172358386Y-83994739D01*
X172199788Y-83880905D01*
X172106339Y-83716530D01*
X172082923Y-83549420D01*
X172094920Y-83424896D01*
X172132999Y-83306240D01*
X172205762Y-83179748D01*
X172321809Y-83031722D01*
X172489744Y-82848456D01*
X172583669Y-82751719D01*
X172740315Y-82587493D01*
X172888086Y-82424174D01*
X173008953Y-82282168D01*
X173077667Y-82192602D01*
X173131294Y-82095958D01*
X173201037Y-81936676D01*
X173288311Y-81710948D01*
X173394532Y-81414965D01*
X173521115Y-81044918D01*
X173659894Y-80626268D01*
X174110953Y-79249657D01*
X173727427Y-79237375D01*
X173536764Y-79233713D01*
X173400925Y-79240932D01*
X173290241Y-79264436D01*
X173175047Y-79309626D01*
X173079063Y-79355472D01*
X172867993Y-79481962D01*
X172687942Y-79646380D01*
X172611166Y-79735766D01*
X172470881Y-79891692D01*
X172362990Y-79973462D01*
X172311073Y-79988085D01*
X172214039Y-79990491D01*
X172329670Y-79789407D01*
X172617314Y-79332944D01*
X172907919Y-78958526D01*
X173200642Y-78667167D01*
X173369321Y-78537826D01*
X173458240Y-78478480D01*
X173542585Y-78428066D01*
X173629828Y-78385856D01*
X173727440Y-78351123D01*
X173842892Y-78323137D01*
X173983655Y-78301171D01*
X174157200Y-78284497D01*
X174370999Y-78272387D01*
X174632522Y-78264113D01*
X174949240Y-78258949D01*
X175328626Y-78256164D01*
X175778149Y-78255031D01*
X176273924Y-78254823D01*
X178449786Y-78254823D01*
X178426643Y-78350074D01*
G36*
X178426643Y-78350074D02*
G01*
X178408675Y-78432935D01*
X178380076Y-78574480D01*
X178345761Y-78750169D01*
X178329179Y-78836907D01*
X178254858Y-79228491D01*
X176800579Y-79228491D01*
X176668738Y-79683573D01*
X176560491Y-80072329D01*
X176448535Y-80501176D01*
X176339968Y-80941200D01*
X176241889Y-81363484D01*
X176161397Y-81739114D01*
X176149715Y-81797565D01*
X176110114Y-82001921D01*
X176086654Y-82145088D01*
X176078964Y-82248920D01*
X176086675Y-82335270D01*
X176109416Y-82425990D01*
X176137575Y-82514535D01*
X176242631Y-82732069D01*
X176389073Y-82877249D01*
X176570998Y-82947956D01*
X176782509Y-82942068D01*
X177017709Y-82857467D01*
X177047746Y-82841652D01*
X177218061Y-82729736D01*
X177339857Y-82596072D01*
X177434170Y-82414634D01*
X177470331Y-82318824D01*
X177522572Y-82196526D01*
X177579820Y-82135525D01*
X177651797Y-82114779D01*
X177731005Y-82113119D01*
X177750990Y-82150983D01*
X177738344Y-82220612D01*
X177691481Y-82373024D01*
X177616023Y-82569556D01*
X177524819Y-82780497D01*
X177430722Y-82976139D01*
X177346581Y-83126774D01*
X177345963Y-83127748D01*
X177131436Y-83409917D01*
X176878425Y-83650248D01*
X176603497Y-83835887D01*
X176323221Y-83953977D01*
X176260441Y-83970074D01*
X176024170Y-83998455D01*
X175828105Y-83963048D01*
X175652248Y-83859595D01*
X175622042Y-83834161D01*
X175489153Y-83701149D01*
X175394762Y-83560818D01*
X175332180Y-83394607D01*
X175294718Y-83183959D01*
X175275687Y-82910315D01*
X175274219Y-82869157D01*
X175272993Y-82632440D01*
X175286462Y-82392534D01*
X175316824Y-82138535D01*
X175366276Y-81859541D01*
X175437018Y-81544648D01*
X175531249Y-81182954D01*
X175651166Y-80763553D01*
X175793850Y-80292122D01*
X175880193Y-80011683D01*
X175957646Y-79758904D01*
X176022880Y-79544736D01*
X176072571Y-79380132D01*
X176103394Y-79276047D01*
X176112274Y-79243297D01*
X176072343Y-79238207D01*
X175962118Y-79235212D01*
X175795947Y-79234425D01*
X175588177Y-79235963D01*
X175452316Y-79237998D01*
X174792358Y-79249657D01*
X174582853Y-79948157D01*
X174360902Y-80677903D01*
X174157123Y-81326376D01*
X173971040Y-81894894D01*
X173802178Y-82384769D01*
X173650060Y-82797320D01*
X173514212Y-83133861D01*
X173394157Y-83395708D01*
X173289420Y-83584174D01*
X173244615Y-83648742D01*
X173060972Y-83840507D01*
X172857071Y-83970530D01*
X172646642Y-84033451D01*
X172443413Y-84023911D01*
X172358386Y-83994739D01*
X172199788Y-83880905D01*
X172106339Y-83716530D01*
X172082923Y-83549420D01*
X172094920Y-83424896D01*
X172132999Y-83306240D01*
X172205762Y-83179748D01*
X172321809Y-83031722D01*
X172489744Y-82848456D01*
X172583669Y-82751719D01*
X172740315Y-82587493D01*
X172888086Y-82424174D01*
X173008953Y-82282168D01*
X173077667Y-82192602D01*
X173131294Y-82095958D01*
X173201037Y-81936676D01*
X173288311Y-81710948D01*
X173394532Y-81414965D01*
X173521115Y-81044918D01*
X173659894Y-80626268D01*
X174110953Y-79249657D01*
X173727427Y-79237375D01*
X173536764Y-79233713D01*
X173400925Y-79240932D01*
X173290241Y-79264436D01*
X173175047Y-79309626D01*
X173079063Y-79355472D01*
X172867993Y-79481962D01*
X172687942Y-79646380D01*
X172611166Y-79735766D01*
X172470881Y-79891692D01*
X172362990Y-79973462D01*
X172311073Y-79988085D01*
X172214039Y-79990491D01*
X172329670Y-79789407D01*
X172617314Y-79332944D01*
X172907919Y-78958526D01*
X173200642Y-78667167D01*
X173369321Y-78537826D01*
X173458240Y-78478480D01*
X173542585Y-78428066D01*
X173629828Y-78385856D01*
X173727440Y-78351123D01*
X173842892Y-78323137D01*
X173983655Y-78301171D01*
X174157200Y-78284497D01*
X174370999Y-78272387D01*
X174632522Y-78264113D01*
X174949240Y-78258949D01*
X175328626Y-78256164D01*
X175778149Y-78255031D01*
X176273924Y-78254823D01*
X178449786Y-78254823D01*
X178426643Y-78350074D01*
G37*
D11*
%TO.C,C2*%
X129665000Y-86314564D02*
X129665000Y-85860436D01*
X131135000Y-86314564D02*
X131135000Y-85860436D01*
%TO.C,J1*%
X106270000Y-74910000D02*
X107600000Y-74910000D01*
X106270000Y-76240000D02*
X106270000Y-74910000D01*
X106270000Y-77510000D02*
X106270000Y-100430000D01*
X106270000Y-77510000D02*
X108930000Y-77510000D01*
X106270000Y-100430000D02*
X108930000Y-100430000D01*
X108930000Y-77510000D02*
X108930000Y-100430000D01*
%TO.C,R17*%
X125715000Y-98314564D02*
X125715000Y-97860436D01*
X127185000Y-98314564D02*
X127185000Y-97860436D01*
%TO.C,R10*%
X128352500Y-91860436D02*
X128352500Y-92314564D01*
X129822500Y-91860436D02*
X129822500Y-92314564D01*
%TO.C,Q3*%
X135090000Y-84750000D02*
X136950000Y-84750000D01*
X135150000Y-88050000D02*
X136950000Y-88050000D01*
X136950000Y-84750000D02*
X136950000Y-85800000D01*
X136950000Y-88050000D02*
X136950000Y-87000000D01*
X134640000Y-84788324D02*
X134400000Y-84458324D01*
X134880000Y-84458324D01*
X134640000Y-84788324D01*
G36*
X134640000Y-84788324D02*
G01*
X134400000Y-84458324D01*
X134880000Y-84458324D01*
X134640000Y-84788324D01*
G37*
%TO.C,Q7*%
X139450000Y-84750000D02*
X139450000Y-85800000D01*
X139450000Y-88050000D02*
X139450000Y-87000000D01*
X141250000Y-84750000D02*
X139450000Y-84750000D01*
X141310000Y-88050000D02*
X139450000Y-88050000D01*
X142000000Y-88341676D02*
X141520000Y-88341676D01*
X141760000Y-88011676D01*
X142000000Y-88341676D01*
G36*
X142000000Y-88341676D02*
G01*
X141520000Y-88341676D01*
X141760000Y-88011676D01*
X142000000Y-88341676D01*
G37*
%TD*%
%LPC*%
D13*
%TO.C,CLIP1*%
X148950000Y-76850000D03*
%TD*%
D14*
%TO.C,R6*%
X124600000Y-87000000D03*
X124600000Y-85175000D03*
%TD*%
D15*
%TO.C,R3*%
X125400000Y-77375000D03*
X125400000Y-79200000D03*
%TD*%
%TO.C,R7*%
X127400000Y-85175000D03*
X127400000Y-87000000D03*
%TD*%
D13*
%TO.C,CLIP4*%
X166800000Y-100400000D03*
%TD*%
D15*
%TO.C,R16*%
X119600000Y-98175000D03*
X119600000Y-100000000D03*
%TD*%
D14*
%TO.C,R2*%
X130400000Y-79200000D03*
X130400000Y-77375000D03*
%TD*%
%TO.C,R8*%
X132050000Y-93112500D03*
X132050000Y-91287500D03*
%TD*%
D16*
%TO.C,Q4*%
X124337500Y-93025000D03*
X126237500Y-93025000D03*
X125287500Y-91150000D03*
%TD*%
D15*
%TO.C,R13*%
X119600000Y-103887500D03*
X119600000Y-105712500D03*
%TD*%
D17*
%TO.C,LED1*%
X118600000Y-80825000D03*
X118600000Y-78950000D03*
%TD*%
D14*
%TO.C,R15*%
X129400000Y-105800000D03*
X129400000Y-103975000D03*
%TD*%
D18*
%TO.C,TP2*%
X141600000Y-94400000D03*
%TD*%
D19*
%TO.C,REF\u002A\u002A*%
X180000000Y-104000000D03*
%TD*%
D20*
%TO.C,Q5*%
X132662500Y-103850000D03*
X132662500Y-105750000D03*
X134537500Y-104800000D03*
%TD*%
%TO.C,Q6*%
X132400000Y-97050000D03*
X132400000Y-98950000D03*
X134275000Y-98000000D03*
%TD*%
D14*
%TO.C,R9*%
X134700000Y-93125000D03*
X134700000Y-91300000D03*
%TD*%
D15*
%TO.C,R11*%
X120887500Y-91287500D03*
X120887500Y-93112500D03*
%TD*%
D13*
%TO.C,CLIP2*%
X166800000Y-76850000D03*
%TD*%
D15*
%TO.C,R1*%
X118200000Y-73975000D03*
X118200000Y-75800000D03*
%TD*%
D14*
%TO.C,C1*%
X120800000Y-75800000D03*
X120800000Y-73975000D03*
%TD*%
%TO.C,R18*%
X129400000Y-99000000D03*
X129400000Y-97175000D03*
%TD*%
D17*
%TO.C,LED2*%
X118200000Y-87537500D03*
X118200000Y-85662500D03*
%TD*%
D18*
%TO.C,TP1*%
X141600000Y-91000000D03*
%TD*%
D17*
%TO.C,LED4*%
X116400000Y-99975000D03*
X116400000Y-98100000D03*
%TD*%
D21*
%TO.C,R19*%
X172770000Y-87800000D03*
D22*
X144830000Y-87800000D03*
%TD*%
D13*
%TO.C,CLIP3*%
X148950000Y-100400000D03*
%TD*%
D14*
%TO.C,R14*%
X126450000Y-105800000D03*
X126450000Y-103975000D03*
%TD*%
D23*
%TO.C,Q1*%
X125200000Y-71612500D03*
X123300000Y-71612500D03*
X124250000Y-73487500D03*
%TD*%
D19*
%TO.C,REF\u002A\u002A*%
X180000000Y-71000000D03*
%TD*%
D17*
%TO.C,LED3*%
X116487500Y-105687500D03*
X116487500Y-103812500D03*
%TD*%
D16*
%TO.C,Q2*%
X127850000Y-73425000D03*
X129750000Y-73425000D03*
X128800000Y-71550000D03*
%TD*%
%TO.C,D1*%
X137100000Y-93200000D03*
X139000000Y-93200000D03*
X138050000Y-91325000D03*
%TD*%
D15*
%TO.C,R4*%
X127800000Y-77262500D03*
X127800000Y-79087500D03*
%TD*%
D14*
%TO.C,R5*%
X122600000Y-80600000D03*
X122600000Y-78775000D03*
%TD*%
D15*
%TO.C,R12*%
X121000000Y-85775000D03*
X121000000Y-87600000D03*
%TD*%
D14*
%TO.C,C2*%
X130400000Y-87000000D03*
X130400000Y-85175000D03*
%TD*%
D24*
%TO.C,J1*%
X107600000Y-76240000D03*
D25*
X107600000Y-78780000D03*
X107600000Y-81320000D03*
X107600000Y-83860000D03*
X107600000Y-86400000D03*
X107600000Y-88940000D03*
X107600000Y-91480000D03*
X107600000Y-94020000D03*
X107600000Y-96560000D03*
X107600000Y-99100000D03*
%TD*%
D14*
%TO.C,R17*%
X126450000Y-99000000D03*
X126450000Y-97175000D03*
%TD*%
D19*
%TO.C,REF\u002A\u002A*%
X110000000Y-71000000D03*
%TD*%
D15*
%TO.C,R10*%
X129087500Y-91175000D03*
X129087500Y-93000000D03*
%TD*%
D26*
%TO.C,Q3*%
X134800000Y-85450000D03*
X134800000Y-87350000D03*
X137200000Y-86400000D03*
%TD*%
D27*
%TO.C,Q7*%
X141600000Y-87350000D03*
X141600000Y-85450000D03*
X139200000Y-86400000D03*
%TD*%
D19*
%TO.C,REF\u002A\u002A*%
X110000000Y-104000000D03*
%TD*%
%LPD*%
M02*
