M48
; DRILL file {KiCad 8.0.3} date 2024-06-22T23:36:34-0500
; FORMAT={-:-/ absolute / inch / decimal}
; #@! TF.CreationDate,2024-06-22T23:36:34-05:00
; #@! TF.GenerationSoftware,Kicad,Pcbnew,8.0.3
; #@! TF.FileFunction,Plated,1,2,PTH
FMAT,2
INCH
; #@! TA.AperFunction,Plated,PTH,ViaDrill
T1C0.0118
; #@! TA.AperFunction,Plated,PTH,ComponentDrill
T2C0.0394
; #@! TA.AperFunction,Plated,PTH,ComponentDrill
T3C0.0472
; #@! TA.AperFunction,Plated,PTH,ComponentDrill
T4C0.1220
; #@! TA.AperFunction,Plated,PTH,ComponentDrill
T5C0.1260
%
G90
G05
T1
X4.3622Y-3.8031
X4.4488Y-3.937
X4.4882Y-3.1339
X4.5276Y-3.8583
X4.5512Y-3.0
X4.5669Y-3.9843
X4.6535Y-3.8661
X4.6535Y-4.0945
X4.7087Y-3.3701
X4.7323Y-3.8031
X4.7559Y-2.8696
X4.7717Y-3.1767
X4.8031Y-4.0472
X4.8583Y-3.7953
X4.9055Y-4.0945
X4.9719Y-3.72
X5.0157Y-3.3071
X5.0315Y-2.9956
X5.0315Y-3.8976
X5.0315Y-4.1654
X5.1339Y-3.3071
X5.1969Y-3.5433
X5.2441Y-3.4252
X5.252Y-3.6693
X5.3858Y-3.5669
X5.3858Y-3.6181
T2
X4.2362Y-3.0016
X4.2362Y-3.1016
X4.2362Y-3.2016
X4.2362Y-3.3016
X4.2362Y-3.4016
X4.2362Y-3.5016
X4.2362Y-3.6016
X4.2362Y-3.7016
X4.2362Y-3.8016
X4.2362Y-3.9016
T3
X5.702Y-3.4567
X6.802Y-3.4567
T4
X5.8642Y-3.0256
X5.8642Y-3.9528
X6.5669Y-3.0256
X6.5669Y-3.9528
T5
X4.3307Y-2.7953
X4.3307Y-4.0945
X7.0866Y-2.7953
X7.0866Y-4.0945
M30
