%TF.GenerationSoftware,KiCad,Pcbnew,8.0.3*%
%TF.CreationDate,2024-06-22T23:36:34-05:00*%
%TF.ProjectId,Ematch2,456d6174-6368-4322-9e6b-696361645f70,rev?*%
%TF.SameCoordinates,Original*%
%TF.FileFunction,Copper,L1,Top*%
%TF.FilePolarity,Positive*%
%FSLAX46Y46*%
G04 Gerber Fmt 4.6, Leading zero omitted, Abs format (unit mm)*
G04 Created by KiCad (PCBNEW 8.0.3) date 2024-06-22 23:36:34*
%MOMM*%
%LPD*%
G01*
G04 APERTURE LIST*
G04 Aperture macros list*
%AMRoundRect*
0 Rectangle with rounded corners*
0 $1 Rounding radius*
0 $2 $3 $4 $5 $6 $7 $8 $9 X,Y pos of 4 corners*
0 Add a 4 corners polygon primitive as box body*
4,1,4,$2,$3,$4,$5,$6,$7,$8,$9,$2,$3,0*
0 Add four circle primitives for the rounded corners*
1,1,$1+$1,$2,$3*
1,1,$1+$1,$4,$5*
1,1,$1+$1,$6,$7*
1,1,$1+$1,$8,$9*
0 Add four rect primitives between the rounded corners*
20,1,$1+$1,$2,$3,$4,$5,0*
20,1,$1+$1,$4,$5,$6,$7,0*
20,1,$1+$1,$6,$7,$8,$9,0*
20,1,$1+$1,$8,$9,$2,$3,0*%
G04 Aperture macros list end*
%TA.AperFunction,ComponentPad*%
%ADD10C,7.500000*%
%TD*%
%TA.AperFunction,SMDPad,CuDef*%
%ADD11RoundRect,0.250000X0.450000X-0.262500X0.450000X0.262500X-0.450000X0.262500X-0.450000X-0.262500X0*%
%TD*%
%TA.AperFunction,SMDPad,CuDef*%
%ADD12RoundRect,0.250000X-0.450000X0.262500X-0.450000X-0.262500X0.450000X-0.262500X0.450000X0.262500X0*%
%TD*%
%TA.AperFunction,SMDPad,CuDef*%
%ADD13RoundRect,0.150000X0.150000X-0.587500X0.150000X0.587500X-0.150000X0.587500X-0.150000X-0.587500X0*%
%TD*%
%TA.AperFunction,SMDPad,CuDef*%
%ADD14RoundRect,0.243750X0.456250X-0.243750X0.456250X0.243750X-0.456250X0.243750X-0.456250X-0.243750X0*%
%TD*%
%TA.AperFunction,SMDPad,CuDef*%
%ADD15R,1.000000X1.000000*%
%TD*%
%TA.AperFunction,ComponentPad*%
%ADD16C,5.700000*%
%TD*%
%TA.AperFunction,SMDPad,CuDef*%
%ADD17RoundRect,0.150000X-0.587500X-0.150000X0.587500X-0.150000X0.587500X0.150000X-0.587500X0.150000X0*%
%TD*%
%TA.AperFunction,ComponentPad*%
%ADD18C,2.400000*%
%TD*%
%TA.AperFunction,ComponentPad*%
%ADD19O,2.400000X2.400000*%
%TD*%
%TA.AperFunction,SMDPad,CuDef*%
%ADD20RoundRect,0.150000X-0.150000X0.587500X-0.150000X-0.587500X0.150000X-0.587500X0.150000X0.587500X0*%
%TD*%
%TA.AperFunction,ComponentPad*%
%ADD21R,1.700000X1.700000*%
%TD*%
%TA.AperFunction,ComponentPad*%
%ADD22O,1.700000X1.700000*%
%TD*%
%TA.AperFunction,SMDPad,CuDef*%
%ADD23RoundRect,0.200000X-0.250000X-0.200000X0.250000X-0.200000X0.250000X0.200000X-0.250000X0.200000X0*%
%TD*%
%TA.AperFunction,SMDPad,CuDef*%
%ADD24RoundRect,0.200000X0.250000X0.200000X-0.250000X0.200000X-0.250000X-0.200000X0.250000X-0.200000X0*%
%TD*%
%TA.AperFunction,ViaPad*%
%ADD25C,0.600000*%
%TD*%
%TA.AperFunction,Conductor*%
%ADD26C,0.200000*%
%TD*%
%TA.AperFunction,Conductor*%
%ADD27C,1.000000*%
%TD*%
%TA.AperFunction,Conductor*%
%ADD28C,0.600000*%
%TD*%
%TA.AperFunction,Conductor*%
%ADD29C,0.800000*%
%TD*%
G04 APERTURE END LIST*
D10*
%TO.P,CLIP1,1,1*%
%TO.N,/ECOMMON*%
X148950000Y-76850000D03*
%TD*%
D11*
%TO.P,R6,1*%
%TO.N,ARM_SENSE*%
X124600000Y-87000000D03*
%TO.P,R6,2*%
%TO.N,V_ARM*%
X124600000Y-85175000D03*
%TD*%
D12*
%TO.P,R3,1*%
%TO.N,Net-(Q1-G)*%
X125400000Y-77375000D03*
%TO.P,R3,2*%
%TO.N,CHECK*%
X125400000Y-79200000D03*
%TD*%
%TO.P,R7,1*%
%TO.N,GND*%
X127400000Y-85175000D03*
%TO.P,R7,2*%
%TO.N,ARM_SENSE*%
X127400000Y-87000000D03*
%TD*%
D10*
%TO.P,CLIP4,1,1*%
%TO.N,Net-(Q6-D)*%
X166800000Y-100400000D03*
%TD*%
D12*
%TO.P,R16,1*%
%TO.N,GND*%
X119600000Y-98175000D03*
%TO.P,R16,2*%
%TO.N,Net-(LED4-K)*%
X119600000Y-100000000D03*
%TD*%
D11*
%TO.P,R2,1*%
%TO.N,GND*%
X130400000Y-79200000D03*
%TO.P,R2,2*%
%TO.N,Net-(Q1-D)*%
X130400000Y-77375000D03*
%TD*%
%TO.P,R8,1*%
%TO.N,/FGATE*%
X132050000Y-93112500D03*
%TO.P,R8,2*%
%TO.N,V_ARM*%
X132050000Y-91287500D03*
%TD*%
D13*
%TO.P,Q4,1,B*%
%TO.N,Net-(Q4-B)*%
X124337500Y-93025000D03*
%TO.P,Q4,2,E*%
%TO.N,GND*%
X126237500Y-93025000D03*
%TO.P,Q4,3,C*%
%TO.N,Net-(Q4-C)*%
X125287500Y-91150000D03*
%TD*%
D12*
%TO.P,R13,1*%
%TO.N,GND*%
X119600000Y-103887500D03*
%TO.P,R13,2*%
%TO.N,Net-(LED3-K)*%
X119600000Y-105712500D03*
%TD*%
D14*
%TO.P,LED1,1,K*%
%TO.N,Net-(LED1-K)*%
X118600000Y-80825000D03*
%TO.P,LED1,2,A*%
%TO.N,CHECK*%
X118600000Y-78950000D03*
%TD*%
D11*
%TO.P,R15,1*%
%TO.N,CUE0*%
X129400000Y-105800000D03*
%TO.P,R15,2*%
%TO.N,Net-(Q5-G)*%
X129400000Y-103975000D03*
%TD*%
D15*
%TO.P,TP2,1,1*%
%TO.N,/FGATE*%
X141600000Y-94400000D03*
%TD*%
D16*
%TO.P,REF\u002A\u002A,1*%
%TO.N,N/C*%
X180000000Y-104000000D03*
%TD*%
D17*
%TO.P,Q5,1,G*%
%TO.N,Net-(Q5-G)*%
X132662500Y-103850000D03*
%TO.P,Q5,2,S*%
%TO.N,GND2*%
X132662500Y-105750000D03*
%TO.P,Q5,3,D*%
%TO.N,Net-(Q5-D)*%
X134537500Y-104800000D03*
%TD*%
%TO.P,Q6,1,G*%
%TO.N,Net-(Q6-G)*%
X132400000Y-97050000D03*
%TO.P,Q6,2,S*%
%TO.N,GND2*%
X132400000Y-98950000D03*
%TO.P,Q6,3,D*%
%TO.N,Net-(Q6-D)*%
X134275000Y-98000000D03*
%TD*%
D11*
%TO.P,R9,1*%
%TO.N,GND*%
X134700000Y-93125000D03*
%TO.P,R9,2*%
%TO.N,V_ARM*%
X134700000Y-91300000D03*
%TD*%
D12*
%TO.P,R11,1*%
%TO.N,FIRE_ENA*%
X120887500Y-91287500D03*
%TO.P,R11,2*%
%TO.N,Net-(Q4-B)*%
X120887500Y-93112500D03*
%TD*%
D10*
%TO.P,CLIP2,1,1*%
%TO.N,/ECOMMON*%
X166800000Y-76850000D03*
%TD*%
D12*
%TO.P,R1,1*%
%TO.N,+3V3*%
X118200000Y-73975000D03*
%TO.P,R1,2*%
%TO.N,SENSE*%
X118200000Y-75800000D03*
%TD*%
D11*
%TO.P,C1,1*%
%TO.N,SENSE*%
X120800000Y-75800000D03*
%TO.P,C1,2*%
%TO.N,GND*%
X120800000Y-73975000D03*
%TD*%
%TO.P,R18,1*%
%TO.N,CUE1*%
X129400000Y-99000000D03*
%TO.P,R18,2*%
%TO.N,Net-(Q6-G)*%
X129400000Y-97175000D03*
%TD*%
D14*
%TO.P,LED2,1,K*%
%TO.N,Net-(LED2-K)*%
X118200000Y-87537500D03*
%TO.P,LED2,2,A*%
%TO.N,FIRE_ENA*%
X118200000Y-85662500D03*
%TD*%
D15*
%TO.P,TP1,1,1*%
%TO.N,Net-(Q7-S)*%
X141600000Y-91000000D03*
%TD*%
D14*
%TO.P,LED4,1,K*%
%TO.N,Net-(LED4-K)*%
X116400000Y-99975000D03*
%TO.P,LED4,2,A*%
%TO.N,CUE1*%
X116400000Y-98100000D03*
%TD*%
D18*
%TO.P,R19,1*%
%TO.N,/ECOMMON*%
X172770000Y-87800000D03*
D19*
%TO.P,R19,2*%
%TO.N,Net-(Q7-S)*%
X144830000Y-87800000D03*
%TD*%
D10*
%TO.P,CLIP3,1,1*%
%TO.N,Net-(Q5-D)*%
X148950000Y-100400000D03*
%TD*%
D11*
%TO.P,R14,1*%
%TO.N,GND*%
X126450000Y-105800000D03*
%TO.P,R14,2*%
%TO.N,CUE0*%
X126450000Y-103975000D03*
%TD*%
D20*
%TO.P,Q1,1,G*%
%TO.N,Net-(Q1-G)*%
X125200000Y-71612500D03*
%TO.P,Q1,2,S*%
%TO.N,SENSE*%
X123300000Y-71612500D03*
%TO.P,Q1,3,D*%
%TO.N,Net-(Q1-D)*%
X124250000Y-73487500D03*
%TD*%
D16*
%TO.P,REF\u002A\u002A,1*%
%TO.N,N/C*%
X180000000Y-71000000D03*
%TD*%
D14*
%TO.P,LED3,1,K*%
%TO.N,Net-(LED3-K)*%
X116487500Y-105687500D03*
%TO.P,LED3,2,A*%
%TO.N,CUE0*%
X116487500Y-103812500D03*
%TD*%
D13*
%TO.P,Q2,1,G*%
%TO.N,Net-(Q1-G)*%
X127850000Y-73425000D03*
%TO.P,Q2,2,S*%
%TO.N,/ECOMMON*%
X129750000Y-73425000D03*
%TO.P,Q2,3,D*%
%TO.N,Net-(Q1-D)*%
X128800000Y-71550000D03*
%TD*%
%TO.P,D1,1,A*%
%TO.N,/FGATE*%
X137100000Y-93200000D03*
%TO.P,D1,2,NC*%
%TO.N,unconnected-(D1-NC-Pad2)*%
X139000000Y-93200000D03*
%TO.P,D1,3,K*%
%TO.N,V_ARM*%
X138050000Y-91325000D03*
%TD*%
D12*
%TO.P,R4,1*%
%TO.N,GND*%
X127800000Y-77262500D03*
%TO.P,R4,2*%
%TO.N,CHECK*%
X127800000Y-79087500D03*
%TD*%
D11*
%TO.P,R5,1*%
%TO.N,GND*%
X122600000Y-80600000D03*
%TO.P,R5,2*%
%TO.N,Net-(LED1-K)*%
X122600000Y-78775000D03*
%TD*%
D12*
%TO.P,R12,1*%
%TO.N,GND*%
X121000000Y-85775000D03*
%TO.P,R12,2*%
%TO.N,Net-(LED2-K)*%
X121000000Y-87600000D03*
%TD*%
D11*
%TO.P,C2,1*%
%TO.N,ARM_SENSE*%
X130400000Y-87000000D03*
%TO.P,C2,2*%
%TO.N,GND*%
X130400000Y-85175000D03*
%TD*%
D21*
%TO.P,J1,1,Pin_1*%
%TO.N,+3V3*%
X107600000Y-76240000D03*
D22*
%TO.P,J1,2,Pin_2*%
%TO.N,CHECK*%
X107600000Y-78780000D03*
%TO.P,J1,3,Pin_3*%
%TO.N,SENSE*%
X107600000Y-81320000D03*
%TO.P,J1,4,Pin_4*%
%TO.N,V_ARM*%
X107600000Y-83860000D03*
%TO.P,J1,5,Pin_5*%
%TO.N,ARM_SENSE*%
X107600000Y-86400000D03*
%TO.P,J1,6,Pin_6*%
%TO.N,FIRE_ENA*%
X107600000Y-88940000D03*
%TO.P,J1,7,Pin_7*%
%TO.N,CUE0*%
X107600000Y-91480000D03*
%TO.P,J1,8,Pin_8*%
%TO.N,CUE1*%
X107600000Y-94020000D03*
%TO.P,J1,9,Pin_9*%
%TO.N,GND*%
X107600000Y-96560000D03*
%TO.P,J1,10,Pin_10*%
%TO.N,GND2*%
X107600000Y-99100000D03*
%TD*%
D11*
%TO.P,R17,1*%
%TO.N,GND*%
X126450000Y-99000000D03*
%TO.P,R17,2*%
%TO.N,CUE1*%
X126450000Y-97175000D03*
%TD*%
D16*
%TO.P,REF\u002A\u002A,1*%
%TO.N,N/C*%
X110000000Y-71000000D03*
%TD*%
D12*
%TO.P,R10,1*%
%TO.N,Net-(Q4-C)*%
X129087500Y-91175000D03*
%TO.P,R10,2*%
%TO.N,/FGATE*%
X129087500Y-93000000D03*
%TD*%
D23*
%TO.P,Q3,1,G*%
%TO.N,/FGATE*%
X134800000Y-85450000D03*
%TO.P,Q3,2,S*%
%TO.N,V_ARM*%
X134800000Y-87350000D03*
%TO.P,Q3,3,D*%
%TO.N,Net-(Q3-D)*%
X137200000Y-86400000D03*
%TD*%
D24*
%TO.P,Q7,1,G*%
%TO.N,/FGATE*%
X141600000Y-87350000D03*
%TO.P,Q7,2,S*%
%TO.N,Net-(Q7-S)*%
X141600000Y-85450000D03*
%TO.P,Q7,3,D*%
%TO.N,Net-(Q3-D)*%
X139200000Y-86400000D03*
%TD*%
D16*
%TO.P,REF\u002A\u002A,1*%
%TO.N,N/C*%
X110000000Y-104000000D03*
%TD*%
D25*
%TO.N,GND*%
X118200000Y-98200000D03*
X133400000Y-93200000D03*
X119600000Y-85600000D03*
X120800000Y-72887500D03*
X113000000Y-100000000D03*
X127800000Y-99000000D03*
X127800000Y-76087500D03*
X127400000Y-84000000D03*
X118200000Y-104000000D03*
X110800000Y-96600000D03*
X126287500Y-94487500D03*
X127800000Y-105800000D03*
X121200000Y-80687500D03*
X130400000Y-84000000D03*
%TO.N,SENSE*%
X114000000Y-79600000D03*
X115600000Y-76200000D03*
%TO.N,V_ARM*%
X133200000Y-87000000D03*
X132000000Y-90000000D03*
%TO.N,/FGATE*%
X136800000Y-91900000D03*
X136800000Y-90600000D03*
%TO.N,CUE0*%
X122000000Y-102800000D03*
X116000000Y-101200000D03*
X124600000Y-104000000D03*
%TO.N,CUE1*%
X115000000Y-98000000D03*
X120200000Y-96600000D03*
X123400000Y-96400000D03*
%TD*%
D26*
%TO.N,GND*%
X107600000Y-96560000D02*
X110760000Y-96560000D01*
X119775000Y-85775000D02*
X119600000Y-85600000D01*
X130400000Y-79200000D02*
X129737500Y-79200000D01*
X134700000Y-93125000D02*
X133475000Y-93125000D01*
X130400000Y-85175000D02*
X130400000Y-84000000D01*
X120800000Y-73975000D02*
X120800000Y-72887500D01*
X133475000Y-93125000D02*
X133400000Y-93200000D01*
X119600000Y-103887500D02*
X118312500Y-103887500D01*
X126237500Y-94437500D02*
X126287500Y-94487500D01*
X127800000Y-77262500D02*
X127800000Y-76087500D01*
X127400000Y-85175000D02*
X127400000Y-84000000D01*
X118312500Y-103887500D02*
X118200000Y-104000000D01*
X121287500Y-80600000D02*
X121200000Y-80687500D01*
X126450000Y-99000000D02*
X127800000Y-99000000D01*
X118225000Y-98175000D02*
X118200000Y-98200000D01*
X126237500Y-93025000D02*
X126237500Y-94437500D01*
X126450000Y-105800000D02*
X127800000Y-105800000D01*
X110760000Y-96560000D02*
X110800000Y-96600000D01*
X129737500Y-79200000D02*
X127800000Y-77262500D01*
X121000000Y-85775000D02*
X119775000Y-85775000D01*
X119600000Y-98175000D02*
X118225000Y-98175000D01*
X122600000Y-80600000D02*
X121287500Y-80600000D01*
%TO.N,SENSE*%
X120800000Y-75800000D02*
X121687500Y-75800000D01*
X107600000Y-81320000D02*
X112280000Y-81320000D01*
X115600000Y-76200000D02*
X116000000Y-75800000D01*
X112280000Y-81320000D02*
X114000000Y-79600000D01*
X118200000Y-75800000D02*
X120800000Y-75800000D01*
X121687500Y-75800000D02*
X123300000Y-74187500D01*
X116000000Y-75800000D02*
X118200000Y-75800000D01*
X123300000Y-74187500D02*
X123300000Y-71612500D01*
%TO.N,Net-(LED1-K)*%
X118600000Y-80825000D02*
X119462500Y-80825000D01*
X121512500Y-78775000D02*
X122600000Y-78775000D01*
X119462500Y-80825000D02*
X121512500Y-78775000D01*
%TO.N,CHECK*%
X124000000Y-77800000D02*
X125400000Y-79200000D01*
X120262500Y-77287500D02*
X118600000Y-78950000D01*
X124000000Y-77487500D02*
X124000000Y-77800000D01*
X107600000Y-78780000D02*
X118430000Y-78780000D01*
X125400000Y-79200000D02*
X127687500Y-79200000D01*
X120262500Y-77287500D02*
X123800000Y-77287500D01*
X123800000Y-77287500D02*
X124000000Y-77487500D01*
%TO.N,Net-(Q1-G)*%
X125200000Y-73087500D02*
X125200000Y-71612500D01*
X125400000Y-73287500D02*
X125200000Y-73087500D01*
X127012500Y-73425000D02*
X127850000Y-73425000D01*
X125200000Y-71612500D02*
X127012500Y-73425000D01*
X125400000Y-77375000D02*
X125400000Y-73287500D01*
%TO.N,Net-(Q1-D)*%
X124250000Y-73487500D02*
X124250000Y-70437500D01*
X124400000Y-70287500D02*
X127537500Y-70287500D01*
X127537500Y-70287500D02*
X128800000Y-71550000D01*
X130400000Y-77375000D02*
X130400000Y-76887500D01*
X130400000Y-76887500D02*
X128800000Y-75287500D01*
X128800000Y-75287500D02*
X128800000Y-71550000D01*
X124250000Y-70437500D02*
X124400000Y-70287500D01*
D27*
%TO.N,/ECOMMON*%
X134800000Y-73400000D02*
X138250000Y-76850000D01*
X172770000Y-82820000D02*
X172770000Y-87800000D01*
X129750000Y-73425000D02*
X134775000Y-73425000D01*
X134775000Y-73425000D02*
X134800000Y-73400000D01*
X166800000Y-76850000D02*
X172770000Y-82820000D01*
X148950000Y-76850000D02*
X166800000Y-76850000D01*
X138250000Y-76850000D02*
X148950000Y-76850000D01*
D26*
%TO.N,+3V3*%
X113450000Y-74150000D02*
X111360000Y-76240000D01*
X111360000Y-76240000D02*
X107600000Y-76240000D01*
X118025000Y-74150000D02*
X113450000Y-74150000D01*
%TO.N,ARM_SENSE*%
X117580000Y-83820000D02*
X120200000Y-83820000D01*
X124296762Y-87000000D02*
X124600000Y-87000000D01*
X107600000Y-86400000D02*
X115000000Y-86400000D01*
X121116762Y-83820000D02*
X124296762Y-87000000D01*
X124600000Y-87000000D02*
X130400000Y-87000000D01*
X115000000Y-86400000D02*
X117580000Y-83820000D01*
X120200000Y-83820000D02*
X121116762Y-83820000D01*
D28*
%TO.N,V_ARM*%
X113140000Y-83860000D02*
X107600000Y-83860000D01*
D26*
X132050000Y-91287500D02*
X134687500Y-91287500D01*
D28*
X125200000Y-82800000D02*
X124600000Y-82800000D01*
X133200000Y-86400000D02*
X133200000Y-87000000D01*
X124600000Y-82800000D02*
X124600000Y-85175000D01*
X124600000Y-82800000D02*
X114200000Y-82800000D01*
X133550000Y-87350000D02*
X133200000Y-87000000D01*
X134800000Y-87350000D02*
X133550000Y-87350000D01*
X114200000Y-82800000D02*
X113140000Y-83860000D01*
X133200000Y-83600000D02*
X133200000Y-86400000D01*
D26*
X132050000Y-91287500D02*
X132050000Y-90050000D01*
D28*
X129200000Y-82800000D02*
X125200000Y-82800000D01*
X132400000Y-82800000D02*
X133200000Y-83600000D01*
D26*
X132050000Y-90050000D02*
X132000000Y-90000000D01*
X134700000Y-91300000D02*
X138025000Y-91300000D01*
D28*
X129200000Y-82800000D02*
X132400000Y-82800000D01*
D26*
%TO.N,/FGATE*%
X134850000Y-85450000D02*
X136200000Y-86800000D01*
X141600000Y-87350000D02*
X141600000Y-87600000D01*
X141600000Y-87600000D02*
X140600000Y-88600000D01*
X132050000Y-93112500D02*
X132050000Y-93850000D01*
X136800000Y-91900000D02*
X136800000Y-92900000D01*
X140600000Y-88600000D02*
X138800000Y-88600000D01*
X137100000Y-93200000D02*
X138300000Y-94400000D01*
X132050000Y-93850000D02*
X132600000Y-94400000D01*
X138800000Y-88600000D02*
X136800000Y-90600000D01*
X136200000Y-86800000D02*
X136200000Y-90000000D01*
X136200000Y-90000000D02*
X136800000Y-90600000D01*
X135900000Y-94400000D02*
X137100000Y-93200000D01*
X136800000Y-92900000D02*
X137100000Y-93200000D01*
X129087500Y-93000000D02*
X131937500Y-93000000D01*
X138300000Y-94400000D02*
X141600000Y-94400000D01*
X132600000Y-94400000D02*
X135900000Y-94400000D01*
D29*
%TO.N,Net-(Q5-D)*%
X140600000Y-100400000D02*
X148950000Y-100400000D01*
X136200000Y-104800000D02*
X140600000Y-100400000D01*
X134537500Y-104800000D02*
X136200000Y-104800000D01*
%TO.N,Net-(Q6-D)*%
X146400000Y-94000000D02*
X160400000Y-94000000D01*
X160400000Y-94000000D02*
X166800000Y-100400000D01*
X142400000Y-98000000D02*
X146400000Y-94000000D01*
X134275000Y-98000000D02*
X142400000Y-98000000D01*
D26*
%TO.N,FIRE_ENA*%
X122817157Y-88582843D02*
X120887500Y-90512500D01*
X118600000Y-84400000D02*
X121200000Y-84400000D01*
X118200000Y-85662500D02*
X116337500Y-85662500D01*
X120887500Y-90512500D02*
X120887500Y-91287500D01*
X113060000Y-88940000D02*
X116337500Y-85662500D01*
X118200000Y-84800000D02*
X118600000Y-84400000D01*
X122817157Y-85982843D02*
X122817157Y-88582843D01*
X107600000Y-88940000D02*
X113060000Y-88940000D01*
X121200000Y-84400000D02*
X121800000Y-85000000D01*
X121834314Y-85000000D02*
X122817157Y-85982843D01*
X121800000Y-85000000D02*
X121834314Y-85000000D01*
X118200000Y-85662500D02*
X118200000Y-84800000D01*
%TO.N,Net-(LED2-K)*%
X118200000Y-87537500D02*
X120937500Y-87537500D01*
%TO.N,Net-(Q4-C)*%
X125287500Y-91150000D02*
X129062500Y-91150000D01*
%TO.N,Net-(Q4-B)*%
X120887500Y-93112500D02*
X124250000Y-93112500D01*
%TO.N,CUE0*%
X127575000Y-103975000D02*
X129400000Y-105800000D01*
X117500000Y-102800000D02*
X116487500Y-103812500D01*
X126450000Y-103975000D02*
X124625000Y-103975000D01*
X116487500Y-103812500D02*
X116000000Y-103325000D01*
X124625000Y-103975000D02*
X124600000Y-104000000D01*
X126450000Y-103975000D02*
X127575000Y-103975000D01*
X116000000Y-103325000D02*
X116000000Y-101200000D01*
X122000000Y-102800000D02*
X117500000Y-102800000D01*
%TO.N,CUE1*%
X120200000Y-96600000D02*
X117900000Y-96600000D01*
X124175000Y-97175000D02*
X123400000Y-96400000D01*
X126450000Y-97175000D02*
X124175000Y-97175000D01*
X117900000Y-96600000D02*
X116400000Y-98100000D01*
X126450000Y-97175000D02*
X127575000Y-97175000D01*
X115000000Y-98000000D02*
X116300000Y-98000000D01*
X127575000Y-97175000D02*
X129400000Y-99000000D01*
%TO.N,Net-(LED3-K)*%
X116487500Y-105687500D02*
X119575000Y-105687500D01*
%TO.N,Net-(LED4-K)*%
X116400000Y-99975000D02*
X119175000Y-99975000D01*
D28*
%TO.N,Net-(Q3-D)*%
X137200000Y-86400000D02*
X139200000Y-86400000D01*
D26*
%TO.N,Net-(Q5-G)*%
X129400000Y-103975000D02*
X132537500Y-103975000D01*
%TO.N,Net-(Q6-G)*%
X129400000Y-97175000D02*
X132275000Y-97175000D01*
D28*
%TO.N,Net-(Q7-S)*%
X143200000Y-91000000D02*
X141600000Y-91000000D01*
X144830000Y-87800000D02*
X144830000Y-89370000D01*
X144830000Y-86630000D02*
X144830000Y-87800000D01*
X141600000Y-85450000D02*
X143650000Y-85450000D01*
X144830000Y-89370000D02*
X143200000Y-91000000D01*
X143650000Y-85450000D02*
X144830000Y-86630000D01*
D29*
%TO.N,GND2*%
X123600000Y-100800000D02*
X131600000Y-100800000D01*
X131600000Y-100800000D02*
X132400000Y-100000000D01*
X107600000Y-99100000D02*
X111500000Y-99100000D01*
X120800000Y-95200000D02*
X123600000Y-98000000D01*
X123600000Y-98000000D02*
X123600000Y-100800000D01*
X132400000Y-100000000D02*
X132400000Y-98950000D01*
X115400000Y-95200000D02*
X120800000Y-95200000D01*
X132662500Y-106600000D02*
X132662500Y-105750000D01*
X131725000Y-107537500D02*
X132662500Y-106600000D01*
X124937500Y-107537500D02*
X131725000Y-107537500D01*
X111500000Y-99100000D02*
X115400000Y-95200000D01*
X123600000Y-100800000D02*
X123600000Y-106200000D01*
X123600000Y-106200000D02*
X124937500Y-107537500D01*
%TD*%
%TA.AperFunction,Conductor*%
%TO.N,GND*%
G36*
X180002702Y-66500617D02*
G01*
X180386771Y-66517386D01*
X180397506Y-66518326D01*
X180775971Y-66568152D01*
X180786597Y-66570025D01*
X181159284Y-66652648D01*
X181169710Y-66655442D01*
X181533765Y-66770227D01*
X181543911Y-66773920D01*
X181896578Y-66920000D01*
X181906369Y-66924566D01*
X182244942Y-67100816D01*
X182254310Y-67106224D01*
X182576244Y-67311318D01*
X182585105Y-67317523D01*
X182887930Y-67549889D01*
X182896217Y-67556843D01*
X183177635Y-67814715D01*
X183185284Y-67822364D01*
X183443156Y-68103782D01*
X183450110Y-68112069D01*
X183682476Y-68414894D01*
X183688681Y-68423755D01*
X183893775Y-68745689D01*
X183899183Y-68755057D01*
X184075430Y-69093623D01*
X184080002Y-69103427D01*
X184226075Y-69456078D01*
X184229775Y-69466244D01*
X184344554Y-69830278D01*
X184347354Y-69840727D01*
X184429971Y-70213389D01*
X184431849Y-70224042D01*
X184481671Y-70602473D01*
X184482614Y-70613249D01*
X184499382Y-70997297D01*
X184499500Y-71002706D01*
X184499500Y-103997293D01*
X184499382Y-104002702D01*
X184482614Y-104386750D01*
X184481671Y-104397526D01*
X184431849Y-104775957D01*
X184429971Y-104786610D01*
X184347354Y-105159272D01*
X184344554Y-105169721D01*
X184229775Y-105533755D01*
X184226075Y-105543921D01*
X184080002Y-105896572D01*
X184075430Y-105906376D01*
X183899183Y-106244942D01*
X183893775Y-106254310D01*
X183688681Y-106576244D01*
X183682476Y-106585105D01*
X183450110Y-106887930D01*
X183443156Y-106896217D01*
X183185284Y-107177635D01*
X183177635Y-107185284D01*
X182896217Y-107443156D01*
X182887930Y-107450110D01*
X182585105Y-107682476D01*
X182576244Y-107688681D01*
X182254310Y-107893775D01*
X182244942Y-107899183D01*
X181906376Y-108075430D01*
X181896572Y-108080002D01*
X181543921Y-108226075D01*
X181533755Y-108229775D01*
X181169721Y-108344554D01*
X181159272Y-108347354D01*
X180786610Y-108429971D01*
X180775957Y-108431849D01*
X180397526Y-108481671D01*
X180386750Y-108482614D01*
X180002703Y-108499382D01*
X179997294Y-108499500D01*
X132314894Y-108499500D01*
X132247855Y-108479815D01*
X132202100Y-108427011D01*
X132192156Y-108357853D01*
X132221181Y-108294297D01*
X132246005Y-108272397D01*
X132299033Y-108236966D01*
X132299032Y-108236966D01*
X132299036Y-108236964D01*
X133361964Y-107174036D01*
X133411099Y-107100500D01*
X133460513Y-107026547D01*
X133513152Y-106899464D01*
X133528395Y-106862666D01*
X133563000Y-106688692D01*
X133563000Y-106541363D01*
X133582685Y-106474324D01*
X133623876Y-106434632D01*
X133651865Y-106418081D01*
X133768081Y-106301865D01*
X133851744Y-106160398D01*
X133889450Y-106030613D01*
X133897597Y-106002573D01*
X133897598Y-106002567D01*
X133900499Y-105965701D01*
X133900500Y-105965694D01*
X133900500Y-105724500D01*
X133920185Y-105657461D01*
X133972989Y-105611706D01*
X134024500Y-105600500D01*
X134092293Y-105600500D01*
X134139745Y-105609939D01*
X134274834Y-105665894D01*
X134274836Y-105665894D01*
X134274841Y-105665896D01*
X134448804Y-105700499D01*
X134448807Y-105700500D01*
X134448809Y-105700500D01*
X136288693Y-105700500D01*
X136288694Y-105700499D01*
X136462666Y-105665895D01*
X136544606Y-105631953D01*
X136626547Y-105598013D01*
X136721891Y-105534306D01*
X136774036Y-105499464D01*
X140936680Y-101336818D01*
X140998003Y-101303334D01*
X141024361Y-101300500D01*
X144697153Y-101300500D01*
X144764192Y-101320185D01*
X144809947Y-101372989D01*
X144817658Y-101395266D01*
X144867050Y-101598863D01*
X144867053Y-101598874D01*
X144999492Y-101981533D01*
X144999494Y-101981537D01*
X145167717Y-102349892D01*
X145167725Y-102349908D01*
X145370200Y-102700606D01*
X145370206Y-102700614D01*
X145605083Y-103030452D01*
X145605092Y-103030462D01*
X145605093Y-103030464D01*
X145870280Y-103336507D01*
X146163358Y-103615956D01*
X146481672Y-103866281D01*
X146822340Y-104085215D01*
X147182276Y-104270775D01*
X147182281Y-104270777D01*
X147182283Y-104270778D01*
X147262013Y-104302697D01*
X147558221Y-104421281D01*
X147946770Y-104535369D01*
X148154989Y-104575500D01*
X148343429Y-104611819D01*
X148344405Y-104612007D01*
X148747524Y-104650500D01*
X148747530Y-104650500D01*
X149152470Y-104650500D01*
X149152476Y-104650500D01*
X149555595Y-104612007D01*
X149953230Y-104535369D01*
X150341779Y-104421281D01*
X150717724Y-104270775D01*
X151077660Y-104085215D01*
X151418328Y-103866281D01*
X151736642Y-103615956D01*
X152029720Y-103336507D01*
X152294907Y-103030464D01*
X152296886Y-103027686D01*
X152529793Y-102700614D01*
X152529799Y-102700606D01*
X152529800Y-102700603D01*
X152529803Y-102700600D01*
X152732279Y-102349900D01*
X152900503Y-101981543D01*
X152900505Y-101981536D01*
X152900507Y-101981533D01*
X153032946Y-101598874D01*
X153032946Y-101598871D01*
X153032950Y-101598862D01*
X153128421Y-101205325D01*
X153186052Y-100804494D01*
X153205320Y-100400000D01*
X153186052Y-99995506D01*
X153128421Y-99594675D01*
X153032950Y-99201138D01*
X153023844Y-99174827D01*
X152900507Y-98818466D01*
X152900505Y-98818462D01*
X152895160Y-98806759D01*
X152732279Y-98450100D01*
X152702201Y-98398004D01*
X152529799Y-98099393D01*
X152529793Y-98099385D01*
X152294916Y-97769547D01*
X152294905Y-97769534D01*
X152290922Y-97764937D01*
X152029720Y-97463493D01*
X151736642Y-97184044D01*
X151418328Y-96933719D01*
X151077660Y-96714785D01*
X150717724Y-96529225D01*
X150717723Y-96529224D01*
X150717720Y-96529223D01*
X150717716Y-96529221D01*
X150341780Y-96378719D01*
X150341768Y-96378715D01*
X149953235Y-96264632D01*
X149953218Y-96264628D01*
X149555610Y-96187995D01*
X149555598Y-96187993D01*
X149398465Y-96172989D01*
X149152476Y-96149500D01*
X148747524Y-96149500D01*
X148506656Y-96172500D01*
X148344401Y-96187993D01*
X148344389Y-96187995D01*
X147946781Y-96264628D01*
X147946764Y-96264632D01*
X147558231Y-96378715D01*
X147558219Y-96378719D01*
X147182283Y-96529221D01*
X147182279Y-96529223D01*
X146822343Y-96714783D01*
X146481683Y-96933711D01*
X146481676Y-96933716D01*
X146481672Y-96933719D01*
X146301383Y-97075500D01*
X146163359Y-97184043D01*
X146163357Y-97184044D01*
X145870283Y-97463490D01*
X145870281Y-97463492D01*
X145605094Y-97769534D01*
X145605083Y-97769547D01*
X145370206Y-98099385D01*
X145370200Y-98099393D01*
X145167725Y-98450091D01*
X145167717Y-98450107D01*
X144999494Y-98818462D01*
X144999492Y-98818466D01*
X144867053Y-99201125D01*
X144867050Y-99201136D01*
X144817658Y-99404734D01*
X144782723Y-99465243D01*
X144720620Y-99497259D01*
X144697153Y-99499500D01*
X140511304Y-99499500D01*
X140337341Y-99534103D01*
X140337333Y-99534105D01*
X140241228Y-99573914D01*
X140241227Y-99573914D01*
X140173457Y-99601984D01*
X140173455Y-99601985D01*
X140065625Y-99674036D01*
X140065624Y-99674037D01*
X140025962Y-99700537D01*
X140025961Y-99700538D01*
X135863319Y-103863181D01*
X135801996Y-103896666D01*
X135775638Y-103899500D01*
X134448806Y-103899500D01*
X134274841Y-103934103D01*
X134274832Y-103934106D01*
X134139745Y-103990061D01*
X134092293Y-103999500D01*
X134024500Y-103999500D01*
X133957461Y-103979815D01*
X133911706Y-103927011D01*
X133900500Y-103875500D01*
X133900500Y-103634313D01*
X133900499Y-103634298D01*
X133897598Y-103597432D01*
X133897597Y-103597426D01*
X133859589Y-103466603D01*
X133851744Y-103439602D01*
X133768081Y-103298135D01*
X133768079Y-103298133D01*
X133768076Y-103298129D01*
X133651870Y-103181923D01*
X133651862Y-103181917D01*
X133510396Y-103098255D01*
X133510393Y-103098254D01*
X133352573Y-103052402D01*
X133352567Y-103052401D01*
X133315701Y-103049500D01*
X133315694Y-103049500D01*
X132009306Y-103049500D01*
X132009298Y-103049500D01*
X131972432Y-103052401D01*
X131972426Y-103052402D01*
X131814606Y-103098254D01*
X131814603Y-103098255D01*
X131673137Y-103181917D01*
X131673129Y-103181923D01*
X131556923Y-103298129D01*
X131556914Y-103298140D01*
X131547759Y-103313622D01*
X131496689Y-103361305D01*
X131441028Y-103374500D01*
X130592508Y-103374500D01*
X130525469Y-103354815D01*
X130486969Y-103315597D01*
X130478744Y-103302262D01*
X130442712Y-103243844D01*
X130318656Y-103119788D01*
X130173838Y-103030464D01*
X130169336Y-103027687D01*
X130169331Y-103027685D01*
X130167862Y-103027198D01*
X130002797Y-102972501D01*
X130002795Y-102972500D01*
X129900010Y-102962000D01*
X128899998Y-102962000D01*
X128899980Y-102962001D01*
X128797203Y-102972500D01*
X128797200Y-102972501D01*
X128630668Y-103027685D01*
X128630663Y-103027687D01*
X128481342Y-103119789D01*
X128357289Y-103243842D01*
X128265187Y-103393163D01*
X128265185Y-103393168D01*
X128249798Y-103439603D01*
X128223439Y-103519152D01*
X128223193Y-103519893D01*
X128183420Y-103577338D01*
X128118904Y-103604161D01*
X128050129Y-103591846D01*
X128017806Y-103568570D01*
X127943717Y-103494481D01*
X127943709Y-103494475D01*
X127831715Y-103429816D01*
X127831714Y-103429815D01*
X127831714Y-103429816D01*
X127806785Y-103415423D01*
X127792913Y-103411706D01*
X127654057Y-103374499D01*
X127654054Y-103374499D01*
X127642507Y-103374499D01*
X127575468Y-103354814D01*
X127536968Y-103315595D01*
X127492712Y-103243844D01*
X127368657Y-103119789D01*
X127368656Y-103119788D01*
X127223838Y-103030464D01*
X127219336Y-103027687D01*
X127219331Y-103027685D01*
X127217862Y-103027198D01*
X127052797Y-102972501D01*
X127052795Y-102972500D01*
X126950010Y-102962000D01*
X125949998Y-102962000D01*
X125949980Y-102962001D01*
X125847203Y-102972500D01*
X125847200Y-102972501D01*
X125680668Y-103027685D01*
X125680663Y-103027687D01*
X125531342Y-103119789D01*
X125407289Y-103243842D01*
X125363031Y-103315597D01*
X125311083Y-103362321D01*
X125257492Y-103374500D01*
X125144855Y-103374500D01*
X125078883Y-103355494D01*
X124949523Y-103274211D01*
X124779254Y-103214631D01*
X124779250Y-103214630D01*
X124610616Y-103195630D01*
X124546202Y-103168563D01*
X124506647Y-103110968D01*
X124500500Y-103072410D01*
X124500500Y-101824500D01*
X124520185Y-101757461D01*
X124572989Y-101711706D01*
X124624500Y-101700500D01*
X131688693Y-101700500D01*
X131688694Y-101700499D01*
X131862666Y-101665895D01*
X131944606Y-101631953D01*
X132026547Y-101598013D01*
X132026549Y-101598011D01*
X132026552Y-101598010D01*
X132114955Y-101538939D01*
X132114955Y-101538938D01*
X132114959Y-101538936D01*
X132174036Y-101499464D01*
X133099464Y-100574036D01*
X133198013Y-100426547D01*
X133265895Y-100262666D01*
X133300500Y-100088692D01*
X133300500Y-99911308D01*
X133300500Y-99741363D01*
X133320185Y-99674324D01*
X133361376Y-99634632D01*
X133389365Y-99618081D01*
X133505581Y-99501865D01*
X133589244Y-99360398D01*
X133635098Y-99202569D01*
X133638000Y-99165694D01*
X133638000Y-98924500D01*
X133657685Y-98857461D01*
X133710489Y-98811706D01*
X133762000Y-98800500D01*
X133829793Y-98800500D01*
X133877245Y-98809939D01*
X134012334Y-98865894D01*
X134012336Y-98865894D01*
X134012341Y-98865896D01*
X134186304Y-98900499D01*
X134186307Y-98900500D01*
X134186309Y-98900500D01*
X142488693Y-98900500D01*
X142488694Y-98900499D01*
X142662666Y-98865895D01*
X142744606Y-98831953D01*
X142826547Y-98798013D01*
X142921891Y-98734306D01*
X142934636Y-98725790D01*
X142947770Y-98717014D01*
X142974036Y-98699464D01*
X146736680Y-94936818D01*
X146798003Y-94903334D01*
X146824361Y-94900500D01*
X159975638Y-94900500D01*
X160042677Y-94920185D01*
X160063319Y-94936819D01*
X163155004Y-98028504D01*
X163188489Y-98089827D01*
X163183505Y-98159519D01*
X163174710Y-98178185D01*
X163017725Y-98450091D01*
X163017717Y-98450107D01*
X162849494Y-98818462D01*
X162849492Y-98818466D01*
X162717053Y-99201125D01*
X162717050Y-99201136D01*
X162621579Y-99594673D01*
X162563948Y-99995501D01*
X162544680Y-100400000D01*
X162563948Y-100804498D01*
X162621579Y-101205326D01*
X162717050Y-101598863D01*
X162717053Y-101598874D01*
X162849492Y-101981533D01*
X162849494Y-101981537D01*
X163017717Y-102349892D01*
X163017725Y-102349908D01*
X163220200Y-102700606D01*
X163220206Y-102700614D01*
X163455083Y-103030452D01*
X163455092Y-103030462D01*
X163455093Y-103030464D01*
X163720280Y-103336507D01*
X164013358Y-103615956D01*
X164331672Y-103866281D01*
X164672340Y-104085215D01*
X165032276Y-104270775D01*
X165032281Y-104270777D01*
X165032283Y-104270778D01*
X165112013Y-104302697D01*
X165408221Y-104421281D01*
X165796770Y-104535369D01*
X166004989Y-104575500D01*
X166193429Y-104611819D01*
X166194405Y-104612007D01*
X166597524Y-104650500D01*
X166597530Y-104650500D01*
X167002470Y-104650500D01*
X167002476Y-104650500D01*
X167405595Y-104612007D01*
X167803230Y-104535369D01*
X168191779Y-104421281D01*
X168567724Y-104270775D01*
X168927660Y-104085215D01*
X169060262Y-103999997D01*
X176644579Y-103999997D01*
X176644579Y-104000002D01*
X176664248Y-104362782D01*
X176664250Y-104362799D01*
X176723024Y-104721303D01*
X176723030Y-104721329D01*
X176820221Y-105071381D01*
X176820226Y-105071396D01*
X176954700Y-105408901D01*
X176954706Y-105408913D01*
X177124878Y-105729892D01*
X177124884Y-105729901D01*
X177328772Y-106030613D01*
X177552780Y-106294336D01*
X177563979Y-106307521D01*
X177787261Y-106519025D01*
X177827745Y-106557374D01*
X177827755Y-106557382D01*
X177841344Y-106567712D01*
X178116981Y-106777245D01*
X178428292Y-106964555D01*
X178428294Y-106964556D01*
X178428296Y-106964557D01*
X178428300Y-106964559D01*
X178722133Y-107100500D01*
X178758031Y-107117108D01*
X179102330Y-107233116D01*
X179457153Y-107311218D01*
X179818341Y-107350500D01*
X179818347Y-107350500D01*
X180181653Y-107350500D01*
X180181659Y-107350500D01*
X180542847Y-107311218D01*
X180897670Y-107233116D01*
X181241969Y-107117108D01*
X181571708Y-106964555D01*
X181883019Y-106777245D01*
X182172254Y-106557375D01*
X182436021Y-106307521D01*
X182671227Y-106030614D01*
X182875117Y-105729900D01*
X183045298Y-105408905D01*
X183179775Y-105071391D01*
X183200082Y-104998254D01*
X183216719Y-104938330D01*
X183276973Y-104721316D01*
X183318318Y-104469124D01*
X183335749Y-104362799D01*
X183335751Y-104362782D01*
X183340740Y-104270778D01*
X183350801Y-104085215D01*
X183355421Y-104000002D01*
X183355421Y-103999997D01*
X183343619Y-103782329D01*
X183335751Y-103637215D01*
X183335275Y-103634313D01*
X183276975Y-103278696D01*
X183276974Y-103278695D01*
X183276973Y-103278684D01*
X183250106Y-103181917D01*
X183179778Y-102928618D01*
X183179773Y-102928603D01*
X183045299Y-102591098D01*
X183045298Y-102591095D01*
X182875117Y-102270100D01*
X182671227Y-101969386D01*
X182436021Y-101692479D01*
X182172254Y-101442625D01*
X182172244Y-101442617D01*
X182088892Y-101379255D01*
X181883019Y-101222755D01*
X181571708Y-101035445D01*
X181571707Y-101035444D01*
X181571703Y-101035442D01*
X181571699Y-101035440D01*
X181241979Y-100882896D01*
X181241974Y-100882894D01*
X181241969Y-100882892D01*
X181074143Y-100826344D01*
X180897669Y-100766883D01*
X180542845Y-100688781D01*
X180181660Y-100649500D01*
X180181659Y-100649500D01*
X179818341Y-100649500D01*
X179818339Y-100649500D01*
X179457154Y-100688781D01*
X179102330Y-100766883D01*
X178854238Y-100850476D01*
X178758031Y-100882892D01*
X178758028Y-100882893D01*
X178758020Y-100882896D01*
X178428300Y-101035440D01*
X178428296Y-101035442D01*
X178196453Y-101174937D01*
X178116981Y-101222755D01*
X178027332Y-101290903D01*
X177827755Y-101442617D01*
X177827745Y-101442625D01*
X177563978Y-101692479D01*
X177328772Y-101969386D01*
X177124884Y-102270098D01*
X177124878Y-102270107D01*
X176954706Y-102591086D01*
X176954700Y-102591098D01*
X176820226Y-102928603D01*
X176820221Y-102928618D01*
X176723030Y-103278670D01*
X176723024Y-103278696D01*
X176664250Y-103637200D01*
X176664248Y-103637217D01*
X176644579Y-103999997D01*
X169060262Y-103999997D01*
X169268328Y-103866281D01*
X169586642Y-103615956D01*
X169879720Y-103336507D01*
X170144907Y-103030464D01*
X170146886Y-103027686D01*
X170379793Y-102700614D01*
X170379799Y-102700606D01*
X170379800Y-102700603D01*
X170379803Y-102700600D01*
X170582279Y-102349900D01*
X170750503Y-101981543D01*
X170750505Y-101981536D01*
X170750507Y-101981533D01*
X170882946Y-101598874D01*
X170882946Y-101598871D01*
X170882950Y-101598862D01*
X170978421Y-101205325D01*
X171036052Y-100804494D01*
X171055320Y-100400000D01*
X171036052Y-99995506D01*
X170978421Y-99594675D01*
X170882950Y-99201138D01*
X170873844Y-99174827D01*
X170750507Y-98818466D01*
X170750505Y-98818462D01*
X170745160Y-98806759D01*
X170582279Y-98450100D01*
X170552201Y-98398004D01*
X170379799Y-98099393D01*
X170379793Y-98099385D01*
X170144916Y-97769547D01*
X170144905Y-97769534D01*
X170140922Y-97764937D01*
X169879720Y-97463493D01*
X169586642Y-97184044D01*
X169268328Y-96933719D01*
X168927660Y-96714785D01*
X168567724Y-96529225D01*
X168567723Y-96529224D01*
X168567720Y-96529223D01*
X168567716Y-96529221D01*
X168191780Y-96378719D01*
X168191768Y-96378715D01*
X167803235Y-96264632D01*
X167803218Y-96264628D01*
X167405610Y-96187995D01*
X167405598Y-96187993D01*
X167248465Y-96172989D01*
X167002476Y-96149500D01*
X166597524Y-96149500D01*
X166356656Y-96172500D01*
X166194401Y-96187993D01*
X166194389Y-96187995D01*
X165796781Y-96264628D01*
X165796764Y-96264632D01*
X165408231Y-96378715D01*
X165408219Y-96378719D01*
X165032283Y-96529221D01*
X165032279Y-96529223D01*
X164672343Y-96714783D01*
X164672340Y-96714785D01*
X164583480Y-96771892D01*
X164583478Y-96771893D01*
X164516438Y-96791577D01*
X164449399Y-96771892D01*
X164428758Y-96755258D01*
X160974041Y-93300540D01*
X160974038Y-93300537D01*
X160897652Y-93249498D01*
X160826544Y-93201985D01*
X160826542Y-93201984D01*
X160744607Y-93168046D01*
X160744606Y-93168046D01*
X160662666Y-93134105D01*
X160662658Y-93134103D01*
X160488696Y-93099500D01*
X160488692Y-93099500D01*
X160488691Y-93099500D01*
X146488692Y-93099500D01*
X146311308Y-93099500D01*
X146311303Y-93099500D01*
X146137341Y-93134103D01*
X146137329Y-93134106D01*
X146055392Y-93168045D01*
X146055393Y-93168046D01*
X145973455Y-93201985D01*
X145825965Y-93300535D01*
X145825964Y-93300537D01*
X142063319Y-97063181D01*
X142001996Y-97096666D01*
X141975638Y-97099500D01*
X134186306Y-97099500D01*
X134012341Y-97134103D01*
X134012332Y-97134106D01*
X133877245Y-97190061D01*
X133829793Y-97199500D01*
X133762000Y-97199500D01*
X133694961Y-97179815D01*
X133649206Y-97127011D01*
X133638000Y-97075500D01*
X133638000Y-96834313D01*
X133637999Y-96834298D01*
X133637339Y-96825916D01*
X133635098Y-96797431D01*
X133633475Y-96791846D01*
X133589245Y-96639606D01*
X133589244Y-96639602D01*
X133539101Y-96554814D01*
X133505581Y-96498135D01*
X133505579Y-96498133D01*
X133505576Y-96498129D01*
X133389370Y-96381923D01*
X133389362Y-96381917D01*
X133267754Y-96309999D01*
X133247898Y-96298256D01*
X133247897Y-96298255D01*
X133247896Y-96298255D01*
X133247893Y-96298254D01*
X133090073Y-96252402D01*
X133090067Y-96252401D01*
X133053201Y-96249500D01*
X133053194Y-96249500D01*
X131746806Y-96249500D01*
X131746798Y-96249500D01*
X131709932Y-96252401D01*
X131709926Y-96252402D01*
X131552106Y-96298254D01*
X131552103Y-96298255D01*
X131410637Y-96381917D01*
X131410629Y-96381923D01*
X131294423Y-96498129D01*
X131294414Y-96498140D01*
X131285259Y-96513622D01*
X131234189Y-96561305D01*
X131178528Y-96574500D01*
X130592508Y-96574500D01*
X130525469Y-96554815D01*
X130486969Y-96515597D01*
X130485751Y-96513622D01*
X130442712Y-96443844D01*
X130318656Y-96319788D01*
X130225888Y-96262569D01*
X130169336Y-96227687D01*
X130169331Y-96227685D01*
X130148381Y-96220743D01*
X130002797Y-96172501D01*
X130002795Y-96172500D01*
X129900010Y-96162000D01*
X128899998Y-96162000D01*
X128899980Y-96162001D01*
X128797203Y-96172500D01*
X128797200Y-96172501D01*
X128630668Y-96227685D01*
X128630663Y-96227687D01*
X128481342Y-96319789D01*
X128357289Y-96443842D01*
X128265187Y-96593163D01*
X128265185Y-96593168D01*
X128249797Y-96639606D01*
X128224886Y-96714785D01*
X128223193Y-96719893D01*
X128183420Y-96777338D01*
X128118904Y-96804161D01*
X128050129Y-96791846D01*
X128017806Y-96768570D01*
X127943717Y-96694481D01*
X127943709Y-96694475D01*
X127848665Y-96639602D01*
X127848663Y-96639601D01*
X127806790Y-96615425D01*
X127806789Y-96615424D01*
X127794263Y-96612067D01*
X127654057Y-96574499D01*
X127654054Y-96574499D01*
X127642507Y-96574499D01*
X127575468Y-96554814D01*
X127536968Y-96515595D01*
X127492712Y-96443844D01*
X127368657Y-96319789D01*
X127368656Y-96319788D01*
X127275888Y-96262569D01*
X127219336Y-96227687D01*
X127219331Y-96227685D01*
X127198381Y-96220743D01*
X127052797Y-96172501D01*
X127052795Y-96172500D01*
X126950010Y-96162000D01*
X125949998Y-96162000D01*
X125949980Y-96162001D01*
X125847203Y-96172500D01*
X125847200Y-96172501D01*
X125680668Y-96227685D01*
X125680663Y-96227687D01*
X125531342Y-96319789D01*
X125407289Y-96443842D01*
X125407288Y-96443844D01*
X125376245Y-96494174D01*
X125363031Y-96515597D01*
X125311083Y-96562321D01*
X125257492Y-96574500D01*
X124475098Y-96574500D01*
X124408059Y-96554815D01*
X124387421Y-96538185D01*
X124230698Y-96381463D01*
X124197215Y-96320142D01*
X124195163Y-96307686D01*
X124185368Y-96220745D01*
X124125789Y-96050478D01*
X124029816Y-95897738D01*
X123902262Y-95770184D01*
X123749523Y-95674211D01*
X123579254Y-95614631D01*
X123579249Y-95614630D01*
X123400004Y-95594435D01*
X123399996Y-95594435D01*
X123220750Y-95614630D01*
X123220745Y-95614631D01*
X123050476Y-95674211D01*
X122897737Y-95770184D01*
X122858391Y-95809530D01*
X122797068Y-95843015D01*
X122727376Y-95838029D01*
X122683030Y-95809529D01*
X121374038Y-94500537D01*
X121299150Y-94450499D01*
X121226544Y-94401985D01*
X121226542Y-94401984D01*
X121144607Y-94368046D01*
X121144606Y-94368046D01*
X121134983Y-94364060D01*
X121080580Y-94320219D01*
X121058515Y-94253925D01*
X121075794Y-94186225D01*
X121126932Y-94138615D01*
X121182435Y-94125499D01*
X121387508Y-94125499D01*
X121387516Y-94125498D01*
X121387519Y-94125498D01*
X121473723Y-94116692D01*
X121490297Y-94114999D01*
X121656834Y-94059814D01*
X121806156Y-93967712D01*
X121930212Y-93843656D01*
X121974470Y-93771902D01*
X122026417Y-93725179D01*
X122080008Y-93713000D01*
X123446199Y-93713000D01*
X123513238Y-93732685D01*
X123558993Y-93785489D01*
X123565275Y-93802405D01*
X123585753Y-93872893D01*
X123585755Y-93872896D01*
X123669417Y-94014362D01*
X123669423Y-94014370D01*
X123785629Y-94130576D01*
X123785633Y-94130579D01*
X123785635Y-94130581D01*
X123927102Y-94214244D01*
X123968724Y-94226336D01*
X124084926Y-94260097D01*
X124084929Y-94260097D01*
X124084931Y-94260098D01*
X124121806Y-94263000D01*
X124121814Y-94263000D01*
X124553186Y-94263000D01*
X124553194Y-94263000D01*
X124590069Y-94260098D01*
X124590071Y-94260097D01*
X124590073Y-94260097D01*
X124690640Y-94230879D01*
X124747898Y-94214244D01*
X124889365Y-94130581D01*
X125005581Y-94014365D01*
X125089244Y-93872898D01*
X125130424Y-93731156D01*
X125135097Y-93715073D01*
X125135098Y-93715067D01*
X125135786Y-93706324D01*
X125138000Y-93678194D01*
X125138000Y-93678149D01*
X125437500Y-93678149D01*
X125440399Y-93714989D01*
X125440400Y-93714995D01*
X125486216Y-93872693D01*
X125486217Y-93872696D01*
X125569814Y-94014052D01*
X125569821Y-94014061D01*
X125685938Y-94130178D01*
X125685947Y-94130185D01*
X125827301Y-94213781D01*
X125985014Y-94259600D01*
X125985011Y-94259600D01*
X125987498Y-94259795D01*
X125987500Y-94259795D01*
X126487500Y-94259795D01*
X126487501Y-94259795D01*
X126489986Y-94259600D01*
X126647698Y-94213781D01*
X126789052Y-94130185D01*
X126789061Y-94130178D01*
X126905178Y-94014061D01*
X126905185Y-94014052D01*
X126988782Y-93872696D01*
X126988783Y-93872693D01*
X127034599Y-93714995D01*
X127034600Y-93714989D01*
X127037499Y-93678149D01*
X127037500Y-93678134D01*
X127037500Y-93275000D01*
X126487500Y-93275000D01*
X126487500Y-94259795D01*
X125987500Y-94259795D01*
X125987500Y-93275000D01*
X125437500Y-93275000D01*
X125437500Y-93678149D01*
X125138000Y-93678149D01*
X125138000Y-92512000D01*
X125157685Y-92444961D01*
X125210489Y-92399206D01*
X125262000Y-92388000D01*
X125313500Y-92388000D01*
X125380539Y-92407685D01*
X125426294Y-92460489D01*
X125437500Y-92512000D01*
X125437500Y-92775000D01*
X127037500Y-92775000D01*
X127037500Y-92371865D01*
X127037499Y-92371850D01*
X127034600Y-92335010D01*
X127034599Y-92335004D01*
X126988783Y-92177306D01*
X126988782Y-92177303D01*
X126905185Y-92035947D01*
X126905178Y-92035938D01*
X126831421Y-91962181D01*
X126797936Y-91900858D01*
X126802920Y-91831166D01*
X126844792Y-91775233D01*
X126910256Y-91750816D01*
X126919102Y-91750500D01*
X127879572Y-91750500D01*
X127946611Y-91770185D01*
X127985109Y-91809401D01*
X128041520Y-91900858D01*
X128044789Y-91906157D01*
X128138451Y-91999819D01*
X128171936Y-92061142D01*
X128166952Y-92130834D01*
X128138451Y-92175181D01*
X128044789Y-92268842D01*
X127952687Y-92418163D01*
X127952685Y-92418168D01*
X127935582Y-92469783D01*
X127897501Y-92584703D01*
X127897501Y-92584704D01*
X127897500Y-92584704D01*
X127887000Y-92687483D01*
X127887000Y-93312501D01*
X127887001Y-93312519D01*
X127897500Y-93415296D01*
X127897501Y-93415299D01*
X127938888Y-93540195D01*
X127952686Y-93581834D01*
X128044788Y-93731156D01*
X128168844Y-93855212D01*
X128318166Y-93947314D01*
X128484703Y-94002499D01*
X128587491Y-94013000D01*
X129587508Y-94012999D01*
X129587516Y-94012998D01*
X129587519Y-94012998D01*
X129643802Y-94007248D01*
X129690297Y-94002499D01*
X129856834Y-93947314D01*
X130006156Y-93855212D01*
X130130212Y-93731156D01*
X130174470Y-93659402D01*
X130226417Y-93612679D01*
X130280008Y-93600500D01*
X130794551Y-93600500D01*
X130861590Y-93620185D01*
X130907345Y-93672989D01*
X130912256Y-93685493D01*
X130915186Y-93694334D01*
X131007288Y-93843656D01*
X131131344Y-93967712D01*
X131280666Y-94059814D01*
X131447203Y-94114999D01*
X131450424Y-94115328D01*
X131452284Y-94116086D01*
X131453827Y-94116417D01*
X131453768Y-94116692D01*
X131515115Y-94141719D01*
X131545212Y-94176682D01*
X131569480Y-94218716D01*
X131569482Y-94218718D01*
X131688349Y-94337585D01*
X131688355Y-94337590D01*
X132115139Y-94764374D01*
X132115149Y-94764385D01*
X132119479Y-94768715D01*
X132119480Y-94768716D01*
X132231284Y-94880520D01*
X132231286Y-94880521D01*
X132231290Y-94880524D01*
X132347928Y-94947864D01*
X132368216Y-94959577D01*
X132480019Y-94989534D01*
X132520942Y-95000500D01*
X132520943Y-95000500D01*
X135813331Y-95000500D01*
X135813347Y-95000501D01*
X135820943Y-95000501D01*
X135979054Y-95000501D01*
X135979057Y-95000501D01*
X136131785Y-94959577D01*
X136181904Y-94930639D01*
X136268716Y-94880520D01*
X136380520Y-94768716D01*
X136380520Y-94768714D01*
X136390728Y-94758507D01*
X136390730Y-94758504D01*
X136692291Y-94456942D01*
X136753612Y-94423459D01*
X136814562Y-94425548D01*
X136847431Y-94435098D01*
X136884306Y-94438000D01*
X136884314Y-94438000D01*
X137315686Y-94438000D01*
X137315694Y-94438000D01*
X137352569Y-94435098D01*
X137385432Y-94425550D01*
X137455298Y-94425747D01*
X137507709Y-94456944D01*
X137815139Y-94764374D01*
X137815149Y-94764385D01*
X137819479Y-94768715D01*
X137819480Y-94768716D01*
X137931284Y-94880520D01*
X137999988Y-94920185D01*
X138018095Y-94930639D01*
X138018097Y-94930641D01*
X138068208Y-94959573D01*
X138068215Y-94959577D01*
X138220942Y-95000500D01*
X138220943Y-95000500D01*
X140517209Y-95000500D01*
X140584248Y-95020185D01*
X140630003Y-95072989D01*
X140633391Y-95081167D01*
X140656202Y-95142328D01*
X140656206Y-95142335D01*
X140742452Y-95257544D01*
X140742455Y-95257547D01*
X140857664Y-95343793D01*
X140857671Y-95343797D01*
X140992517Y-95394091D01*
X140992516Y-95394091D01*
X140999444Y-95394835D01*
X141052127Y-95400500D01*
X142147872Y-95400499D01*
X142207483Y-95394091D01*
X142342331Y-95343796D01*
X142457546Y-95257546D01*
X142543796Y-95142331D01*
X142594091Y-95007483D01*
X142600500Y-94947873D01*
X142600499Y-93852128D01*
X142594091Y-93792517D01*
X142591135Y-93784592D01*
X142543797Y-93657671D01*
X142543793Y-93657664D01*
X142457547Y-93542455D01*
X142457544Y-93542452D01*
X142342335Y-93456206D01*
X142342328Y-93456202D01*
X142207482Y-93405908D01*
X142207483Y-93405908D01*
X142147883Y-93399501D01*
X142147881Y-93399500D01*
X142147873Y-93399500D01*
X142147864Y-93399500D01*
X141052129Y-93399500D01*
X141052123Y-93399501D01*
X140992516Y-93405908D01*
X140857671Y-93456202D01*
X140857664Y-93456206D01*
X140742455Y-93542452D01*
X140742452Y-93542455D01*
X140656206Y-93657664D01*
X140656202Y-93657671D01*
X140633391Y-93718833D01*
X140591520Y-93774767D01*
X140526056Y-93799184D01*
X140517209Y-93799500D01*
X139924500Y-93799500D01*
X139857461Y-93779815D01*
X139811706Y-93727011D01*
X139800500Y-93675500D01*
X139800500Y-92546813D01*
X139800499Y-92546798D01*
X139799229Y-92530663D01*
X139797598Y-92509931D01*
X139794943Y-92500794D01*
X139751745Y-92352106D01*
X139751744Y-92352103D01*
X139751744Y-92352102D01*
X139668081Y-92210635D01*
X139668079Y-92210633D01*
X139668076Y-92210629D01*
X139551870Y-92094423D01*
X139551862Y-92094417D01*
X139444893Y-92031156D01*
X139410398Y-92010756D01*
X139410397Y-92010755D01*
X139410396Y-92010755D01*
X139410393Y-92010754D01*
X139252573Y-91964902D01*
X139252567Y-91964901D01*
X139215701Y-91962000D01*
X139215694Y-91962000D01*
X138974500Y-91962000D01*
X138907461Y-91942315D01*
X138861706Y-91889511D01*
X138850500Y-91838000D01*
X138850500Y-90671813D01*
X138850499Y-90671798D01*
X138850146Y-90667315D01*
X138847598Y-90634931D01*
X138839947Y-90608597D01*
X138801745Y-90477106D01*
X138801744Y-90477103D01*
X138801744Y-90477102D01*
X138718081Y-90335635D01*
X138718079Y-90335633D01*
X138718076Y-90335629D01*
X138601870Y-90219423D01*
X138601862Y-90219417D01*
X138473974Y-90143785D01*
X138460398Y-90135756D01*
X138460397Y-90135755D01*
X138460396Y-90135755D01*
X138460395Y-90135754D01*
X138392924Y-90116152D01*
X138334039Y-90078545D01*
X138304833Y-90015073D01*
X138314579Y-89945886D01*
X138339836Y-89909398D01*
X139012416Y-89236819D01*
X139073739Y-89203334D01*
X139100097Y-89200500D01*
X140513331Y-89200500D01*
X140513347Y-89200501D01*
X140520943Y-89200501D01*
X140679054Y-89200501D01*
X140679057Y-89200501D01*
X140831785Y-89159577D01*
X140881904Y-89130639D01*
X140968716Y-89080520D01*
X141080520Y-88968716D01*
X141080520Y-88968714D01*
X141090728Y-88958507D01*
X141090729Y-88958504D01*
X141762417Y-88286819D01*
X141823740Y-88253334D01*
X141850098Y-88250500D01*
X141906613Y-88250500D01*
X141906616Y-88250500D01*
X141977196Y-88244086D01*
X142139606Y-88193478D01*
X142285185Y-88105472D01*
X142405472Y-87985185D01*
X142493478Y-87839606D01*
X142544086Y-87677196D01*
X142550500Y-87606616D01*
X142550500Y-87093384D01*
X142544086Y-87022804D01*
X142493478Y-86860394D01*
X142405472Y-86714815D01*
X142405470Y-86714813D01*
X142405469Y-86714811D01*
X142285188Y-86594530D01*
X142272732Y-86587000D01*
X142139606Y-86506522D01*
X142139603Y-86506521D01*
X142138935Y-86506117D01*
X142091747Y-86454589D01*
X142079909Y-86385730D01*
X142107178Y-86321401D01*
X142138936Y-86293883D01*
X142181119Y-86268383D01*
X142245268Y-86250500D01*
X143267060Y-86250500D01*
X143334099Y-86270185D01*
X143354741Y-86286819D01*
X143558424Y-86490502D01*
X143591909Y-86551825D01*
X143586925Y-86621517D01*
X143567690Y-86655496D01*
X143421041Y-86839388D01*
X143293608Y-87060109D01*
X143200492Y-87297362D01*
X143200490Y-87297369D01*
X143143777Y-87545845D01*
X143124732Y-87799995D01*
X143124732Y-87800004D01*
X143143777Y-88054154D01*
X143196881Y-88286819D01*
X143200492Y-88302637D01*
X143293607Y-88539888D01*
X143421041Y-88760612D01*
X143579950Y-88959877D01*
X143759515Y-89126489D01*
X143795269Y-89186514D01*
X143792894Y-89256343D01*
X143762854Y-89305066D01*
X142904741Y-90163181D01*
X142843418Y-90196666D01*
X142817060Y-90199500D01*
X142562320Y-90199500D01*
X142495281Y-90179815D01*
X142463052Y-90149809D01*
X142458542Y-90143785D01*
X142457546Y-90142454D01*
X142434424Y-90125145D01*
X142342335Y-90056206D01*
X142342328Y-90056202D01*
X142207482Y-90005908D01*
X142207483Y-90005908D01*
X142147883Y-89999501D01*
X142147881Y-89999500D01*
X142147873Y-89999500D01*
X142147864Y-89999500D01*
X141052129Y-89999500D01*
X141052123Y-89999501D01*
X140992516Y-90005908D01*
X140857671Y-90056202D01*
X140857664Y-90056206D01*
X140742455Y-90142452D01*
X140742452Y-90142455D01*
X140656206Y-90257664D01*
X140656202Y-90257671D01*
X140605908Y-90392517D01*
X140599501Y-90452116D01*
X140599500Y-90452135D01*
X140599500Y-91547870D01*
X140599501Y-91547876D01*
X140605908Y-91607483D01*
X140656202Y-91742328D01*
X140656206Y-91742335D01*
X140742452Y-91857544D01*
X140742455Y-91857547D01*
X140857664Y-91943793D01*
X140857671Y-91943797D01*
X140992517Y-91994091D01*
X140992516Y-91994091D01*
X140999444Y-91994835D01*
X141052127Y-92000500D01*
X142147872Y-92000499D01*
X142207483Y-91994091D01*
X142342331Y-91943796D01*
X142457546Y-91857546D01*
X142463052Y-91850191D01*
X142518985Y-91808319D01*
X142562320Y-91800500D01*
X143278844Y-91800500D01*
X143278845Y-91800499D01*
X143433497Y-91769737D01*
X143579179Y-91709394D01*
X143710289Y-91621789D01*
X145451789Y-89880289D01*
X145476583Y-89843182D01*
X145539394Y-89749179D01*
X145599737Y-89603497D01*
X145630500Y-89448842D01*
X145630500Y-89377884D01*
X145650185Y-89310845D01*
X145684645Y-89275433D01*
X145893217Y-89133232D01*
X146080050Y-88959877D01*
X146238959Y-88760612D01*
X146366393Y-88539888D01*
X146459508Y-88302637D01*
X146516222Y-88054157D01*
X146527661Y-87901506D01*
X146535268Y-87800004D01*
X146535268Y-87799995D01*
X146516222Y-87545845D01*
X146506274Y-87502262D01*
X146459508Y-87297363D01*
X146366393Y-87060112D01*
X146238959Y-86839388D01*
X146080050Y-86640123D01*
X145893217Y-86466768D01*
X145682634Y-86323195D01*
X145682631Y-86323194D01*
X145682629Y-86323192D01*
X145573231Y-86270509D01*
X145523932Y-86227681D01*
X145451789Y-86119711D01*
X145340289Y-86008211D01*
X144757078Y-85425000D01*
X144160292Y-84828213D01*
X144160288Y-84828210D01*
X144029185Y-84740609D01*
X144029172Y-84740602D01*
X143883501Y-84680264D01*
X143883489Y-84680261D01*
X143728845Y-84649500D01*
X143728842Y-84649500D01*
X142245268Y-84649500D01*
X142181119Y-84631617D01*
X142139608Y-84606523D01*
X142139607Y-84606522D01*
X142139606Y-84606522D01*
X141977196Y-84555914D01*
X141977194Y-84555913D01*
X141977192Y-84555913D01*
X141927778Y-84551423D01*
X141906616Y-84549500D01*
X141293384Y-84549500D01*
X141274145Y-84551248D01*
X141222807Y-84555913D01*
X141060393Y-84606522D01*
X140914811Y-84694530D01*
X140794530Y-84814811D01*
X140706522Y-84960393D01*
X140655913Y-85122807D01*
X140654156Y-85142147D01*
X140649500Y-85193384D01*
X140649500Y-85706616D01*
X140650914Y-85722171D01*
X140655913Y-85777192D01*
X140655913Y-85777194D01*
X140655914Y-85777196D01*
X140706522Y-85939606D01*
X140787043Y-86072804D01*
X140794530Y-86085188D01*
X140914811Y-86205469D01*
X140914813Y-86205470D01*
X140914815Y-86205472D01*
X141021863Y-86270185D01*
X141061064Y-86293883D01*
X141108252Y-86345411D01*
X141120090Y-86414271D01*
X141092821Y-86478599D01*
X141061064Y-86506117D01*
X140914811Y-86594530D01*
X140794530Y-86714811D01*
X140706522Y-86860393D01*
X140655913Y-87022807D01*
X140649500Y-87093386D01*
X140649500Y-87606616D01*
X140652128Y-87635545D01*
X140638590Y-87704091D01*
X140616318Y-87734445D01*
X140387582Y-87963182D01*
X140326262Y-87996666D01*
X140299903Y-87999500D01*
X138720943Y-87999500D01*
X138568213Y-88040423D01*
X138538289Y-88057701D01*
X138538288Y-88057701D01*
X138431287Y-88119477D01*
X138431282Y-88119481D01*
X137012181Y-89538583D01*
X136950858Y-89572068D01*
X136881166Y-89567084D01*
X136825233Y-89525212D01*
X136800816Y-89459748D01*
X136800500Y-89450902D01*
X136800500Y-87424500D01*
X136820185Y-87357461D01*
X136872989Y-87311706D01*
X136924500Y-87300500D01*
X137506613Y-87300500D01*
X137506616Y-87300500D01*
X137577196Y-87294086D01*
X137739606Y-87243478D01*
X137763422Y-87229080D01*
X137781119Y-87218383D01*
X137845268Y-87200500D01*
X138554732Y-87200500D01*
X138618881Y-87218383D01*
X138643882Y-87233496D01*
X138660394Y-87243478D01*
X138822804Y-87294086D01*
X138893384Y-87300500D01*
X138893387Y-87300500D01*
X139506613Y-87300500D01*
X139506616Y-87300500D01*
X139577196Y-87294086D01*
X139739606Y-87243478D01*
X139885185Y-87155472D01*
X140005472Y-87035185D01*
X140093478Y-86889606D01*
X140144086Y-86727196D01*
X140150500Y-86656616D01*
X140150500Y-86143384D01*
X140144086Y-86072804D01*
X140093478Y-85910394D01*
X140005472Y-85764815D01*
X140005470Y-85764813D01*
X140005469Y-85764811D01*
X139885188Y-85644530D01*
X139739606Y-85556522D01*
X139701619Y-85544685D01*
X139577196Y-85505914D01*
X139577194Y-85505913D01*
X139577192Y-85505913D01*
X139526038Y-85501265D01*
X139506616Y-85499500D01*
X138893384Y-85499500D01*
X138874145Y-85501248D01*
X138822807Y-85505913D01*
X138660391Y-85556523D01*
X138618881Y-85581617D01*
X138554732Y-85599500D01*
X137845268Y-85599500D01*
X137781119Y-85581617D01*
X137739608Y-85556523D01*
X137739607Y-85556522D01*
X137739606Y-85556522D01*
X137577196Y-85505914D01*
X137577194Y-85505913D01*
X137577192Y-85505913D01*
X137526038Y-85501265D01*
X137506616Y-85499500D01*
X136893384Y-85499500D01*
X136874145Y-85501248D01*
X136822807Y-85505913D01*
X136660393Y-85556522D01*
X136514811Y-85644530D01*
X136394531Y-85764810D01*
X136394528Y-85764814D01*
X136333058Y-85866496D01*
X136281530Y-85913683D01*
X136212670Y-85925521D01*
X136148342Y-85898251D01*
X136139261Y-85890026D01*
X135786819Y-85537584D01*
X135753334Y-85476261D01*
X135750500Y-85449903D01*
X135750500Y-85193386D01*
X135750500Y-85193384D01*
X135744086Y-85122804D01*
X135693478Y-84960394D01*
X135605472Y-84814815D01*
X135605470Y-84814813D01*
X135605469Y-84814811D01*
X135485188Y-84694530D01*
X135461589Y-84680264D01*
X135339606Y-84606522D01*
X135177196Y-84555914D01*
X135177194Y-84555913D01*
X135177192Y-84555913D01*
X135127778Y-84551423D01*
X135106616Y-84549500D01*
X134493384Y-84549500D01*
X134474145Y-84551248D01*
X134422807Y-84555913D01*
X134260393Y-84606522D01*
X134188650Y-84649893D01*
X134121095Y-84667729D01*
X134054621Y-84646211D01*
X134010334Y-84592171D01*
X134000500Y-84543776D01*
X134000500Y-83521155D01*
X134000499Y-83521153D01*
X133969737Y-83366503D01*
X133915027Y-83234420D01*
X133909397Y-83220827D01*
X133909390Y-83220814D01*
X133821790Y-83089712D01*
X133771893Y-83039815D01*
X133710289Y-82978211D01*
X133322078Y-82590000D01*
X132910291Y-82178212D01*
X132910288Y-82178210D01*
X132779185Y-82090609D01*
X132779172Y-82090602D01*
X132633501Y-82030264D01*
X132633489Y-82030261D01*
X132478845Y-81999500D01*
X132478842Y-81999500D01*
X129278842Y-81999500D01*
X125278842Y-81999500D01*
X124678842Y-81999500D01*
X119381955Y-81999500D01*
X119314916Y-81979815D01*
X119269161Y-81927011D01*
X119259217Y-81857853D01*
X119288242Y-81794297D01*
X119342949Y-81757794D01*
X119372925Y-81747862D01*
X119521003Y-81656526D01*
X119644026Y-81533503D01*
X119735362Y-81385425D01*
X119739154Y-81379278D01*
X119740694Y-81380228D01*
X119780671Y-81334814D01*
X119784860Y-81332282D01*
X119831216Y-81305520D01*
X119943020Y-81193716D01*
X119943020Y-81193714D01*
X119953224Y-81183511D01*
X119953228Y-81183506D01*
X120224248Y-80912486D01*
X121400001Y-80912486D01*
X121410494Y-81015197D01*
X121465641Y-81181619D01*
X121465643Y-81181624D01*
X121557684Y-81330845D01*
X121681654Y-81454815D01*
X121830875Y-81546856D01*
X121830880Y-81546858D01*
X121997302Y-81602005D01*
X121997309Y-81602006D01*
X122100019Y-81612499D01*
X122349999Y-81612499D01*
X122850000Y-81612499D01*
X123099972Y-81612499D01*
X123099986Y-81612498D01*
X123202697Y-81602005D01*
X123369119Y-81546858D01*
X123369124Y-81546856D01*
X123518345Y-81454815D01*
X123642315Y-81330845D01*
X123734356Y-81181624D01*
X123734358Y-81181619D01*
X123789505Y-81015197D01*
X123789506Y-81015190D01*
X123799999Y-80912486D01*
X123800000Y-80912473D01*
X123800000Y-80850000D01*
X122850000Y-80850000D01*
X122850000Y-81612499D01*
X122349999Y-81612499D01*
X122350000Y-81612498D01*
X122350000Y-80850000D01*
X121400001Y-80850000D01*
X121400001Y-80912486D01*
X120224248Y-80912486D01*
X121274498Y-79862235D01*
X121335819Y-79828752D01*
X121405511Y-79833736D01*
X121461444Y-79875608D01*
X121485861Y-79941072D01*
X121471009Y-80009345D01*
X121467720Y-80015008D01*
X121465646Y-80018370D01*
X121465641Y-80018380D01*
X121410494Y-80184802D01*
X121410493Y-80184809D01*
X121400000Y-80287513D01*
X121400000Y-80350000D01*
X123799999Y-80350000D01*
X123799999Y-80287528D01*
X123799998Y-80287513D01*
X123789505Y-80184802D01*
X123734358Y-80018380D01*
X123734356Y-80018375D01*
X123642315Y-79869154D01*
X123548695Y-79775534D01*
X123515210Y-79714211D01*
X123520194Y-79644519D01*
X123548691Y-79600176D01*
X123642712Y-79506156D01*
X123734814Y-79356834D01*
X123789999Y-79190297D01*
X123800500Y-79087509D01*
X123800499Y-78749094D01*
X123820183Y-78682057D01*
X123872987Y-78636302D01*
X123942146Y-78626358D01*
X124005701Y-78655383D01*
X124012180Y-78661415D01*
X124163181Y-78812416D01*
X124196666Y-78873739D01*
X124199500Y-78900097D01*
X124199500Y-79512501D01*
X124199501Y-79512519D01*
X124210000Y-79615296D01*
X124210001Y-79615299D01*
X124265185Y-79781831D01*
X124265187Y-79781836D01*
X124287800Y-79818498D01*
X124357288Y-79931156D01*
X124481344Y-80055212D01*
X124630666Y-80147314D01*
X124797203Y-80202499D01*
X124899991Y-80213000D01*
X125900008Y-80212999D01*
X125900016Y-80212998D01*
X125900019Y-80212998D01*
X125956302Y-80207248D01*
X126002797Y-80202499D01*
X126169334Y-80147314D01*
X126318656Y-80055212D01*
X126442712Y-79931156D01*
X126486970Y-79859402D01*
X126538917Y-79812679D01*
X126592508Y-79800500D01*
X126687769Y-79800500D01*
X126754808Y-79820185D01*
X126775450Y-79836818D01*
X126881344Y-79942712D01*
X127030666Y-80034814D01*
X127197203Y-80089999D01*
X127299991Y-80100500D01*
X128300008Y-80100499D01*
X128300016Y-80100498D01*
X128300019Y-80100498D01*
X128356302Y-80094748D01*
X128402797Y-80089999D01*
X128569334Y-80034814D01*
X128718656Y-79942712D01*
X128842712Y-79818656D01*
X128934814Y-79669334D01*
X128967563Y-79570503D01*
X129007333Y-79513062D01*
X129071848Y-79486238D01*
X129140624Y-79498553D01*
X129191825Y-79546095D01*
X129208625Y-79596905D01*
X129210494Y-79615197D01*
X129265641Y-79781619D01*
X129265643Y-79781624D01*
X129357684Y-79930845D01*
X129481654Y-80054815D01*
X129630875Y-80146856D01*
X129630880Y-80146858D01*
X129797302Y-80202005D01*
X129797309Y-80202006D01*
X129900019Y-80212499D01*
X130149999Y-80212499D01*
X130650000Y-80212499D01*
X130899972Y-80212499D01*
X130899986Y-80212498D01*
X131002697Y-80202005D01*
X131169119Y-80146858D01*
X131169124Y-80146856D01*
X131318345Y-80054815D01*
X131442315Y-79930845D01*
X131534356Y-79781624D01*
X131534358Y-79781619D01*
X131589505Y-79615197D01*
X131589506Y-79615190D01*
X131599999Y-79512486D01*
X131600000Y-79512473D01*
X131600000Y-79450000D01*
X130650000Y-79450000D01*
X130650000Y-80212499D01*
X130149999Y-80212499D01*
X130150000Y-80212498D01*
X130150000Y-79074000D01*
X130169685Y-79006961D01*
X130222489Y-78961206D01*
X130274000Y-78950000D01*
X131599999Y-78950000D01*
X131599999Y-78887528D01*
X131599998Y-78887513D01*
X131589505Y-78784802D01*
X131534358Y-78618380D01*
X131534356Y-78618375D01*
X131442315Y-78469154D01*
X131348695Y-78375534D01*
X131315210Y-78314211D01*
X131320194Y-78244519D01*
X131348691Y-78200176D01*
X131442712Y-78106156D01*
X131534814Y-77956834D01*
X131589999Y-77790297D01*
X131600500Y-77687509D01*
X131600499Y-77062492D01*
X131589999Y-76959703D01*
X131534814Y-76793166D01*
X131442712Y-76643844D01*
X131318656Y-76519788D01*
X131169334Y-76427686D01*
X131002797Y-76372501D01*
X131002795Y-76372500D01*
X130900016Y-76362000D01*
X130900009Y-76362000D01*
X130775098Y-76362000D01*
X130708059Y-76342315D01*
X130687417Y-76325681D01*
X129436819Y-75075083D01*
X129403334Y-75013760D01*
X129400500Y-74987402D01*
X129400500Y-74786611D01*
X129420185Y-74719572D01*
X129472989Y-74673817D01*
X129531847Y-74663424D01*
X129531868Y-74662904D01*
X129534264Y-74662998D01*
X129534269Y-74662997D01*
X129534306Y-74663000D01*
X129534314Y-74663000D01*
X129965686Y-74663000D01*
X129965694Y-74663000D01*
X130002569Y-74660098D01*
X130002571Y-74660097D01*
X130002573Y-74660097D01*
X130099502Y-74631936D01*
X130160398Y-74614244D01*
X130301865Y-74530581D01*
X130370628Y-74461817D01*
X130431949Y-74428334D01*
X130458308Y-74425500D01*
X134359218Y-74425500D01*
X134426257Y-74445185D01*
X134446899Y-74461819D01*
X137469735Y-77484655D01*
X137469764Y-77484686D01*
X137612214Y-77627136D01*
X137612218Y-77627139D01*
X137776079Y-77736628D01*
X137776092Y-77736635D01*
X137904833Y-77789961D01*
X137947744Y-77807735D01*
X137958164Y-77812051D01*
X138054812Y-77831275D01*
X138103135Y-77840887D01*
X138151458Y-77850500D01*
X138151459Y-77850500D01*
X138151460Y-77850500D01*
X138348540Y-77850500D01*
X144721413Y-77850500D01*
X144788452Y-77870185D01*
X144834207Y-77922989D01*
X144841918Y-77945266D01*
X144867050Y-78048863D01*
X144867053Y-78048874D01*
X144999492Y-78431533D01*
X144999494Y-78431537D01*
X145167717Y-78799892D01*
X145167725Y-78799908D01*
X145370200Y-79150606D01*
X145370206Y-79150614D01*
X145605083Y-79480452D01*
X145605092Y-79480462D01*
X145605093Y-79480464D01*
X145870280Y-79786507D01*
X146163358Y-80065956D01*
X146481672Y-80316281D01*
X146822340Y-80535215D01*
X147182276Y-80720775D01*
X147558221Y-80871281D01*
X147946770Y-80985369D01*
X148344405Y-81062007D01*
X148747524Y-81100500D01*
X148747530Y-81100500D01*
X149152470Y-81100500D01*
X149152476Y-81100500D01*
X149555595Y-81062007D01*
X149953230Y-80985369D01*
X150341779Y-80871281D01*
X150717724Y-80720775D01*
X151077660Y-80535215D01*
X151418328Y-80316281D01*
X151736642Y-80065956D01*
X152029720Y-79786507D01*
X152294907Y-79480464D01*
X152305567Y-79465495D01*
X152529793Y-79150614D01*
X152529799Y-79150606D01*
X152529800Y-79150603D01*
X152529803Y-79150600D01*
X152732279Y-78799900D01*
X152900503Y-78431543D01*
X152900505Y-78431536D01*
X152900507Y-78431533D01*
X153032946Y-78048874D01*
X153032946Y-78048871D01*
X153032950Y-78048862D01*
X153058082Y-77945265D01*
X153093017Y-77884757D01*
X153155120Y-77852741D01*
X153178587Y-77850500D01*
X162571413Y-77850500D01*
X162638452Y-77870185D01*
X162684207Y-77922989D01*
X162691918Y-77945266D01*
X162717050Y-78048863D01*
X162717053Y-78048874D01*
X162849492Y-78431533D01*
X162849494Y-78431537D01*
X163017717Y-78799892D01*
X163017725Y-78799908D01*
X163220200Y-79150606D01*
X163220206Y-79150614D01*
X163455083Y-79480452D01*
X163455092Y-79480462D01*
X163455093Y-79480464D01*
X163720280Y-79786507D01*
X164013358Y-80065956D01*
X164331672Y-80316281D01*
X164672340Y-80535215D01*
X165032276Y-80720775D01*
X165408221Y-80871281D01*
X165796770Y-80985369D01*
X166194405Y-81062007D01*
X166597524Y-81100500D01*
X166597530Y-81100500D01*
X167002470Y-81100500D01*
X167002476Y-81100500D01*
X167405595Y-81062007D01*
X167803230Y-80985369D01*
X168191779Y-80871281D01*
X168567724Y-80720775D01*
X168927660Y-80535215D01*
X168930412Y-80533445D01*
X168997445Y-80513750D01*
X169064488Y-80533422D01*
X169085149Y-80550069D01*
X171733181Y-83198101D01*
X171766666Y-83259424D01*
X171769500Y-83285782D01*
X171769500Y-86358472D01*
X171749815Y-86425511D01*
X171715354Y-86460924D01*
X171706785Y-86466765D01*
X171519952Y-86640121D01*
X171519950Y-86640123D01*
X171361041Y-86839388D01*
X171233608Y-87060109D01*
X171140492Y-87297362D01*
X171140490Y-87297369D01*
X171083777Y-87545845D01*
X171064732Y-87799995D01*
X171064732Y-87800004D01*
X171083777Y-88054154D01*
X171136881Y-88286819D01*
X171140492Y-88302637D01*
X171233607Y-88539888D01*
X171361041Y-88760612D01*
X171519950Y-88959877D01*
X171706783Y-89133232D01*
X171917366Y-89276805D01*
X171917371Y-89276807D01*
X171917372Y-89276808D01*
X171917373Y-89276809D01*
X172039328Y-89335538D01*
X172146992Y-89387387D01*
X172146993Y-89387387D01*
X172146996Y-89387389D01*
X172390542Y-89462513D01*
X172642565Y-89500500D01*
X172897435Y-89500500D01*
X173149458Y-89462513D01*
X173393004Y-89387389D01*
X173622634Y-89276805D01*
X173833217Y-89133232D01*
X174020050Y-88959877D01*
X174178959Y-88760612D01*
X174306393Y-88539888D01*
X174399508Y-88302637D01*
X174456222Y-88054157D01*
X174467661Y-87901506D01*
X174475268Y-87800004D01*
X174475268Y-87799995D01*
X174456222Y-87545845D01*
X174446274Y-87502262D01*
X174399508Y-87297363D01*
X174306393Y-87060112D01*
X174178959Y-86839388D01*
X174020050Y-86640123D01*
X173833217Y-86466768D01*
X173833214Y-86466765D01*
X173824646Y-86460924D01*
X173780345Y-86406894D01*
X173770500Y-86358472D01*
X173770500Y-82721456D01*
X173732052Y-82528170D01*
X173732051Y-82528169D01*
X173732051Y-82528165D01*
X173715590Y-82488425D01*
X173656635Y-82346092D01*
X173656628Y-82346079D01*
X173547139Y-82182218D01*
X173547136Y-82182214D01*
X173404686Y-82039764D01*
X173404655Y-82039735D01*
X170496758Y-79131838D01*
X170463273Y-79070515D01*
X170468257Y-79000823D01*
X170477047Y-78982165D01*
X170582279Y-78799900D01*
X170750503Y-78431543D01*
X170750505Y-78431536D01*
X170750507Y-78431533D01*
X170882946Y-78048874D01*
X170882946Y-78048871D01*
X170882950Y-78048862D01*
X170978421Y-77655325D01*
X171036052Y-77254494D01*
X171055320Y-76850000D01*
X171036052Y-76445506D01*
X170978421Y-76044675D01*
X170882950Y-75651138D01*
X170882946Y-75651125D01*
X170750507Y-75268466D01*
X170750505Y-75268462D01*
X170737701Y-75240426D01*
X170582279Y-74900100D01*
X170579859Y-74895909D01*
X170379799Y-74549393D01*
X170379793Y-74549385D01*
X170144916Y-74219547D01*
X170144905Y-74219534D01*
X170132584Y-74205315D01*
X169879720Y-73913493D01*
X169586642Y-73634044D01*
X169268328Y-73383719D01*
X168927660Y-73164785D01*
X168567724Y-72979225D01*
X168567723Y-72979224D01*
X168567720Y-72979223D01*
X168567716Y-72979221D01*
X168191780Y-72828719D01*
X168191768Y-72828715D01*
X167803235Y-72714632D01*
X167803218Y-72714628D01*
X167405610Y-72637995D01*
X167405598Y-72637993D01*
X167271222Y-72625162D01*
X167002476Y-72599500D01*
X166597524Y-72599500D01*
X166355652Y-72622595D01*
X166194401Y-72637993D01*
X166194389Y-72637995D01*
X165796781Y-72714628D01*
X165796764Y-72714632D01*
X165408231Y-72828715D01*
X165408219Y-72828719D01*
X165032283Y-72979221D01*
X165032279Y-72979223D01*
X164672343Y-73164783D01*
X164331683Y-73383711D01*
X164331676Y-73383716D01*
X164331672Y-73383719D01*
X164136448Y-73537245D01*
X164013359Y-73634043D01*
X164013357Y-73634044D01*
X163720283Y-73913490D01*
X163720281Y-73913492D01*
X163455094Y-74219534D01*
X163455083Y-74219547D01*
X163220206Y-74549385D01*
X163220200Y-74549393D01*
X163017725Y-74900091D01*
X163017717Y-74900107D01*
X162849494Y-75268462D01*
X162849492Y-75268466D01*
X162717053Y-75651125D01*
X162717050Y-75651136D01*
X162691918Y-75754734D01*
X162656983Y-75815243D01*
X162594880Y-75847259D01*
X162571413Y-75849500D01*
X153178587Y-75849500D01*
X153111548Y-75829815D01*
X153065793Y-75777011D01*
X153058082Y-75754734D01*
X153044255Y-75697738D01*
X153032950Y-75651138D01*
X153032946Y-75651125D01*
X152900507Y-75268466D01*
X152900505Y-75268462D01*
X152887701Y-75240426D01*
X152732279Y-74900100D01*
X152729859Y-74895909D01*
X152529799Y-74549393D01*
X152529793Y-74549385D01*
X152294916Y-74219547D01*
X152294905Y-74219534D01*
X152282584Y-74205315D01*
X152029720Y-73913493D01*
X151736642Y-73634044D01*
X151418328Y-73383719D01*
X151077660Y-73164785D01*
X150717724Y-72979225D01*
X150717723Y-72979224D01*
X150717720Y-72979223D01*
X150717716Y-72979221D01*
X150341780Y-72828719D01*
X150341768Y-72828715D01*
X149953235Y-72714632D01*
X149953218Y-72714628D01*
X149555610Y-72637995D01*
X149555598Y-72637993D01*
X149421222Y-72625162D01*
X149152476Y-72599500D01*
X148747524Y-72599500D01*
X148505652Y-72622595D01*
X148344401Y-72637993D01*
X148344389Y-72637995D01*
X147946781Y-72714628D01*
X147946764Y-72714632D01*
X147558231Y-72828715D01*
X147558219Y-72828719D01*
X147182283Y-72979221D01*
X147182279Y-72979223D01*
X146822343Y-73164783D01*
X146481683Y-73383711D01*
X146481676Y-73383716D01*
X146481672Y-73383719D01*
X146286448Y-73537245D01*
X146163359Y-73634043D01*
X146163357Y-73634044D01*
X145870283Y-73913490D01*
X145870281Y-73913492D01*
X145605094Y-74219534D01*
X145605083Y-74219547D01*
X145370206Y-74549385D01*
X145370200Y-74549393D01*
X145167725Y-74900091D01*
X145167717Y-74900107D01*
X144999494Y-75268462D01*
X144999492Y-75268466D01*
X144867053Y-75651125D01*
X144867050Y-75651136D01*
X144841918Y-75754734D01*
X144806983Y-75815243D01*
X144744880Y-75847259D01*
X144721413Y-75849500D01*
X138715782Y-75849500D01*
X138648743Y-75829815D01*
X138628101Y-75813181D01*
X135437784Y-72622863D01*
X135437780Y-72622860D01*
X135273920Y-72513372D01*
X135273910Y-72513367D01*
X135091836Y-72437949D01*
X135091828Y-72437947D01*
X134898543Y-72399500D01*
X134898540Y-72399500D01*
X134701459Y-72399500D01*
X134701457Y-72399500D01*
X134622946Y-72415117D01*
X134587755Y-72422117D01*
X134563565Y-72424500D01*
X130458308Y-72424500D01*
X130391269Y-72404815D01*
X130370631Y-72388185D01*
X130301865Y-72319419D01*
X130160398Y-72235756D01*
X130160397Y-72235755D01*
X130160396Y-72235755D01*
X130160393Y-72235754D01*
X130002573Y-72189902D01*
X130002567Y-72189901D01*
X129965701Y-72187000D01*
X129965694Y-72187000D01*
X129724500Y-72187000D01*
X129657461Y-72167315D01*
X129611706Y-72114511D01*
X129600500Y-72063000D01*
X129600500Y-70999997D01*
X176644579Y-70999997D01*
X176644579Y-71000002D01*
X176664248Y-71362782D01*
X176664250Y-71362799D01*
X176723024Y-71721303D01*
X176723030Y-71721329D01*
X176820221Y-72071381D01*
X176820226Y-72071396D01*
X176954700Y-72408901D01*
X176954706Y-72408913D01*
X177124878Y-72729892D01*
X177124884Y-72729901D01*
X177328772Y-73030613D01*
X177404519Y-73119789D01*
X177563979Y-73307521D01*
X177819433Y-73549500D01*
X177827745Y-73557374D01*
X177827755Y-73557382D01*
X177833300Y-73561597D01*
X178116981Y-73777245D01*
X178428292Y-73964555D01*
X178428294Y-73964556D01*
X178428296Y-73964557D01*
X178428300Y-73964559D01*
X178602571Y-74045185D01*
X178758031Y-74117108D01*
X179102330Y-74233116D01*
X179457153Y-74311218D01*
X179818341Y-74350500D01*
X179818347Y-74350500D01*
X180181653Y-74350500D01*
X180181659Y-74350500D01*
X180542847Y-74311218D01*
X180897670Y-74233116D01*
X181241969Y-74117108D01*
X181571708Y-73964555D01*
X181883019Y-73777245D01*
X182172254Y-73557375D01*
X182436021Y-73307521D01*
X182671227Y-73030614D01*
X182875117Y-72729900D01*
X183045298Y-72408905D01*
X183179775Y-72071391D01*
X183276973Y-71721316D01*
X183306901Y-71538761D01*
X183335749Y-71362799D01*
X183335751Y-71362782D01*
X183355421Y-71000002D01*
X183355421Y-70999997D01*
X183335751Y-70637217D01*
X183335749Y-70637200D01*
X183276975Y-70278696D01*
X183276974Y-70278695D01*
X183276973Y-70278684D01*
X183242798Y-70155596D01*
X183179778Y-69928618D01*
X183179773Y-69928603D01*
X183045299Y-69591098D01*
X183045298Y-69591095D01*
X182875117Y-69270100D01*
X182671227Y-68969386D01*
X182436021Y-68692479D01*
X182172254Y-68442625D01*
X182172244Y-68442617D01*
X182103635Y-68390462D01*
X181883019Y-68222755D01*
X181571708Y-68035445D01*
X181571707Y-68035444D01*
X181571703Y-68035442D01*
X181571699Y-68035440D01*
X181241979Y-67882896D01*
X181241974Y-67882894D01*
X181241969Y-67882892D01*
X181050484Y-67818373D01*
X180897669Y-67766883D01*
X180542845Y-67688781D01*
X180181660Y-67649500D01*
X180181659Y-67649500D01*
X179818341Y-67649500D01*
X179818339Y-67649500D01*
X179457154Y-67688781D01*
X179102330Y-67766883D01*
X178836178Y-67856560D01*
X178758031Y-67882892D01*
X178758028Y-67882893D01*
X178758020Y-67882896D01*
X178428300Y-68035440D01*
X178428296Y-68035442D01*
X178300942Y-68112069D01*
X178116981Y-68222755D01*
X178027332Y-68290903D01*
X177827755Y-68442617D01*
X177827745Y-68442625D01*
X177563978Y-68692479D01*
X177328772Y-68969386D01*
X177124884Y-69270098D01*
X177124878Y-69270107D01*
X176954706Y-69591086D01*
X176954700Y-69591098D01*
X176820226Y-69928603D01*
X176820221Y-69928618D01*
X176723030Y-70278670D01*
X176723024Y-70278696D01*
X176664250Y-70637200D01*
X176664248Y-70637217D01*
X176644579Y-70999997D01*
X129600500Y-70999997D01*
X129600500Y-70896813D01*
X129600499Y-70896798D01*
X129597598Y-70859932D01*
X129597597Y-70859926D01*
X129551745Y-70702106D01*
X129551744Y-70702103D01*
X129551744Y-70702102D01*
X129468081Y-70560635D01*
X129468079Y-70560633D01*
X129468076Y-70560629D01*
X129351870Y-70444423D01*
X129351862Y-70444417D01*
X129210396Y-70360755D01*
X129210393Y-70360754D01*
X129052573Y-70314902D01*
X129052567Y-70314901D01*
X129015701Y-70312000D01*
X129015694Y-70312000D01*
X128584306Y-70312000D01*
X128584298Y-70312000D01*
X128547436Y-70314901D01*
X128547424Y-70314903D01*
X128514563Y-70324450D01*
X128444694Y-70324249D01*
X128392290Y-70293054D01*
X128025090Y-69925855D01*
X128025088Y-69925852D01*
X127906217Y-69806981D01*
X127906216Y-69806980D01*
X127819404Y-69756860D01*
X127819404Y-69756859D01*
X127819400Y-69756858D01*
X127769285Y-69727923D01*
X127616557Y-69686999D01*
X127458443Y-69686999D01*
X127450847Y-69686999D01*
X127450831Y-69687000D01*
X124486669Y-69687000D01*
X124486653Y-69686999D01*
X124479057Y-69686999D01*
X124320943Y-69686999D01*
X124213587Y-69715765D01*
X124168210Y-69727924D01*
X124168209Y-69727925D01*
X124118096Y-69756859D01*
X124118095Y-69756860D01*
X124074689Y-69781920D01*
X124031285Y-69806979D01*
X124031282Y-69806981D01*
X123769481Y-70068782D01*
X123769479Y-70068785D01*
X123719361Y-70155594D01*
X123719359Y-70155596D01*
X123690425Y-70205709D01*
X123690422Y-70205716D01*
X123669213Y-70284867D01*
X123632848Y-70344527D01*
X123570000Y-70375055D01*
X123539711Y-70376390D01*
X123515701Y-70374500D01*
X123515694Y-70374500D01*
X123084306Y-70374500D01*
X123084298Y-70374500D01*
X123047432Y-70377401D01*
X123047426Y-70377402D01*
X122889606Y-70423254D01*
X122889603Y-70423255D01*
X122748137Y-70506917D01*
X122748129Y-70506923D01*
X122631923Y-70623129D01*
X122631917Y-70623137D01*
X122548255Y-70764603D01*
X122548254Y-70764606D01*
X122502402Y-70922426D01*
X122502401Y-70922432D01*
X122499500Y-70959298D01*
X122499500Y-72265701D01*
X122502401Y-72302567D01*
X122502402Y-72302573D01*
X122548254Y-72460393D01*
X122548255Y-72460396D01*
X122631917Y-72601862D01*
X122631923Y-72601870D01*
X122663180Y-72633126D01*
X122696666Y-72694448D01*
X122699500Y-72720808D01*
X122699500Y-73887402D01*
X122679815Y-73954441D01*
X122663181Y-73975083D01*
X122206548Y-74431715D01*
X122145225Y-74465200D01*
X122075533Y-74460216D01*
X122019600Y-74418344D01*
X121995183Y-74352880D01*
X121995509Y-74331429D01*
X121999999Y-74287481D01*
X122000000Y-74287473D01*
X122000000Y-74225000D01*
X120674000Y-74225000D01*
X120606961Y-74205315D01*
X120561206Y-74152511D01*
X120550000Y-74101000D01*
X120550000Y-73725000D01*
X121050000Y-73725000D01*
X121999999Y-73725000D01*
X121999999Y-73662528D01*
X121999998Y-73662513D01*
X121989505Y-73559802D01*
X121934358Y-73393380D01*
X121934356Y-73393375D01*
X121842315Y-73244154D01*
X121718345Y-73120184D01*
X121569124Y-73028143D01*
X121569119Y-73028141D01*
X121402697Y-72972994D01*
X121402690Y-72972993D01*
X121299986Y-72962500D01*
X121050000Y-72962500D01*
X121050000Y-73725000D01*
X120550000Y-73725000D01*
X120550000Y-72962500D01*
X120300029Y-72962500D01*
X120300012Y-72962501D01*
X120197302Y-72972994D01*
X120030880Y-73028141D01*
X120030875Y-73028143D01*
X119881654Y-73120184D01*
X119757684Y-73244154D01*
X119665643Y-73393375D01*
X119665641Y-73393380D01*
X119617969Y-73537245D01*
X119578196Y-73594690D01*
X119513680Y-73621513D01*
X119444904Y-73609198D01*
X119393705Y-73561655D01*
X119382557Y-73537245D01*
X119334814Y-73393166D01*
X119242712Y-73243844D01*
X119118656Y-73119788D01*
X118974081Y-73030614D01*
X118969336Y-73027687D01*
X118969331Y-73027685D01*
X118967862Y-73027198D01*
X118802797Y-72972501D01*
X118802795Y-72972500D01*
X118700010Y-72962000D01*
X117699998Y-72962000D01*
X117699980Y-72962001D01*
X117597203Y-72972500D01*
X117597200Y-72972501D01*
X117430668Y-73027685D01*
X117430663Y-73027687D01*
X117281342Y-73119789D01*
X117157289Y-73243842D01*
X117065187Y-73393163D01*
X117065185Y-73393168D01*
X117041547Y-73464504D01*
X117001774Y-73521949D01*
X116937258Y-73548772D01*
X116923841Y-73549500D01*
X113370941Y-73549500D01*
X113341552Y-73557374D01*
X113341553Y-73557375D01*
X113218214Y-73590423D01*
X113218209Y-73590426D01*
X113081290Y-73669475D01*
X113081282Y-73669481D01*
X112973519Y-73777245D01*
X112969480Y-73781284D01*
X112969478Y-73781286D01*
X112044608Y-74706157D01*
X111147584Y-75603181D01*
X111086261Y-75636666D01*
X111059903Y-75639500D01*
X109074499Y-75639500D01*
X109007460Y-75619815D01*
X108961705Y-75567011D01*
X108950499Y-75515500D01*
X108950499Y-75342129D01*
X108950498Y-75342123D01*
X108950497Y-75342116D01*
X108944091Y-75282517D01*
X108938850Y-75268466D01*
X108893797Y-75147671D01*
X108893793Y-75147664D01*
X108807547Y-75032455D01*
X108807544Y-75032452D01*
X108692335Y-74946206D01*
X108692328Y-74946202D01*
X108557482Y-74895908D01*
X108557483Y-74895908D01*
X108497883Y-74889501D01*
X108497881Y-74889500D01*
X108497873Y-74889500D01*
X108497864Y-74889500D01*
X106702129Y-74889500D01*
X106702123Y-74889501D01*
X106642516Y-74895908D01*
X106507671Y-74946202D01*
X106507664Y-74946206D01*
X106392455Y-75032452D01*
X106392452Y-75032455D01*
X106306206Y-75147664D01*
X106306202Y-75147671D01*
X106255908Y-75282517D01*
X106249501Y-75342116D01*
X106249501Y-75342123D01*
X106249500Y-75342135D01*
X106249500Y-77137870D01*
X106249501Y-77137876D01*
X106255908Y-77197483D01*
X106306202Y-77332328D01*
X106306206Y-77332335D01*
X106392452Y-77447544D01*
X106392455Y-77447547D01*
X106507664Y-77533793D01*
X106507671Y-77533797D01*
X106639081Y-77582810D01*
X106695015Y-77624681D01*
X106719432Y-77690145D01*
X106704580Y-77758418D01*
X106683430Y-77786673D01*
X106561503Y-77908600D01*
X106425965Y-78102169D01*
X106425964Y-78102171D01*
X106326098Y-78316335D01*
X106326094Y-78316344D01*
X106264938Y-78544586D01*
X106264936Y-78544596D01*
X106244341Y-78779999D01*
X106244341Y-78780000D01*
X106264936Y-79015403D01*
X106264938Y-79015413D01*
X106326094Y-79243655D01*
X106326096Y-79243659D01*
X106326097Y-79243663D01*
X106398151Y-79398182D01*
X106425965Y-79457830D01*
X106425967Y-79457834D01*
X106561501Y-79651395D01*
X106561506Y-79651402D01*
X106728597Y-79818493D01*
X106728603Y-79818498D01*
X106914158Y-79948425D01*
X106957783Y-80003002D01*
X106964977Y-80072500D01*
X106933454Y-80134855D01*
X106914158Y-80151575D01*
X106728597Y-80281505D01*
X106561505Y-80448597D01*
X106425965Y-80642169D01*
X106425964Y-80642171D01*
X106326098Y-80856335D01*
X106326094Y-80856344D01*
X106264938Y-81084586D01*
X106264936Y-81084596D01*
X106244341Y-81319999D01*
X106244341Y-81320000D01*
X106264936Y-81555403D01*
X106264938Y-81555413D01*
X106326094Y-81783655D01*
X106326096Y-81783659D01*
X106326097Y-81783663D01*
X106398839Y-81939658D01*
X106425965Y-81997830D01*
X106425967Y-81997834D01*
X106561501Y-82191395D01*
X106561506Y-82191402D01*
X106728597Y-82358493D01*
X106728603Y-82358498D01*
X106914158Y-82488425D01*
X106957783Y-82543002D01*
X106964977Y-82612500D01*
X106933454Y-82674855D01*
X106914158Y-82691575D01*
X106728597Y-82821505D01*
X106561505Y-82988597D01*
X106425965Y-83182169D01*
X106425964Y-83182171D01*
X106326098Y-83396335D01*
X106326094Y-83396344D01*
X106264938Y-83624586D01*
X106264936Y-83624596D01*
X106244341Y-83859999D01*
X106244341Y-83860000D01*
X106264936Y-84095403D01*
X106264938Y-84095413D01*
X106326094Y-84323655D01*
X106326096Y-84323659D01*
X106326097Y-84323663D01*
X106382283Y-84444154D01*
X106425965Y-84537830D01*
X106425967Y-84537834D01*
X106561501Y-84731395D01*
X106561506Y-84731402D01*
X106728597Y-84898493D01*
X106728603Y-84898498D01*
X106914158Y-85028425D01*
X106957783Y-85083002D01*
X106964977Y-85152500D01*
X106933454Y-85214855D01*
X106914158Y-85231575D01*
X106728597Y-85361505D01*
X106561505Y-85528597D01*
X106425965Y-85722169D01*
X106425964Y-85722171D01*
X106326098Y-85936335D01*
X106326094Y-85936344D01*
X106264938Y-86164586D01*
X106264936Y-86164596D01*
X106244341Y-86399999D01*
X106244341Y-86400000D01*
X106264936Y-86635403D01*
X106264938Y-86635413D01*
X106326094Y-86863655D01*
X106326096Y-86863659D01*
X106326097Y-86863663D01*
X106410634Y-87044953D01*
X106425965Y-87077830D01*
X106425967Y-87077834D01*
X106561501Y-87271395D01*
X106561506Y-87271402D01*
X106728597Y-87438493D01*
X106728603Y-87438498D01*
X106914158Y-87568425D01*
X106957783Y-87623002D01*
X106964977Y-87692500D01*
X106933454Y-87754855D01*
X106914158Y-87771575D01*
X106728597Y-87901505D01*
X106561505Y-88068597D01*
X106425965Y-88262169D01*
X106425964Y-88262171D01*
X106326098Y-88476335D01*
X106326094Y-88476344D01*
X106264938Y-88704586D01*
X106264936Y-88704596D01*
X106244341Y-88939999D01*
X106244341Y-88940000D01*
X106264936Y-89175403D01*
X106264938Y-89175413D01*
X106326094Y-89403655D01*
X106326096Y-89403659D01*
X106326097Y-89403663D01*
X106389906Y-89540501D01*
X106425965Y-89617830D01*
X106425967Y-89617834D01*
X106561501Y-89811395D01*
X106561506Y-89811402D01*
X106728597Y-89978493D01*
X106728603Y-89978498D01*
X106914158Y-90108425D01*
X106957783Y-90163002D01*
X106964977Y-90232500D01*
X106933454Y-90294855D01*
X106914158Y-90311575D01*
X106728597Y-90441505D01*
X106561505Y-90608597D01*
X106425965Y-90802169D01*
X106425964Y-90802171D01*
X106326098Y-91016335D01*
X106326094Y-91016344D01*
X106264938Y-91244586D01*
X106264936Y-91244596D01*
X106244341Y-91479999D01*
X106244341Y-91480000D01*
X106264936Y-91715403D01*
X106264938Y-91715413D01*
X106326094Y-91943655D01*
X106326096Y-91943659D01*
X106326097Y-91943663D01*
X106410736Y-92125171D01*
X106425965Y-92157830D01*
X106425967Y-92157834D01*
X106561501Y-92351395D01*
X106561506Y-92351402D01*
X106728597Y-92518493D01*
X106728603Y-92518498D01*
X106914158Y-92648425D01*
X106957783Y-92703002D01*
X106964977Y-92772500D01*
X106933454Y-92834855D01*
X106914158Y-92851575D01*
X106728597Y-92981505D01*
X106561505Y-93148597D01*
X106425965Y-93342169D01*
X106425964Y-93342171D01*
X106326098Y-93556335D01*
X106326094Y-93556344D01*
X106264938Y-93784586D01*
X106264936Y-93784596D01*
X106244341Y-94019999D01*
X106244341Y-94020000D01*
X106264936Y-94255403D01*
X106264938Y-94255413D01*
X106326094Y-94483655D01*
X106326096Y-94483659D01*
X106326097Y-94483663D01*
X106333966Y-94500538D01*
X106425965Y-94697830D01*
X106425967Y-94697834D01*
X106561501Y-94891395D01*
X106561506Y-94891402D01*
X106728597Y-95058493D01*
X106728603Y-95058498D01*
X106914594Y-95188730D01*
X106958219Y-95243307D01*
X106965413Y-95312805D01*
X106933890Y-95375160D01*
X106914595Y-95391880D01*
X106728922Y-95521890D01*
X106728920Y-95521891D01*
X106561891Y-95688920D01*
X106561886Y-95688926D01*
X106426400Y-95882420D01*
X106426399Y-95882422D01*
X106326570Y-96096507D01*
X106326567Y-96096513D01*
X106269364Y-96309999D01*
X106269364Y-96310000D01*
X107166988Y-96310000D01*
X107134075Y-96367007D01*
X107100000Y-96494174D01*
X107100000Y-96625826D01*
X107134075Y-96752993D01*
X107166988Y-96810000D01*
X106269364Y-96810000D01*
X106326567Y-97023486D01*
X106326570Y-97023492D01*
X106426399Y-97237578D01*
X106561894Y-97431082D01*
X106728917Y-97598105D01*
X106914595Y-97728119D01*
X106958219Y-97782696D01*
X106965412Y-97852195D01*
X106933890Y-97914549D01*
X106914595Y-97931269D01*
X106728594Y-98061508D01*
X106561505Y-98228597D01*
X106425965Y-98422169D01*
X106425964Y-98422171D01*
X106326098Y-98636335D01*
X106326094Y-98636344D01*
X106264938Y-98864586D01*
X106264936Y-98864596D01*
X106244341Y-99099999D01*
X106244341Y-99100000D01*
X106264936Y-99335403D01*
X106264938Y-99335413D01*
X106326094Y-99563655D01*
X106326096Y-99563659D01*
X106326097Y-99563663D01*
X106408960Y-99741363D01*
X106425965Y-99777830D01*
X106425967Y-99777834D01*
X106503967Y-99889229D01*
X106561505Y-99971401D01*
X106728599Y-100138495D01*
X106825384Y-100206265D01*
X106922165Y-100274032D01*
X106922167Y-100274033D01*
X106922170Y-100274035D01*
X107136337Y-100373903D01*
X107364592Y-100435063D01*
X107552918Y-100451539D01*
X107599999Y-100455659D01*
X107600000Y-100455659D01*
X107600001Y-100455659D01*
X107639234Y-100452226D01*
X107835408Y-100435063D01*
X108063663Y-100373903D01*
X108277830Y-100274035D01*
X108471401Y-100138495D01*
X108573077Y-100036819D01*
X108634400Y-100003334D01*
X108660758Y-100000500D01*
X111588693Y-100000500D01*
X111588694Y-100000499D01*
X111762666Y-99965895D01*
X111844606Y-99931953D01*
X111926547Y-99898013D01*
X112034374Y-99825965D01*
X112074036Y-99799464D01*
X113984609Y-97888889D01*
X114045932Y-97855405D01*
X114115623Y-97860389D01*
X114171557Y-97902261D01*
X114195974Y-97967725D01*
X114195510Y-97990453D01*
X114194435Y-97999994D01*
X114194435Y-98000003D01*
X114214630Y-98179249D01*
X114214631Y-98179254D01*
X114274211Y-98349523D01*
X114317341Y-98418163D01*
X114370184Y-98502262D01*
X114497738Y-98629816D01*
X114533564Y-98652327D01*
X114605346Y-98697431D01*
X114650478Y-98725789D01*
X114769881Y-98767570D01*
X114820745Y-98785368D01*
X114820750Y-98785369D01*
X114999996Y-98805565D01*
X115000000Y-98805565D01*
X115000004Y-98805565D01*
X115179249Y-98785369D01*
X115179250Y-98785368D01*
X115179255Y-98785368D01*
X115219936Y-98771132D01*
X115289713Y-98767570D01*
X115350341Y-98802299D01*
X115354230Y-98806759D01*
X115478996Y-98931525D01*
X115479000Y-98931528D01*
X115479703Y-98931962D01*
X115480083Y-98932385D01*
X115484664Y-98936007D01*
X115484045Y-98936789D01*
X115526428Y-98983910D01*
X115537649Y-99052872D01*
X115509806Y-99116954D01*
X115484544Y-99138842D01*
X115484664Y-99138993D01*
X115481315Y-99141640D01*
X115479703Y-99143038D01*
X115479000Y-99143471D01*
X115478996Y-99143474D01*
X115355974Y-99266496D01*
X115355971Y-99266500D01*
X115264642Y-99414566D01*
X115264637Y-99414577D01*
X115209913Y-99579723D01*
X115199500Y-99681644D01*
X115199500Y-100268355D01*
X115209913Y-100370276D01*
X115264637Y-100535422D01*
X115264639Y-100535427D01*
X115326917Y-100636394D01*
X115345357Y-100703786D01*
X115326372Y-100767463D01*
X115274211Y-100850476D01*
X115214631Y-101020745D01*
X115214630Y-101020750D01*
X115194435Y-101199996D01*
X115194435Y-101200003D01*
X115214630Y-101379249D01*
X115214631Y-101379254D01*
X115274211Y-101549523D01*
X115334515Y-101645496D01*
X115369076Y-101700499D01*
X115370185Y-101702263D01*
X115372445Y-101705097D01*
X115373334Y-101707275D01*
X115373889Y-101708158D01*
X115373734Y-101708255D01*
X115398855Y-101769783D01*
X115399500Y-101782412D01*
X115399500Y-103140122D01*
X115381039Y-103205218D01*
X115352141Y-103252068D01*
X115352137Y-103252077D01*
X115297413Y-103417223D01*
X115287000Y-103519144D01*
X115287000Y-104105855D01*
X115297413Y-104207776D01*
X115352137Y-104372922D01*
X115352142Y-104372933D01*
X115443471Y-104520999D01*
X115443474Y-104521003D01*
X115566496Y-104644025D01*
X115566500Y-104644028D01*
X115567203Y-104644462D01*
X115567583Y-104644885D01*
X115572164Y-104648507D01*
X115571545Y-104649289D01*
X115613928Y-104696410D01*
X115625149Y-104765372D01*
X115597306Y-104829454D01*
X115572044Y-104851342D01*
X115572164Y-104851493D01*
X115568815Y-104854140D01*
X115567203Y-104855538D01*
X115566500Y-104855971D01*
X115566496Y-104855974D01*
X115443474Y-104978996D01*
X115443471Y-104979000D01*
X115352142Y-105127066D01*
X115352137Y-105127077D01*
X115297413Y-105292223D01*
X115287000Y-105394144D01*
X115287000Y-105980855D01*
X115297413Y-106082776D01*
X115352137Y-106247922D01*
X115352142Y-106247933D01*
X115443471Y-106395999D01*
X115443474Y-106396003D01*
X115566496Y-106519025D01*
X115566500Y-106519028D01*
X115714566Y-106610357D01*
X115714569Y-106610358D01*
X115714575Y-106610362D01*
X115879725Y-106665087D01*
X115981652Y-106675500D01*
X115981657Y-106675500D01*
X116993343Y-106675500D01*
X116993348Y-106675500D01*
X117095275Y-106665087D01*
X117260425Y-106610362D01*
X117408503Y-106519026D01*
X117531526Y-106396003D01*
X117549432Y-106366973D01*
X117561812Y-106346903D01*
X117613760Y-106300178D01*
X117667350Y-106288000D01*
X118392072Y-106288000D01*
X118459111Y-106307685D01*
X118497609Y-106346901D01*
X118557288Y-106443656D01*
X118681344Y-106567712D01*
X118830666Y-106659814D01*
X118997203Y-106714999D01*
X119099991Y-106725500D01*
X120100008Y-106725499D01*
X120100016Y-106725498D01*
X120100019Y-106725498D01*
X120156302Y-106719748D01*
X120202797Y-106714999D01*
X120369334Y-106659814D01*
X120518656Y-106567712D01*
X120642712Y-106443656D01*
X120734814Y-106294334D01*
X120789999Y-106127797D01*
X120800500Y-106025009D01*
X120800499Y-105399992D01*
X120799902Y-105394152D01*
X120789999Y-105297203D01*
X120789998Y-105297200D01*
X120788349Y-105292223D01*
X120734814Y-105130666D01*
X120642712Y-104981344D01*
X120548695Y-104887327D01*
X120515210Y-104826004D01*
X120520194Y-104756312D01*
X120548695Y-104711964D01*
X120642317Y-104618342D01*
X120734356Y-104469124D01*
X120734358Y-104469119D01*
X120789505Y-104302697D01*
X120789506Y-104302690D01*
X120799999Y-104199986D01*
X120800000Y-104199973D01*
X120800000Y-104137500D01*
X118400001Y-104137500D01*
X118400001Y-104199986D01*
X118410494Y-104302697D01*
X118465641Y-104469119D01*
X118465643Y-104469124D01*
X118557684Y-104618345D01*
X118651304Y-104711965D01*
X118684789Y-104773288D01*
X118679805Y-104842980D01*
X118651305Y-104887327D01*
X118557287Y-104981345D01*
X118528451Y-105028097D01*
X118476503Y-105074821D01*
X118422912Y-105087000D01*
X117667350Y-105087000D01*
X117600311Y-105067315D01*
X117561812Y-105028097D01*
X117531528Y-104979000D01*
X117531525Y-104978996D01*
X117408504Y-104855975D01*
X117408503Y-104855974D01*
X117407801Y-104855541D01*
X117407421Y-104855118D01*
X117402836Y-104851493D01*
X117403455Y-104850709D01*
X117361075Y-104803598D01*
X117349849Y-104734636D01*
X117377688Y-104670552D01*
X117402955Y-104648657D01*
X117402836Y-104648507D01*
X117406187Y-104645856D01*
X117407799Y-104644459D01*
X117408503Y-104644026D01*
X117531526Y-104521003D01*
X117622862Y-104372925D01*
X117677587Y-104207775D01*
X117688000Y-104105848D01*
X117688000Y-103524500D01*
X117707685Y-103457461D01*
X117760489Y-103411706D01*
X117812000Y-103400500D01*
X118280516Y-103400500D01*
X118347555Y-103420185D01*
X118393310Y-103472989D01*
X118403874Y-103537103D01*
X118400000Y-103575014D01*
X118400000Y-103637500D01*
X120799999Y-103637500D01*
X120799999Y-103575028D01*
X120799998Y-103575015D01*
X120796125Y-103537103D01*
X120808894Y-103468410D01*
X120856774Y-103417525D01*
X120919483Y-103400500D01*
X121417588Y-103400500D01*
X121484627Y-103420185D01*
X121494903Y-103427555D01*
X121497736Y-103429814D01*
X121497738Y-103429816D01*
X121600642Y-103494475D01*
X121648426Y-103524500D01*
X121650478Y-103525789D01*
X121662547Y-103530012D01*
X121820745Y-103585368D01*
X121820750Y-103585369D01*
X121999996Y-103605565D01*
X122000000Y-103605565D01*
X122000004Y-103605565D01*
X122179249Y-103585369D01*
X122179252Y-103585368D01*
X122179255Y-103585368D01*
X122349522Y-103525789D01*
X122502262Y-103429816D01*
X122502262Y-103429815D01*
X122508158Y-103426111D01*
X122509602Y-103428409D01*
X122562849Y-103406659D01*
X122631547Y-103419401D01*
X122682450Y-103467261D01*
X122699500Y-103530012D01*
X122699500Y-106288696D01*
X122734103Y-106462658D01*
X122734106Y-106462670D01*
X122750292Y-106501745D01*
X122801985Y-106626544D01*
X122861063Y-106714960D01*
X122900537Y-106774038D01*
X122900540Y-106774041D01*
X124238036Y-108111535D01*
X124327434Y-108200933D01*
X124363466Y-108236965D01*
X124416495Y-108272398D01*
X124461300Y-108326010D01*
X124470007Y-108395335D01*
X124439852Y-108458363D01*
X124380409Y-108495082D01*
X124347604Y-108499500D01*
X110002706Y-108499500D01*
X109997297Y-108499382D01*
X109613249Y-108482614D01*
X109602473Y-108481671D01*
X109224042Y-108431849D01*
X109213389Y-108429971D01*
X108840727Y-108347354D01*
X108830278Y-108344554D01*
X108466244Y-108229775D01*
X108456078Y-108226075D01*
X108103427Y-108080002D01*
X108093623Y-108075430D01*
X107755057Y-107899183D01*
X107745689Y-107893775D01*
X107423755Y-107688681D01*
X107414894Y-107682476D01*
X107112069Y-107450110D01*
X107103782Y-107443156D01*
X106822364Y-107185284D01*
X106814715Y-107177635D01*
X106556843Y-106896217D01*
X106549889Y-106887930D01*
X106317523Y-106585105D01*
X106311318Y-106576244D01*
X106274867Y-106519028D01*
X106106223Y-106254309D01*
X106100816Y-106244942D01*
X106056804Y-106160396D01*
X105924566Y-105906369D01*
X105919997Y-105896572D01*
X105906223Y-105863319D01*
X105773920Y-105543911D01*
X105770224Y-105533755D01*
X105759612Y-105500097D01*
X105655442Y-105169710D01*
X105652648Y-105159284D01*
X105570025Y-104786597D01*
X105568152Y-104775971D01*
X105518326Y-104397506D01*
X105517386Y-104386771D01*
X105500618Y-104002702D01*
X105500559Y-103999997D01*
X106644579Y-103999997D01*
X106644579Y-104000002D01*
X106664248Y-104362782D01*
X106664250Y-104362799D01*
X106723024Y-104721303D01*
X106723030Y-104721329D01*
X106820221Y-105071381D01*
X106820226Y-105071396D01*
X106954700Y-105408901D01*
X106954706Y-105408913D01*
X107124878Y-105729892D01*
X107124884Y-105729901D01*
X107328772Y-106030613D01*
X107552780Y-106294336D01*
X107563979Y-106307521D01*
X107787261Y-106519025D01*
X107827745Y-106557374D01*
X107827755Y-106557382D01*
X107841344Y-106567712D01*
X108116981Y-106777245D01*
X108428292Y-106964555D01*
X108428294Y-106964556D01*
X108428296Y-106964557D01*
X108428300Y-106964559D01*
X108722133Y-107100500D01*
X108758031Y-107117108D01*
X109102330Y-107233116D01*
X109457153Y-107311218D01*
X109818341Y-107350500D01*
X109818347Y-107350500D01*
X110181653Y-107350500D01*
X110181659Y-107350500D01*
X110542847Y-107311218D01*
X110897670Y-107233116D01*
X111241969Y-107117108D01*
X111571708Y-106964555D01*
X111883019Y-106777245D01*
X112172254Y-106557375D01*
X112436021Y-106307521D01*
X112671227Y-106030614D01*
X112875117Y-105729900D01*
X113045298Y-105408905D01*
X113179775Y-105071391D01*
X113200082Y-104998254D01*
X113216719Y-104938330D01*
X113276973Y-104721316D01*
X113318318Y-104469124D01*
X113335749Y-104362799D01*
X113335751Y-104362782D01*
X113340740Y-104270778D01*
X113350801Y-104085215D01*
X113355421Y-104000002D01*
X113355421Y-103999997D01*
X113343619Y-103782329D01*
X113335751Y-103637215D01*
X113335275Y-103634313D01*
X113276975Y-103278696D01*
X113276974Y-103278695D01*
X113276973Y-103278684D01*
X113250106Y-103181917D01*
X113179778Y-102928618D01*
X113179773Y-102928603D01*
X113045299Y-102591098D01*
X113045298Y-102591095D01*
X112875117Y-102270100D01*
X112671227Y-101969386D01*
X112436021Y-101692479D01*
X112172254Y-101442625D01*
X112172244Y-101442617D01*
X112088892Y-101379255D01*
X111883019Y-101222755D01*
X111571708Y-101035445D01*
X111571707Y-101035444D01*
X111571703Y-101035442D01*
X111571699Y-101035440D01*
X111241979Y-100882896D01*
X111241974Y-100882894D01*
X111241969Y-100882892D01*
X111074143Y-100826344D01*
X110897669Y-100766883D01*
X110542845Y-100688781D01*
X110181660Y-100649500D01*
X110181659Y-100649500D01*
X109818341Y-100649500D01*
X109818339Y-100649500D01*
X109457154Y-100688781D01*
X109102330Y-100766883D01*
X108854238Y-100850476D01*
X108758031Y-100882892D01*
X108758028Y-100882893D01*
X108758020Y-100882896D01*
X108428300Y-101035440D01*
X108428296Y-101035442D01*
X108196453Y-101174937D01*
X108116981Y-101222755D01*
X108027332Y-101290903D01*
X107827755Y-101442617D01*
X107827745Y-101442625D01*
X107563978Y-101692479D01*
X107328772Y-101969386D01*
X107124884Y-102270098D01*
X107124878Y-102270107D01*
X106954706Y-102591086D01*
X106954700Y-102591098D01*
X106820226Y-102928603D01*
X106820221Y-102928618D01*
X106723030Y-103278670D01*
X106723024Y-103278696D01*
X106664250Y-103637200D01*
X106664248Y-103637217D01*
X106644579Y-103999997D01*
X105500559Y-103999997D01*
X105500500Y-103997293D01*
X105500500Y-71002706D01*
X105500559Y-70999997D01*
X106644579Y-70999997D01*
X106644579Y-71000002D01*
X106664248Y-71362782D01*
X106664250Y-71362799D01*
X106723024Y-71721303D01*
X106723030Y-71721329D01*
X106820221Y-72071381D01*
X106820226Y-72071396D01*
X106954700Y-72408901D01*
X106954706Y-72408913D01*
X107124878Y-72729892D01*
X107124884Y-72729901D01*
X107328772Y-73030613D01*
X107404519Y-73119789D01*
X107563979Y-73307521D01*
X107819433Y-73549500D01*
X107827745Y-73557374D01*
X107827755Y-73557382D01*
X107833300Y-73561597D01*
X108116981Y-73777245D01*
X108428292Y-73964555D01*
X108428294Y-73964556D01*
X108428296Y-73964557D01*
X108428300Y-73964559D01*
X108602571Y-74045185D01*
X108758031Y-74117108D01*
X109102330Y-74233116D01*
X109457153Y-74311218D01*
X109818341Y-74350500D01*
X109818347Y-74350500D01*
X110181653Y-74350500D01*
X110181659Y-74350500D01*
X110542847Y-74311218D01*
X110897670Y-74233116D01*
X111241969Y-74117108D01*
X111571708Y-73964555D01*
X111883019Y-73777245D01*
X112172254Y-73557375D01*
X112436021Y-73307521D01*
X112671227Y-73030614D01*
X112875117Y-72729900D01*
X113045298Y-72408905D01*
X113179775Y-72071391D01*
X113276973Y-71721316D01*
X113306901Y-71538761D01*
X113335749Y-71362799D01*
X113335751Y-71362782D01*
X113355421Y-71000002D01*
X113355421Y-70999997D01*
X113335751Y-70637217D01*
X113335749Y-70637200D01*
X113276975Y-70278696D01*
X113276974Y-70278695D01*
X113276973Y-70278684D01*
X113242798Y-70155596D01*
X113179778Y-69928618D01*
X113179773Y-69928603D01*
X113045299Y-69591098D01*
X113045298Y-69591095D01*
X112875117Y-69270100D01*
X112671227Y-68969386D01*
X112436021Y-68692479D01*
X112172254Y-68442625D01*
X112172244Y-68442617D01*
X112103635Y-68390462D01*
X111883019Y-68222755D01*
X111571708Y-68035445D01*
X111571707Y-68035444D01*
X111571703Y-68035442D01*
X111571699Y-68035440D01*
X111241979Y-67882896D01*
X111241974Y-67882894D01*
X111241969Y-67882892D01*
X111050484Y-67818373D01*
X110897669Y-67766883D01*
X110542845Y-67688781D01*
X110181660Y-67649500D01*
X110181659Y-67649500D01*
X109818341Y-67649500D01*
X109818339Y-67649500D01*
X109457154Y-67688781D01*
X109102330Y-67766883D01*
X108836178Y-67856560D01*
X108758031Y-67882892D01*
X108758028Y-67882893D01*
X108758020Y-67882896D01*
X108428300Y-68035440D01*
X108428296Y-68035442D01*
X108300942Y-68112069D01*
X108116981Y-68222755D01*
X108027332Y-68290903D01*
X107827755Y-68442617D01*
X107827745Y-68442625D01*
X107563978Y-68692479D01*
X107328772Y-68969386D01*
X107124884Y-69270098D01*
X107124878Y-69270107D01*
X106954706Y-69591086D01*
X106954700Y-69591098D01*
X106820226Y-69928603D01*
X106820221Y-69928618D01*
X106723030Y-70278670D01*
X106723024Y-70278696D01*
X106664250Y-70637200D01*
X106664248Y-70637217D01*
X106644579Y-70999997D01*
X105500559Y-70999997D01*
X105500618Y-70997297D01*
X105503887Y-70922426D01*
X105517386Y-70613226D01*
X105518326Y-70602495D01*
X105568152Y-70224025D01*
X105570025Y-70213405D01*
X105652649Y-69840709D01*
X105655440Y-69830295D01*
X105770230Y-69466227D01*
X105773917Y-69456095D01*
X105920003Y-69103412D01*
X105924561Y-69093638D01*
X106100822Y-68755045D01*
X106106217Y-68745700D01*
X106311325Y-68423744D01*
X106317515Y-68414905D01*
X106549896Y-68112060D01*
X106556834Y-68103791D01*
X106814726Y-67822352D01*
X106822352Y-67814726D01*
X107103791Y-67556834D01*
X107112060Y-67549896D01*
X107414905Y-67317515D01*
X107423744Y-67311325D01*
X107745700Y-67106217D01*
X107755045Y-67100822D01*
X108093638Y-66924561D01*
X108103412Y-66920003D01*
X108456095Y-66773917D01*
X108466227Y-66770230D01*
X108830295Y-66655440D01*
X108840709Y-66652649D01*
X109213405Y-66570025D01*
X109224025Y-66568152D01*
X109602495Y-66518326D01*
X109613226Y-66517386D01*
X109997297Y-66500617D01*
X110002706Y-66500500D01*
X110065892Y-66500500D01*
X179934108Y-66500500D01*
X179997294Y-66500500D01*
X180002702Y-66500617D01*
G37*
%TD.AperFunction*%
%TA.AperFunction,Conductor*%
G36*
X125324531Y-104595185D02*
G01*
X125363029Y-104634401D01*
X125407288Y-104706156D01*
X125407289Y-104706157D01*
X125501304Y-104800172D01*
X125534789Y-104861495D01*
X125529805Y-104931187D01*
X125501305Y-104975534D01*
X125407682Y-105069157D01*
X125315643Y-105218375D01*
X125315641Y-105218380D01*
X125260494Y-105384802D01*
X125260493Y-105384809D01*
X125250000Y-105487513D01*
X125250000Y-105550000D01*
X127649999Y-105550000D01*
X127649999Y-105487528D01*
X127649998Y-105487513D01*
X127639505Y-105384802D01*
X127584358Y-105218380D01*
X127584356Y-105218375D01*
X127521923Y-105117156D01*
X127503483Y-105049764D01*
X127524405Y-104983100D01*
X127578047Y-104938330D01*
X127647378Y-104929669D01*
X127710386Y-104959865D01*
X127715143Y-104964378D01*
X128163181Y-105412416D01*
X128196666Y-105473739D01*
X128199500Y-105500097D01*
X128199500Y-106112501D01*
X128199501Y-106112519D01*
X128210000Y-106215296D01*
X128210001Y-106215299D01*
X128260809Y-106368624D01*
X128265186Y-106381834D01*
X128305938Y-106447904D01*
X128324378Y-106515296D01*
X128303455Y-106581959D01*
X128249813Y-106626729D01*
X128200399Y-106637000D01*
X127649014Y-106637000D01*
X127581975Y-106617315D01*
X127536220Y-106564511D01*
X127526276Y-106495353D01*
X127543475Y-106447903D01*
X127584356Y-106381624D01*
X127584358Y-106381619D01*
X127639505Y-106215197D01*
X127639506Y-106215190D01*
X127649999Y-106112486D01*
X127650000Y-106112473D01*
X127650000Y-106050000D01*
X125250001Y-106050000D01*
X125250001Y-106112486D01*
X125260493Y-106215195D01*
X125280182Y-106274609D01*
X125282584Y-106344438D01*
X125246853Y-106404480D01*
X125184332Y-106435673D01*
X125114873Y-106428113D01*
X125074795Y-106401295D01*
X124536819Y-105863319D01*
X124503334Y-105801996D01*
X124500500Y-105775638D01*
X124500500Y-104927589D01*
X124520185Y-104860550D01*
X124572989Y-104814795D01*
X124610617Y-104804369D01*
X124779249Y-104785369D01*
X124779252Y-104785368D01*
X124779255Y-104785368D01*
X124949522Y-104725789D01*
X125102262Y-104629816D01*
X125120259Y-104611819D01*
X125181582Y-104578334D01*
X125207940Y-104575500D01*
X125257492Y-104575500D01*
X125324531Y-104595185D01*
G37*
%TD.AperFunction*%
%TA.AperFunction,Conductor*%
G36*
X121125629Y-96807275D02*
G01*
X121156117Y-96829617D01*
X122663181Y-98336681D01*
X122696666Y-98398004D01*
X122699500Y-98424362D01*
X122699500Y-102069987D01*
X122679815Y-102137026D01*
X122627011Y-102182781D01*
X122557853Y-102192725D01*
X122509461Y-102171814D01*
X122508158Y-102173889D01*
X122349523Y-102074211D01*
X122179254Y-102014631D01*
X122179249Y-102014630D01*
X122000004Y-101994435D01*
X121999996Y-101994435D01*
X121820750Y-102014630D01*
X121820745Y-102014631D01*
X121650476Y-102074211D01*
X121497736Y-102170185D01*
X121494903Y-102172445D01*
X121492724Y-102173334D01*
X121491842Y-102173889D01*
X121491744Y-102173734D01*
X121430217Y-102198855D01*
X121417588Y-102199500D01*
X117420942Y-102199500D01*
X117268214Y-102240423D01*
X117252061Y-102249750D01*
X117252058Y-102249751D01*
X117131290Y-102319475D01*
X117131282Y-102319481D01*
X116812181Y-102638583D01*
X116750858Y-102672068D01*
X116681166Y-102667084D01*
X116625233Y-102625212D01*
X116600816Y-102559748D01*
X116600500Y-102550902D01*
X116600500Y-101782412D01*
X116620185Y-101715373D01*
X116627555Y-101705097D01*
X116629810Y-101702267D01*
X116629816Y-101702262D01*
X116725789Y-101549522D01*
X116785368Y-101379255D01*
X116786074Y-101372989D01*
X116805565Y-101200003D01*
X116805565Y-101199997D01*
X116794335Y-101100333D01*
X116806389Y-101031511D01*
X116853738Y-100980132D01*
X116904953Y-100963091D01*
X116905844Y-100963000D01*
X116905848Y-100963000D01*
X117007775Y-100952587D01*
X117172925Y-100897862D01*
X117321003Y-100806526D01*
X117444026Y-100683503D01*
X117455379Y-100665095D01*
X117474312Y-100634403D01*
X117526260Y-100587678D01*
X117579850Y-100575500D01*
X118392072Y-100575500D01*
X118459111Y-100595185D01*
X118497609Y-100634401D01*
X118557288Y-100731156D01*
X118681344Y-100855212D01*
X118830666Y-100947314D01*
X118997203Y-101002499D01*
X119099991Y-101013000D01*
X120100008Y-101012999D01*
X120100016Y-101012998D01*
X120100019Y-101012998D01*
X120156302Y-101007248D01*
X120202797Y-101002499D01*
X120369334Y-100947314D01*
X120518656Y-100855212D01*
X120642712Y-100731156D01*
X120734814Y-100581834D01*
X120789999Y-100415297D01*
X120800500Y-100312509D01*
X120800499Y-99687492D01*
X120799902Y-99681652D01*
X120789999Y-99584703D01*
X120789998Y-99584700D01*
X120773232Y-99534103D01*
X120734814Y-99418166D01*
X120642712Y-99268844D01*
X120548695Y-99174827D01*
X120515210Y-99113504D01*
X120520194Y-99043812D01*
X120548695Y-98999464D01*
X120642317Y-98905842D01*
X120734356Y-98756624D01*
X120734358Y-98756619D01*
X120789505Y-98590197D01*
X120789506Y-98590190D01*
X120799999Y-98487486D01*
X120800000Y-98487473D01*
X120800000Y-98425000D01*
X118400001Y-98425000D01*
X118400001Y-98487486D01*
X118410494Y-98590197D01*
X118465641Y-98756619D01*
X118465643Y-98756624D01*
X118557684Y-98905845D01*
X118651304Y-98999465D01*
X118684789Y-99060788D01*
X118679805Y-99130480D01*
X118651305Y-99174827D01*
X118557288Y-99268844D01*
X118530356Y-99312509D01*
X118528451Y-99315597D01*
X118476503Y-99362321D01*
X118422912Y-99374500D01*
X117579850Y-99374500D01*
X117512811Y-99354815D01*
X117474312Y-99315597D01*
X117444028Y-99266500D01*
X117444025Y-99266496D01*
X117321004Y-99143475D01*
X117321003Y-99143474D01*
X117320301Y-99143041D01*
X117319921Y-99142618D01*
X117315336Y-99138993D01*
X117315955Y-99138209D01*
X117273575Y-99091098D01*
X117262349Y-99022136D01*
X117290188Y-98958052D01*
X117315455Y-98936157D01*
X117315336Y-98936007D01*
X117318687Y-98933356D01*
X117320299Y-98931959D01*
X117321003Y-98931526D01*
X117444026Y-98808503D01*
X117535362Y-98660425D01*
X117590087Y-98495275D01*
X117600500Y-98393348D01*
X117600500Y-97806652D01*
X117600499Y-97806649D01*
X117600496Y-97806576D01*
X117600500Y-97806559D01*
X117600500Y-97803495D01*
X117601232Y-97803495D01*
X117616740Y-97738621D01*
X117636650Y-97712583D01*
X118112416Y-97236819D01*
X118173739Y-97203334D01*
X118200097Y-97200500D01*
X118501977Y-97200500D01*
X118569016Y-97220185D01*
X118614771Y-97272989D01*
X118624715Y-97342147D01*
X118595690Y-97405703D01*
X118589658Y-97412181D01*
X118557684Y-97444154D01*
X118465643Y-97593375D01*
X118465641Y-97593380D01*
X118410494Y-97759802D01*
X118410493Y-97759809D01*
X118400000Y-97862513D01*
X118400000Y-97925000D01*
X120799999Y-97925000D01*
X120799999Y-97862528D01*
X120799998Y-97862513D01*
X120789505Y-97759802D01*
X120734358Y-97593380D01*
X120734356Y-97593375D01*
X120642315Y-97444153D01*
X120637839Y-97438493D01*
X120639266Y-97437364D01*
X120610281Y-97384282D01*
X120615265Y-97314590D01*
X120657137Y-97258657D01*
X120665476Y-97252930D01*
X120702262Y-97229816D01*
X120829816Y-97102262D01*
X120925789Y-96949522D01*
X120951395Y-96876342D01*
X120992115Y-96819569D01*
X121057067Y-96793820D01*
X121125629Y-96807275D01*
G37*
%TD.AperFunction*%
%TA.AperFunction,Conductor*%
G36*
X125324531Y-97795185D02*
G01*
X125363029Y-97834401D01*
X125404886Y-97902261D01*
X125407289Y-97906157D01*
X125501304Y-98000172D01*
X125534789Y-98061495D01*
X125529805Y-98131187D01*
X125501305Y-98175534D01*
X125407682Y-98269157D01*
X125315643Y-98418375D01*
X125315641Y-98418380D01*
X125260494Y-98584802D01*
X125260493Y-98584809D01*
X125250000Y-98687513D01*
X125250000Y-98750000D01*
X127649999Y-98750000D01*
X127649999Y-98687528D01*
X127649998Y-98687513D01*
X127639505Y-98584802D01*
X127584358Y-98418380D01*
X127584356Y-98418375D01*
X127521923Y-98317156D01*
X127503483Y-98249764D01*
X127524405Y-98183100D01*
X127578047Y-98138330D01*
X127647378Y-98129669D01*
X127710386Y-98159865D01*
X127715143Y-98164378D01*
X128163181Y-98612416D01*
X128196666Y-98673739D01*
X128199500Y-98700097D01*
X128199500Y-99312501D01*
X128199501Y-99312519D01*
X128210000Y-99415296D01*
X128210001Y-99415299D01*
X128265185Y-99581831D01*
X128265189Y-99581840D01*
X128344488Y-99710404D01*
X128362928Y-99777796D01*
X128342005Y-99844459D01*
X128288363Y-99889229D01*
X128238949Y-99899500D01*
X127610464Y-99899500D01*
X127543425Y-99879815D01*
X127497670Y-99827011D01*
X127487726Y-99757853D01*
X127504925Y-99710403D01*
X127584356Y-99581624D01*
X127584358Y-99581619D01*
X127639505Y-99415197D01*
X127639506Y-99415190D01*
X127649999Y-99312486D01*
X127650000Y-99312473D01*
X127650000Y-99250000D01*
X125250001Y-99250000D01*
X125250001Y-99312486D01*
X125260494Y-99415197D01*
X125315641Y-99581619D01*
X125315643Y-99581624D01*
X125395075Y-99710403D01*
X125413515Y-99777796D01*
X125392592Y-99844459D01*
X125338950Y-99889229D01*
X125289536Y-99899500D01*
X124624500Y-99899500D01*
X124557461Y-99879815D01*
X124511706Y-99827011D01*
X124500500Y-99775500D01*
X124500500Y-97905217D01*
X124501755Y-97905217D01*
X124513554Y-97843007D01*
X124561619Y-97792297D01*
X124623937Y-97775500D01*
X125257492Y-97775500D01*
X125324531Y-97795185D01*
G37*
%TD.AperFunction*%
%TA.AperFunction,Conductor*%
G36*
X117087189Y-86282685D02*
G01*
X117125688Y-86321903D01*
X117155971Y-86370999D01*
X117155974Y-86371003D01*
X117278996Y-86494025D01*
X117279000Y-86494028D01*
X117279703Y-86494462D01*
X117280083Y-86494885D01*
X117284664Y-86498507D01*
X117284045Y-86499289D01*
X117326428Y-86546410D01*
X117337649Y-86615372D01*
X117309806Y-86679454D01*
X117284544Y-86701342D01*
X117284664Y-86701493D01*
X117281315Y-86704140D01*
X117279703Y-86705538D01*
X117279000Y-86705971D01*
X117278996Y-86705974D01*
X117155974Y-86828996D01*
X117155971Y-86829000D01*
X117064642Y-86977066D01*
X117064637Y-86977077D01*
X117009913Y-87142223D01*
X116999500Y-87244144D01*
X116999500Y-87830855D01*
X117009913Y-87932776D01*
X117064637Y-88097922D01*
X117064642Y-88097933D01*
X117155971Y-88245999D01*
X117155974Y-88246003D01*
X117278996Y-88369025D01*
X117279000Y-88369028D01*
X117427066Y-88460357D01*
X117427069Y-88460358D01*
X117427075Y-88460362D01*
X117592225Y-88515087D01*
X117694152Y-88525500D01*
X117694157Y-88525500D01*
X118705843Y-88525500D01*
X118705848Y-88525500D01*
X118807775Y-88515087D01*
X118972925Y-88460362D01*
X119121003Y-88369026D01*
X119244026Y-88246003D01*
X119255379Y-88227595D01*
X119274312Y-88196903D01*
X119326260Y-88150178D01*
X119379850Y-88138000D01*
X119768942Y-88138000D01*
X119835981Y-88157685D01*
X119874479Y-88196901D01*
X119957288Y-88331156D01*
X120081344Y-88455212D01*
X120230666Y-88547314D01*
X120397203Y-88602499D01*
X120499991Y-88613000D01*
X121500008Y-88612999D01*
X121500016Y-88612998D01*
X121500019Y-88612998D01*
X121556302Y-88607248D01*
X121602797Y-88602499D01*
X121622829Y-88595860D01*
X121692655Y-88593456D01*
X121752698Y-88629185D01*
X121783894Y-88691704D01*
X121776337Y-88761164D01*
X121749517Y-88801246D01*
X120518786Y-90031978D01*
X120406981Y-90143782D01*
X120406979Y-90143785D01*
X120374813Y-90199500D01*
X120374812Y-90199501D01*
X120358681Y-90227441D01*
X120308115Y-90275656D01*
X120290298Y-90283147D01*
X120118168Y-90340185D01*
X120118163Y-90340187D01*
X119968842Y-90432289D01*
X119844789Y-90556342D01*
X119752687Y-90705663D01*
X119752686Y-90705666D01*
X119697501Y-90872203D01*
X119697501Y-90872204D01*
X119697500Y-90872204D01*
X119687000Y-90974983D01*
X119687000Y-91600001D01*
X119687001Y-91600019D01*
X119697500Y-91702796D01*
X119697501Y-91702799D01*
X119748779Y-91857544D01*
X119752686Y-91869334D01*
X119839915Y-92010756D01*
X119844789Y-92018657D01*
X119938451Y-92112319D01*
X119971936Y-92173642D01*
X119966952Y-92243334D01*
X119938451Y-92287681D01*
X119844789Y-92381342D01*
X119752687Y-92530663D01*
X119752685Y-92530668D01*
X119724849Y-92614670D01*
X119697501Y-92697203D01*
X119697501Y-92697204D01*
X119697500Y-92697204D01*
X119687000Y-92799983D01*
X119687000Y-93425001D01*
X119687001Y-93425019D01*
X119697500Y-93527796D01*
X119697501Y-93527799D01*
X119721592Y-93600500D01*
X119752686Y-93694334D01*
X119844788Y-93843656D01*
X119968844Y-93967712D01*
X120118166Y-94059814D01*
X120118170Y-94059815D01*
X120124709Y-94062864D01*
X120123413Y-94065642D01*
X120169531Y-94097585D01*
X120196341Y-94162106D01*
X120184013Y-94230879D01*
X120136461Y-94282070D01*
X120073067Y-94299500D01*
X115311303Y-94299500D01*
X115137341Y-94334103D01*
X115137333Y-94334105D01*
X114973455Y-94401985D01*
X114973446Y-94401990D01*
X114825964Y-94500535D01*
X114825960Y-94500538D01*
X111163319Y-98163181D01*
X111101996Y-98196666D01*
X111075638Y-98199500D01*
X108660758Y-98199500D01*
X108593719Y-98179815D01*
X108573077Y-98163181D01*
X108471402Y-98061506D01*
X108471401Y-98061505D01*
X108285405Y-97931269D01*
X108241781Y-97876692D01*
X108234588Y-97807193D01*
X108266110Y-97744839D01*
X108285405Y-97728119D01*
X108471082Y-97598105D01*
X108638105Y-97431082D01*
X108773600Y-97237578D01*
X108873429Y-97023492D01*
X108873432Y-97023486D01*
X108930636Y-96810000D01*
X108033012Y-96810000D01*
X108065925Y-96752993D01*
X108100000Y-96625826D01*
X108100000Y-96494174D01*
X108065925Y-96367007D01*
X108033012Y-96310000D01*
X108930636Y-96310000D01*
X108930635Y-96309999D01*
X108873432Y-96096513D01*
X108873429Y-96096507D01*
X108773600Y-95882422D01*
X108773599Y-95882420D01*
X108638113Y-95688926D01*
X108638108Y-95688920D01*
X108471078Y-95521890D01*
X108285405Y-95391879D01*
X108241780Y-95337302D01*
X108234588Y-95267804D01*
X108266110Y-95205449D01*
X108285406Y-95188730D01*
X108351665Y-95142335D01*
X108471401Y-95058495D01*
X108638495Y-94891401D01*
X108774035Y-94697830D01*
X108873903Y-94483663D01*
X108935063Y-94255408D01*
X108955659Y-94020000D01*
X108955166Y-94014370D01*
X108942789Y-93872896D01*
X108935063Y-93784592D01*
X108873903Y-93556337D01*
X108774035Y-93342171D01*
X108744882Y-93300535D01*
X108638494Y-93148597D01*
X108471402Y-92981506D01*
X108471396Y-92981501D01*
X108285842Y-92851575D01*
X108242217Y-92796998D01*
X108235023Y-92727500D01*
X108266546Y-92665145D01*
X108285842Y-92648425D01*
X108379728Y-92582685D01*
X108471401Y-92518495D01*
X108638495Y-92351401D01*
X108774035Y-92157830D01*
X108873903Y-91943663D01*
X108935063Y-91715408D01*
X108955659Y-91480000D01*
X108935063Y-91244592D01*
X108873903Y-91016337D01*
X108774035Y-90802171D01*
X108706464Y-90705668D01*
X108638494Y-90608597D01*
X108471402Y-90441506D01*
X108471396Y-90441501D01*
X108285842Y-90311575D01*
X108242217Y-90256998D01*
X108235023Y-90187500D01*
X108266546Y-90125145D01*
X108285842Y-90108425D01*
X108377252Y-90044419D01*
X108471401Y-89978495D01*
X108638495Y-89811401D01*
X108774035Y-89617830D01*
X108776707Y-89612097D01*
X108822878Y-89559658D01*
X108889091Y-89540500D01*
X112973331Y-89540500D01*
X112973347Y-89540501D01*
X112980943Y-89540501D01*
X113139054Y-89540501D01*
X113139057Y-89540501D01*
X113291785Y-89499577D01*
X113359092Y-89460717D01*
X113428716Y-89420520D01*
X113540520Y-89308716D01*
X113540520Y-89308714D01*
X113550724Y-89298511D01*
X113550727Y-89298506D01*
X116549916Y-86299319D01*
X116611239Y-86265834D01*
X116637597Y-86263000D01*
X117020150Y-86263000D01*
X117087189Y-86282685D01*
G37*
%TD.AperFunction*%
%TA.AperFunction,Conductor*%
G36*
X133566821Y-91907685D02*
G01*
X133605319Y-91946901D01*
X133657288Y-92031156D01*
X133657289Y-92031157D01*
X133751304Y-92125172D01*
X133784789Y-92186495D01*
X133779805Y-92256187D01*
X133751305Y-92300534D01*
X133657682Y-92394157D01*
X133565643Y-92543375D01*
X133565641Y-92543380D01*
X133510494Y-92709802D01*
X133510493Y-92709809D01*
X133500000Y-92812513D01*
X133500000Y-92875000D01*
X135899999Y-92875000D01*
X135899999Y-92812528D01*
X135899998Y-92812513D01*
X135889505Y-92709802D01*
X135834358Y-92543380D01*
X135834356Y-92543375D01*
X135742315Y-92394154D01*
X135648695Y-92300534D01*
X135615210Y-92239211D01*
X135620194Y-92169519D01*
X135648691Y-92125176D01*
X135742712Y-92031156D01*
X135779502Y-91971508D01*
X135831449Y-91924784D01*
X135900412Y-91913561D01*
X135964494Y-91941404D01*
X136003351Y-91999473D01*
X136008261Y-92022721D01*
X136014630Y-92079249D01*
X136074210Y-92249521D01*
X136086352Y-92268844D01*
X136165091Y-92394157D01*
X136170185Y-92402263D01*
X136172445Y-92405097D01*
X136173334Y-92407275D01*
X136173889Y-92408158D01*
X136173734Y-92408255D01*
X136198855Y-92469783D01*
X136199500Y-92482412D01*
X136199500Y-92813330D01*
X136199499Y-92813348D01*
X136199499Y-92979056D01*
X136238494Y-93124589D01*
X136236831Y-93194439D01*
X136206400Y-93244363D01*
X136075562Y-93375201D01*
X136014241Y-93408686D01*
X135944549Y-93403702D01*
X135900201Y-93375201D01*
X135900000Y-93375000D01*
X133500001Y-93375000D01*
X133500001Y-93437486D01*
X133510493Y-93540195D01*
X133542405Y-93636495D01*
X133544807Y-93706324D01*
X133509076Y-93766366D01*
X133446555Y-93797559D01*
X133424699Y-93799500D01*
X133321685Y-93799500D01*
X133254646Y-93779815D01*
X133208891Y-93727011D01*
X133198947Y-93657853D01*
X133203977Y-93636502D01*
X133239999Y-93527797D01*
X133250500Y-93425009D01*
X133250499Y-92799992D01*
X133239999Y-92697203D01*
X133184814Y-92530666D01*
X133092712Y-92381344D01*
X132999048Y-92287680D01*
X132965564Y-92226358D01*
X132970548Y-92156666D01*
X132999049Y-92112319D01*
X133032119Y-92079249D01*
X133092712Y-92018656D01*
X133136970Y-91946902D01*
X133188917Y-91900179D01*
X133242508Y-91888000D01*
X133499782Y-91888000D01*
X133566821Y-91907685D01*
G37*
%TD.AperFunction*%
%TA.AperFunction,Conductor*%
G36*
X132084099Y-83620185D02*
G01*
X132104741Y-83636819D01*
X132363181Y-83895259D01*
X132396666Y-83956582D01*
X132399500Y-83982940D01*
X132399500Y-86948085D01*
X132398720Y-86961968D01*
X132394435Y-87000000D01*
X132398399Y-87035185D01*
X132398720Y-87038029D01*
X132399500Y-87051914D01*
X132399500Y-87078844D01*
X132407288Y-87118003D01*
X132408890Y-87128303D01*
X132414632Y-87179252D01*
X132414633Y-87179260D01*
X132422976Y-87203104D01*
X132427550Y-87219860D01*
X132430262Y-87233496D01*
X132450509Y-87282377D01*
X132452986Y-87288867D01*
X132454812Y-87294086D01*
X132474212Y-87349524D01*
X132480709Y-87359865D01*
X132490268Y-87378365D01*
X132490603Y-87379173D01*
X132490605Y-87379179D01*
X132527223Y-87433982D01*
X132529114Y-87436900D01*
X132570180Y-87502257D01*
X132570182Y-87502260D01*
X132578211Y-87510289D01*
X133039707Y-87971786D01*
X133039711Y-87971789D01*
X133170814Y-88059390D01*
X133170818Y-88059392D01*
X133170821Y-88059394D01*
X133316503Y-88119738D01*
X133408315Y-88138000D01*
X133471153Y-88150499D01*
X133471157Y-88150500D01*
X133471158Y-88150500D01*
X134154732Y-88150500D01*
X134218881Y-88168383D01*
X134250394Y-88187433D01*
X134260394Y-88193478D01*
X134422804Y-88244086D01*
X134493384Y-88250500D01*
X134493387Y-88250500D01*
X135106613Y-88250500D01*
X135106616Y-88250500D01*
X135177196Y-88244086D01*
X135339606Y-88193478D01*
X135411350Y-88150106D01*
X135478904Y-88132270D01*
X135545378Y-88153787D01*
X135589666Y-88207827D01*
X135599500Y-88256223D01*
X135599500Y-89913330D01*
X135599499Y-89913348D01*
X135599499Y-89920943D01*
X135599499Y-90079057D01*
X135602405Y-90089902D01*
X135633124Y-90204548D01*
X135631461Y-90274398D01*
X135592298Y-90332260D01*
X135528070Y-90359764D01*
X135474345Y-90354347D01*
X135469335Y-90352687D01*
X135469334Y-90352686D01*
X135302797Y-90297501D01*
X135302795Y-90297500D01*
X135200010Y-90287000D01*
X134199998Y-90287000D01*
X134199980Y-90287001D01*
X134097203Y-90297500D01*
X134097200Y-90297501D01*
X133930668Y-90352685D01*
X133930663Y-90352687D01*
X133781342Y-90444789D01*
X133657289Y-90568842D01*
X133620741Y-90628097D01*
X133568793Y-90674821D01*
X133515202Y-90687000D01*
X133242508Y-90687000D01*
X133175469Y-90667315D01*
X133136969Y-90628097D01*
X133092712Y-90556344D01*
X132968656Y-90432288D01*
X132842293Y-90354347D01*
X132829965Y-90346743D01*
X132783241Y-90294795D01*
X132772018Y-90225832D01*
X132778020Y-90200252D01*
X132785368Y-90179255D01*
X132786130Y-90172500D01*
X132805565Y-90000003D01*
X132805565Y-89999996D01*
X132785369Y-89820750D01*
X132785368Y-89820745D01*
X132760326Y-89749179D01*
X132725789Y-89650478D01*
X132705277Y-89617834D01*
X132656685Y-89540500D01*
X132629816Y-89497738D01*
X132502262Y-89370184D01*
X132407825Y-89310845D01*
X132349523Y-89274211D01*
X132179254Y-89214631D01*
X132179249Y-89214630D01*
X132000004Y-89194435D01*
X131999996Y-89194435D01*
X131820750Y-89214630D01*
X131820745Y-89214631D01*
X131650476Y-89274211D01*
X131497737Y-89370184D01*
X131370184Y-89497737D01*
X131274211Y-89650476D01*
X131214631Y-89820745D01*
X131214630Y-89820750D01*
X131194435Y-89999996D01*
X131194435Y-90000003D01*
X131214631Y-90179252D01*
X131239730Y-90250982D01*
X131243291Y-90320761D01*
X131208562Y-90381388D01*
X131187785Y-90397474D01*
X131131347Y-90432285D01*
X131131343Y-90432288D01*
X131007289Y-90556342D01*
X130915187Y-90705663D01*
X130915186Y-90705666D01*
X130860001Y-90872203D01*
X130860001Y-90872204D01*
X130860000Y-90872204D01*
X130849500Y-90974983D01*
X130849500Y-91600001D01*
X130849501Y-91600019D01*
X130860000Y-91702796D01*
X130860001Y-91702799D01*
X130911279Y-91857544D01*
X130915186Y-91869334D01*
X131002415Y-92010756D01*
X131007289Y-92018657D01*
X131100950Y-92112318D01*
X131134435Y-92173641D01*
X131129451Y-92243333D01*
X131100951Y-92287680D01*
X131025451Y-92363181D01*
X130964128Y-92396666D01*
X130937769Y-92399500D01*
X130280008Y-92399500D01*
X130212969Y-92379815D01*
X130174469Y-92340597D01*
X130130212Y-92268844D01*
X130036549Y-92175181D01*
X130003064Y-92113858D01*
X130008048Y-92044166D01*
X130036549Y-91999819D01*
X130074368Y-91962000D01*
X130130212Y-91906156D01*
X130222314Y-91756834D01*
X130277499Y-91590297D01*
X130288000Y-91487509D01*
X130287999Y-90862492D01*
X130277499Y-90759703D01*
X130222314Y-90593166D01*
X130130212Y-90443844D01*
X130006156Y-90319788D01*
X129905448Y-90257671D01*
X129856836Y-90227687D01*
X129856831Y-90227685D01*
X129803461Y-90210000D01*
X129690297Y-90172501D01*
X129690295Y-90172500D01*
X129587510Y-90162000D01*
X128587498Y-90162000D01*
X128587480Y-90162001D01*
X128484703Y-90172500D01*
X128484700Y-90172501D01*
X128318168Y-90227685D01*
X128318163Y-90227687D01*
X128168842Y-90319789D01*
X128044789Y-90443842D01*
X128044788Y-90443844D01*
X128022166Y-90480521D01*
X128015951Y-90490597D01*
X127964003Y-90537321D01*
X127910412Y-90549500D01*
X126204222Y-90549500D01*
X126137183Y-90529815D01*
X126091428Y-90477011D01*
X126085146Y-90460095D01*
X126050309Y-90340187D01*
X126039244Y-90302102D01*
X125955581Y-90160635D01*
X125955579Y-90160633D01*
X125955576Y-90160629D01*
X125839370Y-90044423D01*
X125839362Y-90044417D01*
X125697896Y-89960755D01*
X125697893Y-89960754D01*
X125540073Y-89914902D01*
X125540067Y-89914901D01*
X125503201Y-89912000D01*
X125503194Y-89912000D01*
X125071806Y-89912000D01*
X125071798Y-89912000D01*
X125034932Y-89914901D01*
X125034926Y-89914902D01*
X124877106Y-89960754D01*
X124877103Y-89960755D01*
X124735637Y-90044417D01*
X124735629Y-90044423D01*
X124619423Y-90160629D01*
X124619417Y-90160637D01*
X124535755Y-90302103D01*
X124535754Y-90302106D01*
X124489902Y-90459926D01*
X124489901Y-90459932D01*
X124487000Y-90496798D01*
X124487000Y-91663000D01*
X124467315Y-91730039D01*
X124414511Y-91775794D01*
X124363000Y-91787000D01*
X124121798Y-91787000D01*
X124084932Y-91789901D01*
X124084926Y-91789902D01*
X123927106Y-91835754D01*
X123927103Y-91835755D01*
X123785637Y-91919417D01*
X123785629Y-91919423D01*
X123669423Y-92035629D01*
X123669417Y-92035637D01*
X123585755Y-92177103D01*
X123585754Y-92177106D01*
X123539902Y-92334926D01*
X123539901Y-92334932D01*
X123537000Y-92371798D01*
X123537000Y-92388000D01*
X123517315Y-92455039D01*
X123464511Y-92500794D01*
X123413000Y-92512000D01*
X122080008Y-92512000D01*
X122012969Y-92492315D01*
X121974469Y-92453097D01*
X121952925Y-92418168D01*
X121930212Y-92381344D01*
X121836548Y-92287680D01*
X121803064Y-92226358D01*
X121808048Y-92156666D01*
X121836549Y-92112319D01*
X121869619Y-92079249D01*
X121930212Y-92018656D01*
X122022314Y-91869334D01*
X122077499Y-91702797D01*
X122088000Y-91600009D01*
X122087999Y-90974992D01*
X122077499Y-90872203D01*
X122022314Y-90705666D01*
X121930212Y-90556344D01*
X121899232Y-90525364D01*
X121865747Y-90464041D01*
X121870731Y-90394349D01*
X121899232Y-90350002D01*
X122500062Y-89749172D01*
X123175663Y-89073571D01*
X123175668Y-89073567D01*
X123185871Y-89063363D01*
X123185873Y-89063363D01*
X123297677Y-88951559D01*
X123304351Y-88939999D01*
X123366827Y-88831788D01*
X123366828Y-88831786D01*
X123370847Y-88824823D01*
X123376734Y-88814628D01*
X123417657Y-88661900D01*
X123417657Y-88503786D01*
X123417657Y-87890887D01*
X123437342Y-87823848D01*
X123490146Y-87778093D01*
X123559304Y-87768149D01*
X123622860Y-87797174D01*
X123629338Y-87803206D01*
X123681344Y-87855212D01*
X123830666Y-87947314D01*
X123997203Y-88002499D01*
X124099991Y-88013000D01*
X125100008Y-88012999D01*
X125100016Y-88012998D01*
X125100019Y-88012998D01*
X125156302Y-88007248D01*
X125202797Y-88002499D01*
X125369334Y-87947314D01*
X125518656Y-87855212D01*
X125642712Y-87731156D01*
X125686970Y-87659402D01*
X125738917Y-87612679D01*
X125792508Y-87600500D01*
X126207492Y-87600500D01*
X126274531Y-87620185D01*
X126313029Y-87659401D01*
X126357288Y-87731156D01*
X126481344Y-87855212D01*
X126630666Y-87947314D01*
X126797203Y-88002499D01*
X126899991Y-88013000D01*
X127900008Y-88012999D01*
X127900016Y-88012998D01*
X127900019Y-88012998D01*
X127956302Y-88007248D01*
X128002797Y-88002499D01*
X128169334Y-87947314D01*
X128318656Y-87855212D01*
X128442712Y-87731156D01*
X128486970Y-87659402D01*
X128538917Y-87612679D01*
X128592508Y-87600500D01*
X129207492Y-87600500D01*
X129274531Y-87620185D01*
X129313029Y-87659401D01*
X129357288Y-87731156D01*
X129481344Y-87855212D01*
X129630666Y-87947314D01*
X129797203Y-88002499D01*
X129899991Y-88013000D01*
X130900008Y-88012999D01*
X130900016Y-88012998D01*
X130900019Y-88012998D01*
X130956302Y-88007248D01*
X131002797Y-88002499D01*
X131169334Y-87947314D01*
X131318656Y-87855212D01*
X131442712Y-87731156D01*
X131534814Y-87581834D01*
X131589999Y-87415297D01*
X131600500Y-87312509D01*
X131600499Y-86687492D01*
X131589999Y-86584703D01*
X131534814Y-86418166D01*
X131442712Y-86268844D01*
X131348695Y-86174827D01*
X131315210Y-86113504D01*
X131320194Y-86043812D01*
X131348695Y-85999464D01*
X131442317Y-85905842D01*
X131534356Y-85756624D01*
X131534358Y-85756619D01*
X131589505Y-85590197D01*
X131589506Y-85590190D01*
X131599999Y-85487486D01*
X131600000Y-85487473D01*
X131600000Y-85425000D01*
X129200001Y-85425000D01*
X129200001Y-85487486D01*
X129210494Y-85590197D01*
X129265641Y-85756619D01*
X129265643Y-85756624D01*
X129357684Y-85905845D01*
X129451304Y-85999465D01*
X129484789Y-86060788D01*
X129479805Y-86130480D01*
X129451305Y-86174827D01*
X129357287Y-86268845D01*
X129313031Y-86340597D01*
X129261083Y-86387321D01*
X129207492Y-86399500D01*
X128592508Y-86399500D01*
X128525469Y-86379815D01*
X128486969Y-86340597D01*
X128442712Y-86268844D01*
X128348695Y-86174827D01*
X128315210Y-86113504D01*
X128320194Y-86043812D01*
X128348695Y-85999464D01*
X128442317Y-85905842D01*
X128534356Y-85756624D01*
X128534358Y-85756619D01*
X128589505Y-85590197D01*
X128589506Y-85590190D01*
X128599999Y-85487486D01*
X128600000Y-85487473D01*
X128600000Y-85425000D01*
X126200001Y-85425000D01*
X126200001Y-85487486D01*
X126210494Y-85590197D01*
X126265641Y-85756619D01*
X126265643Y-85756624D01*
X126357684Y-85905845D01*
X126451304Y-85999465D01*
X126484789Y-86060788D01*
X126479805Y-86130480D01*
X126451305Y-86174827D01*
X126357287Y-86268845D01*
X126313031Y-86340597D01*
X126261083Y-86387321D01*
X126207492Y-86399500D01*
X125792508Y-86399500D01*
X125725469Y-86379815D01*
X125686969Y-86340597D01*
X125642712Y-86268844D01*
X125549049Y-86175181D01*
X125515564Y-86113858D01*
X125520548Y-86044166D01*
X125549049Y-85999819D01*
X125593026Y-85955842D01*
X125642712Y-85906156D01*
X125734814Y-85756834D01*
X125789999Y-85590297D01*
X125800500Y-85487509D01*
X125800499Y-84862513D01*
X126200000Y-84862513D01*
X126200000Y-84925000D01*
X127150000Y-84925000D01*
X127650000Y-84925000D01*
X128599999Y-84925000D01*
X128599999Y-84862528D01*
X128599998Y-84862513D01*
X129200000Y-84862513D01*
X129200000Y-84925000D01*
X130150000Y-84925000D01*
X130650000Y-84925000D01*
X131599999Y-84925000D01*
X131599999Y-84862528D01*
X131599998Y-84862513D01*
X131589505Y-84759802D01*
X131534358Y-84593380D01*
X131534356Y-84593375D01*
X131442315Y-84444154D01*
X131318345Y-84320184D01*
X131169124Y-84228143D01*
X131169119Y-84228141D01*
X131002697Y-84172994D01*
X131002690Y-84172993D01*
X130899986Y-84162500D01*
X130650000Y-84162500D01*
X130650000Y-84925000D01*
X130150000Y-84925000D01*
X130150000Y-84162500D01*
X129900029Y-84162500D01*
X129900012Y-84162501D01*
X129797302Y-84172994D01*
X129630880Y-84228141D01*
X129630875Y-84228143D01*
X129481654Y-84320184D01*
X129357684Y-84444154D01*
X129265643Y-84593375D01*
X129265641Y-84593380D01*
X129210494Y-84759802D01*
X129210493Y-84759809D01*
X129200000Y-84862513D01*
X128599998Y-84862513D01*
X128589505Y-84759802D01*
X128534358Y-84593380D01*
X128534356Y-84593375D01*
X128442315Y-84444154D01*
X128318345Y-84320184D01*
X128169124Y-84228143D01*
X128169119Y-84228141D01*
X128002697Y-84172994D01*
X128002690Y-84172993D01*
X127899986Y-84162500D01*
X127650000Y-84162500D01*
X127650000Y-84925000D01*
X127150000Y-84925000D01*
X127150000Y-84162500D01*
X126900029Y-84162500D01*
X126900012Y-84162501D01*
X126797302Y-84172994D01*
X126630880Y-84228141D01*
X126630875Y-84228143D01*
X126481654Y-84320184D01*
X126357684Y-84444154D01*
X126265643Y-84593375D01*
X126265641Y-84593380D01*
X126210494Y-84759802D01*
X126210493Y-84759809D01*
X126200000Y-84862513D01*
X125800499Y-84862513D01*
X125800499Y-84862492D01*
X125796997Y-84828213D01*
X125789999Y-84759703D01*
X125789998Y-84759700D01*
X125783671Y-84740606D01*
X125734814Y-84593166D01*
X125642712Y-84443844D01*
X125518656Y-84319788D01*
X125518655Y-84319787D01*
X125459402Y-84283239D01*
X125412678Y-84231291D01*
X125400500Y-84177701D01*
X125400500Y-83724500D01*
X125420185Y-83657461D01*
X125472989Y-83611706D01*
X125524500Y-83600500D01*
X129121158Y-83600500D01*
X132017060Y-83600500D01*
X132084099Y-83620185D01*
G37*
%TD.AperFunction*%
%TA.AperFunction,Conductor*%
G36*
X119829475Y-85020185D02*
G01*
X119875230Y-85072989D01*
X119885174Y-85142147D01*
X119867973Y-85189600D01*
X119865643Y-85193376D01*
X119865641Y-85193380D01*
X119810494Y-85359802D01*
X119810493Y-85359809D01*
X119800000Y-85462513D01*
X119800000Y-85525000D01*
X121126000Y-85525000D01*
X121193039Y-85544685D01*
X121238794Y-85597489D01*
X121250000Y-85649000D01*
X121250000Y-85901000D01*
X121230315Y-85968039D01*
X121177511Y-86013794D01*
X121126000Y-86025000D01*
X119800001Y-86025000D01*
X119800001Y-86087486D01*
X119810494Y-86190197D01*
X119865641Y-86356619D01*
X119865643Y-86356624D01*
X119957684Y-86505845D01*
X120051304Y-86599465D01*
X120084789Y-86660788D01*
X120079805Y-86730480D01*
X120051305Y-86774827D01*
X119957286Y-86868846D01*
X119951580Y-86878098D01*
X119899632Y-86924822D01*
X119846042Y-86937000D01*
X119379850Y-86937000D01*
X119312811Y-86917315D01*
X119274312Y-86878097D01*
X119244028Y-86829000D01*
X119244025Y-86828996D01*
X119121004Y-86705975D01*
X119121003Y-86705974D01*
X119120301Y-86705541D01*
X119119921Y-86705118D01*
X119115336Y-86701493D01*
X119115955Y-86700709D01*
X119073575Y-86653598D01*
X119062349Y-86584636D01*
X119090188Y-86520552D01*
X119115455Y-86498657D01*
X119115336Y-86498507D01*
X119118687Y-86495856D01*
X119120299Y-86494459D01*
X119121003Y-86494026D01*
X119244026Y-86371003D01*
X119335362Y-86222925D01*
X119390087Y-86057775D01*
X119400500Y-85955848D01*
X119400500Y-85369152D01*
X119390087Y-85267225D01*
X119355716Y-85163502D01*
X119353315Y-85093676D01*
X119389047Y-85033634D01*
X119451567Y-85002441D01*
X119473423Y-85000500D01*
X119762436Y-85000500D01*
X119829475Y-85020185D01*
G37*
%TD.AperFunction*%
%TA.AperFunction,Conductor*%
G36*
X129140117Y-77673500D02*
G01*
X129191317Y-77721043D01*
X129208117Y-77771855D01*
X129210001Y-77790297D01*
X129210001Y-77790299D01*
X129254863Y-77925681D01*
X129265186Y-77956834D01*
X129357287Y-78106155D01*
X129357289Y-78106157D01*
X129451304Y-78200172D01*
X129484789Y-78261495D01*
X129479805Y-78331187D01*
X129451305Y-78375534D01*
X129357682Y-78469157D01*
X129265643Y-78618375D01*
X129265642Y-78618378D01*
X129232946Y-78717047D01*
X129193173Y-78774492D01*
X129128656Y-78801314D01*
X129059881Y-78788999D01*
X129008681Y-78741455D01*
X128991882Y-78690640D01*
X128991005Y-78682057D01*
X128989999Y-78672203D01*
X128934814Y-78505666D01*
X128842712Y-78356344D01*
X128748695Y-78262327D01*
X128715210Y-78201004D01*
X128720194Y-78131312D01*
X128748695Y-78086964D01*
X128842317Y-77993342D01*
X128934356Y-77844124D01*
X128934358Y-77844119D01*
X128967053Y-77745453D01*
X129006825Y-77688008D01*
X129071341Y-77661185D01*
X129140117Y-77673500D01*
G37*
%TD.AperFunction*%
%TA.AperFunction,Conductor*%
G36*
X126205703Y-73467884D02*
G01*
X126212181Y-73473916D01*
X126527639Y-73789374D01*
X126527649Y-73789385D01*
X126531979Y-73793715D01*
X126531980Y-73793716D01*
X126643784Y-73905520D01*
X126701368Y-73938765D01*
X126730595Y-73955639D01*
X126730597Y-73955641D01*
X126768651Y-73977611D01*
X126780715Y-73984577D01*
X126933443Y-74025500D01*
X126933451Y-74025500D01*
X126941503Y-74026561D01*
X126941331Y-74027864D01*
X127000317Y-74045185D01*
X127046072Y-74097989D01*
X127052354Y-74114905D01*
X127098254Y-74272893D01*
X127098255Y-74272896D01*
X127181917Y-74414362D01*
X127181923Y-74414370D01*
X127298129Y-74530576D01*
X127298133Y-74530579D01*
X127298135Y-74530581D01*
X127439602Y-74614244D01*
X127481224Y-74626336D01*
X127597426Y-74660097D01*
X127597429Y-74660097D01*
X127597431Y-74660098D01*
X127634306Y-74663000D01*
X127634314Y-74663000D01*
X128065686Y-74663000D01*
X128065694Y-74663000D01*
X128065729Y-74662997D01*
X128065734Y-74662998D01*
X128068132Y-74662904D01*
X128068155Y-74663505D01*
X128134111Y-74677337D01*
X128183885Y-74726372D01*
X128199500Y-74786611D01*
X128199500Y-75200830D01*
X128199499Y-75200848D01*
X128199499Y-75366554D01*
X128199498Y-75366554D01*
X128239408Y-75515500D01*
X128240423Y-75519285D01*
X128257868Y-75549500D01*
X128298464Y-75619815D01*
X128319479Y-75656214D01*
X128319481Y-75656217D01*
X128438349Y-75775085D01*
X128438355Y-75775090D01*
X129268815Y-76605551D01*
X129302300Y-76666874D01*
X129297316Y-76736566D01*
X129286675Y-76758326D01*
X129265185Y-76793167D01*
X129232438Y-76891993D01*
X129192665Y-76949438D01*
X129128149Y-76976261D01*
X129059373Y-76963946D01*
X129008174Y-76916403D01*
X128991374Y-76865590D01*
X128989505Y-76847303D01*
X128934358Y-76680880D01*
X128934356Y-76680875D01*
X128842315Y-76531654D01*
X128718345Y-76407684D01*
X128569124Y-76315643D01*
X128569119Y-76315641D01*
X128402697Y-76260494D01*
X128402690Y-76260493D01*
X128299986Y-76250000D01*
X128050000Y-76250000D01*
X128050000Y-77388500D01*
X128030315Y-77455539D01*
X127977511Y-77501294D01*
X127926000Y-77512500D01*
X127674000Y-77512500D01*
X127606961Y-77492815D01*
X127561206Y-77440011D01*
X127550000Y-77388500D01*
X127550000Y-76250000D01*
X127300029Y-76250000D01*
X127300012Y-76250001D01*
X127197302Y-76260494D01*
X127030880Y-76315641D01*
X127030875Y-76315643D01*
X126881654Y-76407684D01*
X126757683Y-76531655D01*
X126757680Y-76531659D01*
X126671136Y-76671969D01*
X126619188Y-76718694D01*
X126550226Y-76729915D01*
X126486144Y-76702072D01*
X126460059Y-76671968D01*
X126442712Y-76643844D01*
X126318657Y-76519789D01*
X126318656Y-76519788D01*
X126169334Y-76427686D01*
X126085495Y-76399904D01*
X126028051Y-76360132D01*
X126001228Y-76295616D01*
X126000500Y-76282199D01*
X126000500Y-73561597D01*
X126020185Y-73494558D01*
X126072989Y-73448803D01*
X126142147Y-73438859D01*
X126205703Y-73467884D01*
G37*
%TD.AperFunction*%
%TD*%
M02*
