%TF.GenerationSoftware,KiCad,Pcbnew,8.0.3*%
%TF.CreationDate,2024-06-22T23:36:34-05:00*%
%TF.ProjectId,Ematch2,456d6174-6368-4322-9e6b-696361645f70,rev?*%
%TF.SameCoordinates,Original*%
%TF.FileFunction,Legend,Bot*%
%TF.FilePolarity,Positive*%
%FSLAX46Y46*%
G04 Gerber Fmt 4.6, Leading zero omitted, Abs format (unit mm)*
G04 Created by KiCad (PCBNEW 8.0.3) date 2024-06-22 23:36:34*
%MOMM*%
%LPD*%
G01*
G04 APERTURE LIST*
%ADD10C,0.150000*%
%ADD11C,0.005000*%
%ADD12C,7.500000*%
%ADD13C,5.700000*%
%ADD14C,2.400000*%
%ADD15O,2.400000X2.400000*%
%ADD16R,1.700000X1.700000*%
%ADD17O,1.700000X1.700000*%
G04 APERTURE END LIST*
D10*
X180844173Y-94882200D02*
X181129887Y-95025057D01*
X181129887Y-95025057D02*
X181701316Y-95025057D01*
X181701316Y-95025057D02*
X181987030Y-94882200D01*
X181987030Y-94882200D02*
X182129887Y-94596485D01*
X182129887Y-94596485D02*
X182129887Y-93453628D01*
X182129887Y-93453628D02*
X181987030Y-93167914D01*
X181987030Y-93167914D02*
X181701316Y-93025057D01*
X181701316Y-93025057D02*
X181129887Y-93025057D01*
X181129887Y-93025057D02*
X180844173Y-93167914D01*
X180844173Y-93167914D02*
X180701316Y-93453628D01*
X180701316Y-93453628D02*
X180701316Y-93739342D01*
X180701316Y-93739342D02*
X182129887Y-94025057D01*
X179415601Y-95025057D02*
X179415601Y-93025057D01*
X179415601Y-93310771D02*
X179272744Y-93167914D01*
X179272744Y-93167914D02*
X178987029Y-93025057D01*
X178987029Y-93025057D02*
X178558458Y-93025057D01*
X178558458Y-93025057D02*
X178272744Y-93167914D01*
X178272744Y-93167914D02*
X178129887Y-93453628D01*
X178129887Y-93453628D02*
X178129887Y-95025057D01*
X178129887Y-93453628D02*
X177987029Y-93167914D01*
X177987029Y-93167914D02*
X177701315Y-93025057D01*
X177701315Y-93025057D02*
X177272744Y-93025057D01*
X177272744Y-93025057D02*
X176987029Y-93167914D01*
X176987029Y-93167914D02*
X176844172Y-93453628D01*
X176844172Y-93453628D02*
X176844172Y-95025057D01*
X174129887Y-95025057D02*
X174129887Y-93453628D01*
X174129887Y-93453628D02*
X174272744Y-93167914D01*
X174272744Y-93167914D02*
X174558458Y-93025057D01*
X174558458Y-93025057D02*
X175129887Y-93025057D01*
X175129887Y-93025057D02*
X175415601Y-93167914D01*
X174129887Y-94882200D02*
X174415601Y-95025057D01*
X174415601Y-95025057D02*
X175129887Y-95025057D01*
X175129887Y-95025057D02*
X175415601Y-94882200D01*
X175415601Y-94882200D02*
X175558458Y-94596485D01*
X175558458Y-94596485D02*
X175558458Y-94310771D01*
X175558458Y-94310771D02*
X175415601Y-94025057D01*
X175415601Y-94025057D02*
X175129887Y-93882200D01*
X175129887Y-93882200D02*
X174415601Y-93882200D01*
X174415601Y-93882200D02*
X174129887Y-93739342D01*
X173129886Y-93025057D02*
X171987029Y-93025057D01*
X172701315Y-92025057D02*
X172701315Y-94596485D01*
X172701315Y-94596485D02*
X172558458Y-94882200D01*
X172558458Y-94882200D02*
X172272743Y-95025057D01*
X172272743Y-95025057D02*
X171987029Y-95025057D01*
X169701315Y-94882200D02*
X169987029Y-95025057D01*
X169987029Y-95025057D02*
X170558457Y-95025057D01*
X170558457Y-95025057D02*
X170844172Y-94882200D01*
X170844172Y-94882200D02*
X170987029Y-94739342D01*
X170987029Y-94739342D02*
X171129886Y-94453628D01*
X171129886Y-94453628D02*
X171129886Y-93596485D01*
X171129886Y-93596485D02*
X170987029Y-93310771D01*
X170987029Y-93310771D02*
X170844172Y-93167914D01*
X170844172Y-93167914D02*
X170558457Y-93025057D01*
X170558457Y-93025057D02*
X169987029Y-93025057D01*
X169987029Y-93025057D02*
X169701315Y-93167914D01*
X168415600Y-95025057D02*
X168415600Y-92025057D01*
X167129886Y-95025057D02*
X167129886Y-93453628D01*
X167129886Y-93453628D02*
X167272743Y-93167914D01*
X167272743Y-93167914D02*
X167558457Y-93025057D01*
X167558457Y-93025057D02*
X167987028Y-93025057D01*
X167987028Y-93025057D02*
X168272743Y-93167914D01*
X168272743Y-93167914D02*
X168415600Y-93310771D01*
X165844171Y-92310771D02*
X165701314Y-92167914D01*
X165701314Y-92167914D02*
X165415600Y-92025057D01*
X165415600Y-92025057D02*
X164701314Y-92025057D01*
X164701314Y-92025057D02*
X164415600Y-92167914D01*
X164415600Y-92167914D02*
X164272742Y-92310771D01*
X164272742Y-92310771D02*
X164129885Y-92596485D01*
X164129885Y-92596485D02*
X164129885Y-92882200D01*
X164129885Y-92882200D02*
X164272742Y-93310771D01*
X164272742Y-93310771D02*
X165987028Y-95025057D01*
X165987028Y-95025057D02*
X164129885Y-95025057D01*
X160844171Y-93025057D02*
X160129885Y-95025057D01*
X160129885Y-95025057D02*
X159415600Y-93025057D01*
X156701314Y-95025057D02*
X158415600Y-95025057D01*
X157558457Y-95025057D02*
X157558457Y-92025057D01*
X157558457Y-92025057D02*
X157844171Y-92453628D01*
X157844171Y-92453628D02*
X158129886Y-92739342D01*
X158129886Y-92739342D02*
X158415600Y-92882200D01*
X155415600Y-94739342D02*
X155272743Y-94882200D01*
X155272743Y-94882200D02*
X155415600Y-95025057D01*
X155415600Y-95025057D02*
X155558457Y-94882200D01*
X155558457Y-94882200D02*
X155415600Y-94739342D01*
X155415600Y-94739342D02*
X155415600Y-95025057D01*
X153415600Y-92025057D02*
X153129886Y-92025057D01*
X153129886Y-92025057D02*
X152844172Y-92167914D01*
X152844172Y-92167914D02*
X152701315Y-92310771D01*
X152701315Y-92310771D02*
X152558457Y-92596485D01*
X152558457Y-92596485D02*
X152415600Y-93167914D01*
X152415600Y-93167914D02*
X152415600Y-93882200D01*
X152415600Y-93882200D02*
X152558457Y-94453628D01*
X152558457Y-94453628D02*
X152701315Y-94739342D01*
X152701315Y-94739342D02*
X152844172Y-94882200D01*
X152844172Y-94882200D02*
X153129886Y-95025057D01*
X153129886Y-95025057D02*
X153415600Y-95025057D01*
X153415600Y-95025057D02*
X153701315Y-94882200D01*
X153701315Y-94882200D02*
X153844172Y-94739342D01*
X153844172Y-94739342D02*
X153987029Y-94453628D01*
X153987029Y-94453628D02*
X154129886Y-93882200D01*
X154129886Y-93882200D02*
X154129886Y-93167914D01*
X154129886Y-93167914D02*
X153987029Y-92596485D01*
X153987029Y-92596485D02*
X153844172Y-92310771D01*
X153844172Y-92310771D02*
X153701315Y-92167914D01*
X153701315Y-92167914D02*
X153415600Y-92025057D01*
X147558458Y-92025057D02*
X148129886Y-92025057D01*
X148129886Y-92025057D02*
X148415600Y-92167914D01*
X148415600Y-92167914D02*
X148558458Y-92310771D01*
X148558458Y-92310771D02*
X148844172Y-92739342D01*
X148844172Y-92739342D02*
X148987029Y-93310771D01*
X148987029Y-93310771D02*
X148987029Y-94453628D01*
X148987029Y-94453628D02*
X148844172Y-94739342D01*
X148844172Y-94739342D02*
X148701315Y-94882200D01*
X148701315Y-94882200D02*
X148415600Y-95025057D01*
X148415600Y-95025057D02*
X147844172Y-95025057D01*
X147844172Y-95025057D02*
X147558458Y-94882200D01*
X147558458Y-94882200D02*
X147415600Y-94739342D01*
X147415600Y-94739342D02*
X147272743Y-94453628D01*
X147272743Y-94453628D02*
X147272743Y-93739342D01*
X147272743Y-93739342D02*
X147415600Y-93453628D01*
X147415600Y-93453628D02*
X147558458Y-93310771D01*
X147558458Y-93310771D02*
X147844172Y-93167914D01*
X147844172Y-93167914D02*
X148415600Y-93167914D01*
X148415600Y-93167914D02*
X148701315Y-93310771D01*
X148701315Y-93310771D02*
X148844172Y-93453628D01*
X148844172Y-93453628D02*
X148987029Y-93739342D01*
X143844172Y-91882200D02*
X146415600Y-95739342D01*
X142987029Y-92310771D02*
X142844172Y-92167914D01*
X142844172Y-92167914D02*
X142558458Y-92025057D01*
X142558458Y-92025057D02*
X141844172Y-92025057D01*
X141844172Y-92025057D02*
X141558458Y-92167914D01*
X141558458Y-92167914D02*
X141415600Y-92310771D01*
X141415600Y-92310771D02*
X141272743Y-92596485D01*
X141272743Y-92596485D02*
X141272743Y-92882200D01*
X141272743Y-92882200D02*
X141415600Y-93310771D01*
X141415600Y-93310771D02*
X143129886Y-95025057D01*
X143129886Y-95025057D02*
X141272743Y-95025057D01*
X140129886Y-92310771D02*
X139987029Y-92167914D01*
X139987029Y-92167914D02*
X139701315Y-92025057D01*
X139701315Y-92025057D02*
X138987029Y-92025057D01*
X138987029Y-92025057D02*
X138701315Y-92167914D01*
X138701315Y-92167914D02*
X138558457Y-92310771D01*
X138558457Y-92310771D02*
X138415600Y-92596485D01*
X138415600Y-92596485D02*
X138415600Y-92882200D01*
X138415600Y-92882200D02*
X138558457Y-93310771D01*
X138558457Y-93310771D02*
X140272743Y-95025057D01*
X140272743Y-95025057D02*
X138415600Y-95025057D01*
X134987029Y-91882200D02*
X137558457Y-95739342D01*
X134129886Y-92310771D02*
X133987029Y-92167914D01*
X133987029Y-92167914D02*
X133701315Y-92025057D01*
X133701315Y-92025057D02*
X132987029Y-92025057D01*
X132987029Y-92025057D02*
X132701315Y-92167914D01*
X132701315Y-92167914D02*
X132558457Y-92310771D01*
X132558457Y-92310771D02*
X132415600Y-92596485D01*
X132415600Y-92596485D02*
X132415600Y-92882200D01*
X132415600Y-92882200D02*
X132558457Y-93310771D01*
X132558457Y-93310771D02*
X134272743Y-95025057D01*
X134272743Y-95025057D02*
X132415600Y-95025057D01*
X130558457Y-92025057D02*
X130272743Y-92025057D01*
X130272743Y-92025057D02*
X129987029Y-92167914D01*
X129987029Y-92167914D02*
X129844172Y-92310771D01*
X129844172Y-92310771D02*
X129701314Y-92596485D01*
X129701314Y-92596485D02*
X129558457Y-93167914D01*
X129558457Y-93167914D02*
X129558457Y-93882200D01*
X129558457Y-93882200D02*
X129701314Y-94453628D01*
X129701314Y-94453628D02*
X129844172Y-94739342D01*
X129844172Y-94739342D02*
X129987029Y-94882200D01*
X129987029Y-94882200D02*
X130272743Y-95025057D01*
X130272743Y-95025057D02*
X130558457Y-95025057D01*
X130558457Y-95025057D02*
X130844172Y-94882200D01*
X130844172Y-94882200D02*
X130987029Y-94739342D01*
X130987029Y-94739342D02*
X131129886Y-94453628D01*
X131129886Y-94453628D02*
X131272743Y-93882200D01*
X131272743Y-93882200D02*
X131272743Y-93167914D01*
X131272743Y-93167914D02*
X131129886Y-92596485D01*
X131129886Y-92596485D02*
X130987029Y-92310771D01*
X130987029Y-92310771D02*
X130844172Y-92167914D01*
X130844172Y-92167914D02*
X130558457Y-92025057D01*
X128415600Y-92310771D02*
X128272743Y-92167914D01*
X128272743Y-92167914D02*
X127987029Y-92025057D01*
X127987029Y-92025057D02*
X127272743Y-92025057D01*
X127272743Y-92025057D02*
X126987029Y-92167914D01*
X126987029Y-92167914D02*
X126844171Y-92310771D01*
X126844171Y-92310771D02*
X126701314Y-92596485D01*
X126701314Y-92596485D02*
X126701314Y-92882200D01*
X126701314Y-92882200D02*
X126844171Y-93310771D01*
X126844171Y-93310771D02*
X128558457Y-95025057D01*
X128558457Y-95025057D02*
X126701314Y-95025057D01*
X124129886Y-93025057D02*
X124129886Y-95025057D01*
X124844171Y-91882200D02*
X125558457Y-94025057D01*
X125558457Y-94025057D02*
X123701314Y-94025057D01*
X118558457Y-95025057D02*
X119558457Y-93596485D01*
X120272743Y-95025057D02*
X120272743Y-92025057D01*
X120272743Y-92025057D02*
X119129886Y-92025057D01*
X119129886Y-92025057D02*
X118844171Y-92167914D01*
X118844171Y-92167914D02*
X118701314Y-92310771D01*
X118701314Y-92310771D02*
X118558457Y-92596485D01*
X118558457Y-92596485D02*
X118558457Y-93025057D01*
X118558457Y-93025057D02*
X118701314Y-93310771D01*
X118701314Y-93310771D02*
X118844171Y-93453628D01*
X118844171Y-93453628D02*
X119129886Y-93596485D01*
X119129886Y-93596485D02*
X120272743Y-93596485D01*
X116415600Y-92025057D02*
X116415600Y-94167914D01*
X116415600Y-94167914D02*
X116558457Y-94596485D01*
X116558457Y-94596485D02*
X116844171Y-94882200D01*
X116844171Y-94882200D02*
X117272743Y-95025057D01*
X117272743Y-95025057D02*
X117558457Y-95025057D01*
X115129886Y-94167914D02*
X113701315Y-94167914D01*
X115415600Y-95025057D02*
X114415600Y-92025057D01*
X114415600Y-92025057D02*
X113415600Y-95025057D01*
D11*
%TO.C,G\u002A\u002A\u002A*%
X152778060Y-87433590D02*
X152885707Y-87889584D01*
X152991854Y-88341445D01*
X153094656Y-88781356D01*
X153192270Y-89201503D01*
X153282851Y-89594070D01*
X153364555Y-89951243D01*
X153435539Y-90265206D01*
X153493959Y-90528145D01*
X153537971Y-90732245D01*
X153565730Y-90869688D01*
X153575393Y-90932663D01*
X153549788Y-90946487D01*
X153449504Y-90958469D01*
X153282718Y-90963788D01*
X153059466Y-90961876D01*
X152543540Y-90949991D01*
X152254613Y-89701157D01*
X152227651Y-89584750D01*
X152156359Y-89278244D01*
X152091497Y-89001208D01*
X152035576Y-88764252D01*
X151991106Y-88577981D01*
X151960600Y-88453006D01*
X151946569Y-88399932D01*
X151937520Y-88384940D01*
X151887698Y-88380520D01*
X151788340Y-88428550D01*
X151653968Y-88496137D01*
X151384299Y-88595693D01*
X151056634Y-88683330D01*
X150687190Y-88754254D01*
X150674921Y-88756174D01*
X150165640Y-88794879D01*
X149672189Y-88752049D01*
X149199371Y-88628500D01*
X148751983Y-88425048D01*
X148401759Y-88198845D01*
X147994636Y-87850064D01*
X147634271Y-87440011D01*
X147325025Y-86976462D01*
X147071264Y-86467197D01*
X146877350Y-85919990D01*
X146747645Y-85342622D01*
X146686512Y-84742869D01*
X146685051Y-84699699D01*
X147776282Y-84699699D01*
X147790073Y-85044363D01*
X147860062Y-85547863D01*
X147985329Y-86021225D01*
X148161505Y-86457187D01*
X148384227Y-86848485D01*
X148649125Y-87187855D01*
X148951833Y-87468036D01*
X149287987Y-87681762D01*
X149653217Y-87821772D01*
X149653810Y-87821929D01*
X149791584Y-87845617D01*
X149985350Y-87862992D01*
X150207103Y-87873254D01*
X150428838Y-87875604D01*
X150622547Y-87869242D01*
X150760226Y-87853369D01*
X151000333Y-87796384D01*
X151242762Y-87723435D01*
X151448743Y-87645182D01*
X151606565Y-87566736D01*
X151704513Y-87493212D01*
X151730874Y-87429721D01*
X151727229Y-87414044D01*
X151706190Y-87322925D01*
X151669708Y-87164577D01*
X151620259Y-86949749D01*
X151560314Y-86689192D01*
X151492349Y-86393656D01*
X151418839Y-86073890D01*
X151397492Y-85981632D01*
X151318062Y-85648134D01*
X151238797Y-85329242D01*
X151163298Y-85038572D01*
X151095163Y-84789742D01*
X151037994Y-84596372D01*
X150995389Y-84472078D01*
X150928694Y-84315098D01*
X150736312Y-83954958D01*
X150512912Y-83663974D01*
X150250216Y-83432571D01*
X149939949Y-83251174D01*
X149883960Y-83224959D01*
X149767356Y-83175514D01*
X149661873Y-83144274D01*
X149543570Y-83127093D01*
X149388502Y-83119825D01*
X149172726Y-83118324D01*
X149108282Y-83118404D01*
X148910507Y-83121126D01*
X148769602Y-83130373D01*
X148663597Y-83149722D01*
X148570517Y-83182754D01*
X148468390Y-83233047D01*
X148390972Y-83276849D01*
X148161287Y-83455227D01*
X147987962Y-83680372D01*
X147868010Y-83958614D01*
X147798446Y-84296280D01*
X147776282Y-84699699D01*
X146685051Y-84699699D01*
X146682923Y-84636826D01*
X146688418Y-84253096D01*
X146728697Y-83920163D01*
X146807625Y-83615291D01*
X146929067Y-83315748D01*
X147024036Y-83143475D01*
X147254426Y-82854645D01*
X147547567Y-82611053D01*
X147893864Y-82419970D01*
X148283726Y-82288670D01*
X148284771Y-82288417D01*
X148502592Y-82253750D01*
X148776519Y-82236571D01*
X149080114Y-82236213D01*
X149386940Y-82252015D01*
X149670558Y-82283309D01*
X149904530Y-82329430D01*
X149930439Y-82336438D01*
X150405515Y-82508668D01*
X150832946Y-82750274D01*
X151210806Y-83059406D01*
X151537177Y-83434213D01*
X151810135Y-83872845D01*
X152027758Y-84373452D01*
X152045959Y-84433104D01*
X152084133Y-84574624D01*
X152137403Y-84782347D01*
X152203924Y-85048456D01*
X152281852Y-85365138D01*
X152369343Y-85724575D01*
X152464553Y-86118954D01*
X152565639Y-86540461D01*
X152670756Y-86981277D01*
X152777142Y-87429721D01*
X152778060Y-87433590D01*
G36*
X152778060Y-87433590D02*
G01*
X152885707Y-87889584D01*
X152991854Y-88341445D01*
X153094656Y-88781356D01*
X153192270Y-89201503D01*
X153282851Y-89594070D01*
X153364555Y-89951243D01*
X153435539Y-90265206D01*
X153493959Y-90528145D01*
X153537971Y-90732245D01*
X153565730Y-90869688D01*
X153575393Y-90932663D01*
X153549788Y-90946487D01*
X153449504Y-90958469D01*
X153282718Y-90963788D01*
X153059466Y-90961876D01*
X152543540Y-90949991D01*
X152254613Y-89701157D01*
X152227651Y-89584750D01*
X152156359Y-89278244D01*
X152091497Y-89001208D01*
X152035576Y-88764252D01*
X151991106Y-88577981D01*
X151960600Y-88453006D01*
X151946569Y-88399932D01*
X151937520Y-88384940D01*
X151887698Y-88380520D01*
X151788340Y-88428550D01*
X151653968Y-88496137D01*
X151384299Y-88595693D01*
X151056634Y-88683330D01*
X150687190Y-88754254D01*
X150674921Y-88756174D01*
X150165640Y-88794879D01*
X149672189Y-88752049D01*
X149199371Y-88628500D01*
X148751983Y-88425048D01*
X148401759Y-88198845D01*
X147994636Y-87850064D01*
X147634271Y-87440011D01*
X147325025Y-86976462D01*
X147071264Y-86467197D01*
X146877350Y-85919990D01*
X146747645Y-85342622D01*
X146686512Y-84742869D01*
X146685051Y-84699699D01*
X147776282Y-84699699D01*
X147790073Y-85044363D01*
X147860062Y-85547863D01*
X147985329Y-86021225D01*
X148161505Y-86457187D01*
X148384227Y-86848485D01*
X148649125Y-87187855D01*
X148951833Y-87468036D01*
X149287987Y-87681762D01*
X149653217Y-87821772D01*
X149653810Y-87821929D01*
X149791584Y-87845617D01*
X149985350Y-87862992D01*
X150207103Y-87873254D01*
X150428838Y-87875604D01*
X150622547Y-87869242D01*
X150760226Y-87853369D01*
X151000333Y-87796384D01*
X151242762Y-87723435D01*
X151448743Y-87645182D01*
X151606565Y-87566736D01*
X151704513Y-87493212D01*
X151730874Y-87429721D01*
X151727229Y-87414044D01*
X151706190Y-87322925D01*
X151669708Y-87164577D01*
X151620259Y-86949749D01*
X151560314Y-86689192D01*
X151492349Y-86393656D01*
X151418839Y-86073890D01*
X151397492Y-85981632D01*
X151318062Y-85648134D01*
X151238797Y-85329242D01*
X151163298Y-85038572D01*
X151095163Y-84789742D01*
X151037994Y-84596372D01*
X150995389Y-84472078D01*
X150928694Y-84315098D01*
X150736312Y-83954958D01*
X150512912Y-83663974D01*
X150250216Y-83432571D01*
X149939949Y-83251174D01*
X149883960Y-83224959D01*
X149767356Y-83175514D01*
X149661873Y-83144274D01*
X149543570Y-83127093D01*
X149388502Y-83119825D01*
X149172726Y-83118324D01*
X149108282Y-83118404D01*
X148910507Y-83121126D01*
X148769602Y-83130373D01*
X148663597Y-83149722D01*
X148570517Y-83182754D01*
X148468390Y-83233047D01*
X148390972Y-83276849D01*
X148161287Y-83455227D01*
X147987962Y-83680372D01*
X147868010Y-83958614D01*
X147798446Y-84296280D01*
X147776282Y-84699699D01*
X146685051Y-84699699D01*
X146682923Y-84636826D01*
X146688418Y-84253096D01*
X146728697Y-83920163D01*
X146807625Y-83615291D01*
X146929067Y-83315748D01*
X147024036Y-83143475D01*
X147254426Y-82854645D01*
X147547567Y-82611053D01*
X147893864Y-82419970D01*
X148283726Y-82288670D01*
X148284771Y-82288417D01*
X148502592Y-82253750D01*
X148776519Y-82236571D01*
X149080114Y-82236213D01*
X149386940Y-82252015D01*
X149670558Y-82283309D01*
X149904530Y-82329430D01*
X149930439Y-82336438D01*
X150405515Y-82508668D01*
X150832946Y-82750274D01*
X151210806Y-83059406D01*
X151537177Y-83434213D01*
X151810135Y-83872845D01*
X152027758Y-84373452D01*
X152045959Y-84433104D01*
X152084133Y-84574624D01*
X152137403Y-84782347D01*
X152203924Y-85048456D01*
X152281852Y-85365138D01*
X152369343Y-85724575D01*
X152464553Y-86118954D01*
X152565639Y-86540461D01*
X152670756Y-86981277D01*
X152777142Y-87429721D01*
X152778060Y-87433590D01*
G37*
X155221851Y-83055031D02*
X155671374Y-83056164D01*
X156050760Y-83058949D01*
X156367478Y-83064113D01*
X156629001Y-83072387D01*
X156842800Y-83084497D01*
X157016345Y-83101171D01*
X157157108Y-83123137D01*
X157272560Y-83151123D01*
X157370172Y-83185856D01*
X157457415Y-83228066D01*
X157541760Y-83278480D01*
X157630679Y-83337826D01*
X157799358Y-83467167D01*
X158092081Y-83758526D01*
X158382686Y-84132944D01*
X158670330Y-84589407D01*
X158785961Y-84790491D01*
X158688927Y-84788085D01*
X158637010Y-84773462D01*
X158529119Y-84691692D01*
X158388834Y-84535766D01*
X158312058Y-84446380D01*
X158132007Y-84281962D01*
X157920937Y-84155472D01*
X157824953Y-84109626D01*
X157709759Y-84064436D01*
X157599075Y-84040932D01*
X157463236Y-84033713D01*
X157272573Y-84037375D01*
X156889047Y-84049657D01*
X157340106Y-85426268D01*
X157478885Y-85844918D01*
X157605468Y-86214965D01*
X157711689Y-86510948D01*
X157798963Y-86736676D01*
X157868706Y-86895958D01*
X157922333Y-86992602D01*
X157991047Y-87082168D01*
X158111914Y-87224174D01*
X158259685Y-87387493D01*
X158416331Y-87551719D01*
X158510256Y-87648456D01*
X158678191Y-87831722D01*
X158794238Y-87979748D01*
X158867001Y-88106240D01*
X158905080Y-88224896D01*
X158917077Y-88349420D01*
X158893661Y-88516530D01*
X158800212Y-88680905D01*
X158641614Y-88794739D01*
X158556587Y-88823911D01*
X158353358Y-88833451D01*
X158142929Y-88770530D01*
X157939028Y-88640507D01*
X157755385Y-88448742D01*
X157710580Y-88384174D01*
X157605843Y-88195708D01*
X157485788Y-87933861D01*
X157349940Y-87597320D01*
X157197822Y-87184769D01*
X157028960Y-86694894D01*
X156842877Y-86126376D01*
X156639098Y-85477903D01*
X156417147Y-84748157D01*
X156207642Y-84049657D01*
X155547684Y-84037998D01*
X155411823Y-84035963D01*
X155204053Y-84034425D01*
X155037882Y-84035212D01*
X154927657Y-84038207D01*
X154887726Y-84043297D01*
X154896606Y-84076047D01*
X154927429Y-84180132D01*
X154977120Y-84344736D01*
X155042354Y-84558904D01*
X155119807Y-84811683D01*
X155206150Y-85092122D01*
X155348834Y-85563553D01*
X155468751Y-85982954D01*
X155562982Y-86344648D01*
X155633724Y-86659541D01*
X155683176Y-86938535D01*
X155713538Y-87192534D01*
X155727007Y-87432440D01*
X155725781Y-87669157D01*
X155724313Y-87710315D01*
X155705282Y-87983959D01*
X155667820Y-88194607D01*
X155605238Y-88360818D01*
X155510847Y-88501149D01*
X155377958Y-88634161D01*
X155347752Y-88659595D01*
X155171895Y-88763048D01*
X154975830Y-88798455D01*
X154739559Y-88770074D01*
X154676779Y-88753977D01*
X154396503Y-88635887D01*
X154121575Y-88450248D01*
X153868564Y-88209917D01*
X153654037Y-87927748D01*
X153653419Y-87926774D01*
X153569278Y-87776139D01*
X153475181Y-87580497D01*
X153383977Y-87369556D01*
X153308519Y-87173024D01*
X153261656Y-87020612D01*
X153249010Y-86950983D01*
X153268995Y-86913119D01*
X153348203Y-86914779D01*
X153420180Y-86935525D01*
X153477428Y-86996526D01*
X153529669Y-87118824D01*
X153565830Y-87214634D01*
X153660143Y-87396072D01*
X153781939Y-87529736D01*
X153952254Y-87641652D01*
X153982291Y-87657467D01*
X154217491Y-87742068D01*
X154429002Y-87747956D01*
X154610927Y-87677249D01*
X154757369Y-87532069D01*
X154862425Y-87314535D01*
X154890584Y-87225990D01*
X154913325Y-87135270D01*
X154921036Y-87048920D01*
X154913346Y-86945088D01*
X154889886Y-86801921D01*
X154850285Y-86597565D01*
X154838603Y-86539114D01*
X154758111Y-86163484D01*
X154660032Y-85741200D01*
X154551465Y-85301176D01*
X154439509Y-84872329D01*
X154331262Y-84483573D01*
X154199421Y-84028491D01*
X152745142Y-84028491D01*
X152670821Y-83636907D01*
X152654239Y-83550169D01*
X152619924Y-83374480D01*
X152591325Y-83232935D01*
X152573357Y-83150074D01*
X152550214Y-83054823D01*
X154726076Y-83054823D01*
X155221851Y-83055031D01*
G36*
X155221851Y-83055031D02*
G01*
X155671374Y-83056164D01*
X156050760Y-83058949D01*
X156367478Y-83064113D01*
X156629001Y-83072387D01*
X156842800Y-83084497D01*
X157016345Y-83101171D01*
X157157108Y-83123137D01*
X157272560Y-83151123D01*
X157370172Y-83185856D01*
X157457415Y-83228066D01*
X157541760Y-83278480D01*
X157630679Y-83337826D01*
X157799358Y-83467167D01*
X158092081Y-83758526D01*
X158382686Y-84132944D01*
X158670330Y-84589407D01*
X158785961Y-84790491D01*
X158688927Y-84788085D01*
X158637010Y-84773462D01*
X158529119Y-84691692D01*
X158388834Y-84535766D01*
X158312058Y-84446380D01*
X158132007Y-84281962D01*
X157920937Y-84155472D01*
X157824953Y-84109626D01*
X157709759Y-84064436D01*
X157599075Y-84040932D01*
X157463236Y-84033713D01*
X157272573Y-84037375D01*
X156889047Y-84049657D01*
X157340106Y-85426268D01*
X157478885Y-85844918D01*
X157605468Y-86214965D01*
X157711689Y-86510948D01*
X157798963Y-86736676D01*
X157868706Y-86895958D01*
X157922333Y-86992602D01*
X157991047Y-87082168D01*
X158111914Y-87224174D01*
X158259685Y-87387493D01*
X158416331Y-87551719D01*
X158510256Y-87648456D01*
X158678191Y-87831722D01*
X158794238Y-87979748D01*
X158867001Y-88106240D01*
X158905080Y-88224896D01*
X158917077Y-88349420D01*
X158893661Y-88516530D01*
X158800212Y-88680905D01*
X158641614Y-88794739D01*
X158556587Y-88823911D01*
X158353358Y-88833451D01*
X158142929Y-88770530D01*
X157939028Y-88640507D01*
X157755385Y-88448742D01*
X157710580Y-88384174D01*
X157605843Y-88195708D01*
X157485788Y-87933861D01*
X157349940Y-87597320D01*
X157197822Y-87184769D01*
X157028960Y-86694894D01*
X156842877Y-86126376D01*
X156639098Y-85477903D01*
X156417147Y-84748157D01*
X156207642Y-84049657D01*
X155547684Y-84037998D01*
X155411823Y-84035963D01*
X155204053Y-84034425D01*
X155037882Y-84035212D01*
X154927657Y-84038207D01*
X154887726Y-84043297D01*
X154896606Y-84076047D01*
X154927429Y-84180132D01*
X154977120Y-84344736D01*
X155042354Y-84558904D01*
X155119807Y-84811683D01*
X155206150Y-85092122D01*
X155348834Y-85563553D01*
X155468751Y-85982954D01*
X155562982Y-86344648D01*
X155633724Y-86659541D01*
X155683176Y-86938535D01*
X155713538Y-87192534D01*
X155727007Y-87432440D01*
X155725781Y-87669157D01*
X155724313Y-87710315D01*
X155705282Y-87983959D01*
X155667820Y-88194607D01*
X155605238Y-88360818D01*
X155510847Y-88501149D01*
X155377958Y-88634161D01*
X155347752Y-88659595D01*
X155171895Y-88763048D01*
X154975830Y-88798455D01*
X154739559Y-88770074D01*
X154676779Y-88753977D01*
X154396503Y-88635887D01*
X154121575Y-88450248D01*
X153868564Y-88209917D01*
X153654037Y-87927748D01*
X153653419Y-87926774D01*
X153569278Y-87776139D01*
X153475181Y-87580497D01*
X153383977Y-87369556D01*
X153308519Y-87173024D01*
X153261656Y-87020612D01*
X153249010Y-86950983D01*
X153268995Y-86913119D01*
X153348203Y-86914779D01*
X153420180Y-86935525D01*
X153477428Y-86996526D01*
X153529669Y-87118824D01*
X153565830Y-87214634D01*
X153660143Y-87396072D01*
X153781939Y-87529736D01*
X153952254Y-87641652D01*
X153982291Y-87657467D01*
X154217491Y-87742068D01*
X154429002Y-87747956D01*
X154610927Y-87677249D01*
X154757369Y-87532069D01*
X154862425Y-87314535D01*
X154890584Y-87225990D01*
X154913325Y-87135270D01*
X154921036Y-87048920D01*
X154913346Y-86945088D01*
X154889886Y-86801921D01*
X154850285Y-86597565D01*
X154838603Y-86539114D01*
X154758111Y-86163484D01*
X154660032Y-85741200D01*
X154551465Y-85301176D01*
X154439509Y-84872329D01*
X154331262Y-84483573D01*
X154199421Y-84028491D01*
X152745142Y-84028491D01*
X152670821Y-83636907D01*
X152654239Y-83550169D01*
X152619924Y-83374480D01*
X152591325Y-83232935D01*
X152573357Y-83150074D01*
X152550214Y-83054823D01*
X154726076Y-83054823D01*
X155221851Y-83055031D01*
G37*
%TD*%
%LPC*%
D12*
%TO.C,CLIP1*%
X148950000Y-76850000D03*
%TD*%
%TO.C,CLIP4*%
X166800000Y-100400000D03*
%TD*%
D13*
%TO.C,REF\u002A\u002A*%
X180000000Y-104000000D03*
%TD*%
D12*
%TO.C,CLIP2*%
X166800000Y-76850000D03*
%TD*%
D14*
%TO.C,R19*%
X172770000Y-87800000D03*
D15*
X144830000Y-87800000D03*
%TD*%
D12*
%TO.C,CLIP3*%
X148950000Y-100400000D03*
%TD*%
D13*
%TO.C,REF\u002A\u002A*%
X180000000Y-71000000D03*
%TD*%
D16*
%TO.C,J1*%
X107600000Y-76240000D03*
D17*
X107600000Y-78780000D03*
X107600000Y-81320000D03*
X107600000Y-83860000D03*
X107600000Y-86400000D03*
X107600000Y-88940000D03*
X107600000Y-91480000D03*
X107600000Y-94020000D03*
X107600000Y-96560000D03*
X107600000Y-99100000D03*
%TD*%
D13*
%TO.C,REF\u002A\u002A*%
X110000000Y-71000000D03*
%TD*%
%TO.C,REF\u002A\u002A*%
X110000000Y-104000000D03*
%TD*%
%LPD*%
M02*
